<?xml version="1.0" encoding="UTF-8"?>
<!DOCTYPE svg PUBLIC "-//W3C//DTD SVG 1.1//EN" "http://www.w3.org/Graphics/SVG/1.1/DTD/svg11.dtd">
<svg xmlns="http://www.w3.org/2000/svg" version="1.1" width="2250px" height="3264px" style="shape-rendering:geometricPrecision; text-rendering:geometricPrecision; image-rendering:optimizeQuality; fill-rule:evenodd; clip-rule:evenodd" xmlns:xlink="http://www.w3.org/1999/xlink">
<g><path style="opacity:0.997" fill="#000000" d="M 75.5,21.5 C 775.5,21.3333 1475.5,21.5 2175.5,22C 2210.38,27.2115 2230.21,47.3782 2235,82.5C 2235.67,1115.5 2235.67,2148.5 2235,3181.5C 2230.27,3214.23 2211.77,3234.07 2179.5,3241C 1476.83,3241.67 774.167,3241.67 71.5,3241C 41.9734,3235.32 23.8068,3217.82 17,3188.5C 16.3333,2150.83 16.3333,1113.17 17,75.5C 20.7097,56.5735 30.5431,41.7402 46.5,31C 55.5588,25.7242 65.2255,22.5575 75.5,21.5 Z"/></g>
<g><path style="opacity:1" fill="#fefefe" d="M 514.5,303.5 C 514.427,305.027 515.094,306.027 516.5,306.5C 518.341,308.849 519.674,311.515 520.5,314.5C 520.259,316.898 520.926,318.898 522.5,320.5C 525.826,327.145 528.16,334.145 529.5,341.5C 530.509,346.283 531.509,350.95 532.5,355.5C 532.802,369.168 533.135,382.834 533.5,396.5C 533.02,402.191 532.354,407.858 531.5,413.5C 530.89,414.391 530.557,415.391 530.5,416.5C 529.129,418.936 528.129,421.603 527.5,424.5C 526.163,427.864 524.83,431.197 523.5,434.5C 521.755,436.033 520.755,438.033 520.5,440.5C 518.75,441.659 517.75,443.326 517.5,445.5C 515.75,446.659 514.75,448.326 514.5,450.5C 512.453,452.55 510.786,454.883 509.5,457.5C 506.757,459.239 504.757,461.573 503.5,464.5C 500.833,466.5 498.5,468.833 496.5,471.5C 493.911,472.419 491.911,474.086 490.5,476.5C 482.992,481.421 475.325,486.088 467.5,490.5C 461.267,492.462 455.267,494.796 449.5,497.5C 442.65,498.552 435.983,499.885 429.5,501.5C 429.167,501.5 428.833,501.5 428.5,501.5C 418.468,501.729 408.468,501.396 398.5,500.5C 394.702,499.132 390.702,498.132 386.5,497.5C 383.211,496.626 379.877,495.959 376.5,495.5C 375.609,494.89 374.609,494.557 373.5,494.5C 371.967,492.755 369.967,491.755 367.5,491.5C 365.967,489.755 363.967,488.755 361.5,488.5C 351.706,483.706 343.039,477.372 335.5,469.5C 333.5,466.833 331.167,464.5 328.5,462.5C 321.597,454.944 315.93,446.611 311.5,437.5C 311.585,436.005 310.919,435.005 309.5,434.5C 307.628,436.91 306.295,439.577 305.5,442.5C 302.174,447.495 298.841,452.495 295.5,457.5C 293.413,458.585 292.08,460.251 291.5,462.5C 281.955,472.391 271.288,480.725 259.5,487.5C 256.008,488.41 253.008,490.076 250.5,492.5C 247.351,492.415 244.684,493.415 242.5,495.5C 237.607,496.415 232.94,497.748 228.5,499.5C 228.167,499.5 227.833,499.5 227.5,499.5C 209.418,502.476 191.418,502.143 173.5,498.5C 173.167,498.5 172.833,498.5 172.5,498.5C 170.316,496.415 167.649,495.415 164.5,495.5C 130.575,483.748 106.741,461.082 93,427.5C 85.2799,407.839 82.7799,387.505 85.5,366.5C 87.0538,362.433 87.7204,358.1 87.5,353.5C 87.5,353.167 87.5,352.833 87.5,352.5C 88.9238,350.485 89.5905,348.152 89.5,345.5C 92.8318,329.837 98.6651,315.17 107,301.5C 117.807,284.191 130.64,268.524 145.5,254.5C 147.833,252.833 149.833,250.833 151.5,248.5C 173.677,226.491 196.677,205.325 220.5,185C 254.049,154.805 283.882,121.638 310,85.5C 327.476,108.988 346.476,131.322 367,152.5C 397.201,180.37 427.701,207.87 458.5,235C 478.955,253.773 496.788,274.607 512,297.5C 513.122,299.407 513.955,301.407 514.5,303.5 Z"/></g>
<g><path style="opacity:1" fill="#a3a3a3" d="M 151.5,248.5 C 149.833,250.833 147.833,252.833 145.5,254.5C 146.5,251.5 148.5,249.5 151.5,248.5 Z"/></g>
<g><path style="opacity:1" fill="#858585" d="M 514.5,303.5 C 515.906,303.973 516.573,304.973 516.5,306.5C 515.094,306.027 514.427,305.027 514.5,303.5 Z"/></g>
<g><path style="opacity:1" fill="#9c9c9c" d="M 520.5,314.5 C 522.074,316.102 522.741,318.102 522.5,320.5C 520.926,318.898 520.259,316.898 520.5,314.5 Z"/></g>
<g><path style="opacity:1" fill="#8a8a8a" d="M 529.5,341.5 C 531.956,345.738 532.956,350.404 532.5,355.5C 531.509,350.95 530.509,346.283 529.5,341.5 Z"/></g>
<g><path style="opacity:1" fill="#a2a2a2" d="M 89.5,345.5 C 89.5905,348.152 88.9238,350.485 87.5,352.5C 87.4095,349.848 88.0762,347.515 89.5,345.5 Z"/></g>
<g><path style="opacity:1" fill="#a3a3a3" d="M 87.5,353.5 C 87.7204,358.1 87.0538,362.433 85.5,366.5C 85.2796,361.9 85.9462,357.567 87.5,353.5 Z"/></g>
<g><path style="opacity:1" fill="#3a3a3a" d="M 533.5,357.5 C 535.044,364.599 535.71,371.932 535.5,379.5C 535.499,385.011 535.166,390.344 534.5,395.5C 534.655,382.815 534.322,370.149 533.5,357.5 Z"/></g>
<g><path style="opacity:1" fill="#cbcbcb" d="M 532.5,355.5 C 533.338,355.842 533.672,356.508 533.5,357.5C 534.322,370.149 534.655,382.815 534.5,395.5C 534.5,395.833 534.5,396.167 534.5,396.5C 534.167,396.5 533.833,396.5 533.5,396.5C 533.135,382.834 532.802,369.168 532.5,355.5 Z"/></g>
<g><path style="opacity:1" fill="#3a3a3a" d="M 533.5,396.5 C 533.833,396.5 534.167,396.5 534.5,396.5C 534.667,402.503 533.667,408.17 531.5,413.5C 532.354,407.858 533.02,402.191 533.5,396.5 Z"/></g>
<g><path style="opacity:1" fill="#515151" d="M 530.5,416.5 C 530.655,419.716 529.655,422.383 527.5,424.5C 528.129,421.603 529.129,418.936 530.5,416.5 Z"/></g>
<g><path style="opacity:1" fill="#707070" d="M 523.5,434.5 C 523.245,436.967 522.245,438.967 520.5,440.5C 520.755,438.033 521.755,436.033 523.5,434.5 Z"/></g>
<g><path style="opacity:1" fill="#333333" d="M 311.5,437.5 C 310.5,437.5 309.5,437.5 308.5,437.5C 308.741,440.034 307.741,441.7 305.5,442.5C 306.295,439.577 307.628,436.91 309.5,434.5C 310.919,435.005 311.585,436.005 311.5,437.5 Z"/></g>
<g><path style="opacity:1" fill="#515151" d="M 520.5,440.5 C 520.408,442.848 519.408,444.514 517.5,445.5C 517.75,443.326 518.75,441.659 520.5,440.5 Z"/></g>
<g><path style="opacity:1" fill="#4f4f4f" d="M 517.5,445.5 C 517.408,447.848 516.408,449.514 514.5,450.5C 514.75,448.326 515.75,446.659 517.5,445.5 Z"/></g>
<g><path style="opacity:1" fill="#494949" d="M 295.5,457.5 C 294.92,459.749 293.587,461.415 291.5,462.5C 292.08,460.251 293.413,458.585 295.5,457.5 Z"/></g>
<g><path style="opacity:1" fill="#585858" d="M 509.5,457.5 C 508.243,460.427 506.243,462.761 503.5,464.5C 504.757,461.573 506.757,459.239 509.5,457.5 Z"/></g>
<g><path style="opacity:1" fill="#5c5c5c" d="M 328.5,462.5 C 331.167,464.5 333.5,466.833 335.5,469.5C 332.167,468.167 329.833,465.833 328.5,462.5 Z"/></g>
<g><path style="opacity:1" fill="#484848" d="M 496.5,471.5 C 495.089,473.914 493.089,475.581 490.5,476.5C 491.911,474.086 493.911,472.419 496.5,471.5 Z"/></g>
<g><path style="opacity:1" fill="#7f7f7f" d="M 361.5,488.5 C 363.967,488.755 365.967,489.755 367.5,491.5C 365.033,491.245 363.033,490.245 361.5,488.5 Z"/></g>
<g><path style="opacity:1" fill="#373737" d="M 259.5,487.5 C 258.358,489.433 256.692,490.933 254.5,492C 253.207,492.49 251.873,492.657 250.5,492.5C 253.008,490.076 256.008,488.41 259.5,487.5 Z"/></g>
<g><path style="opacity:1" fill="#4a4a4a" d="M 250.5,492.5 C 248.316,494.585 245.649,495.585 242.5,495.5C 244.684,493.415 247.351,492.415 250.5,492.5 Z"/></g>
<g><path style="opacity:1" fill="#5a5a5a" d="M 367.5,491.5 C 369.967,491.755 371.967,492.755 373.5,494.5C 371.033,494.245 369.033,493.245 367.5,491.5 Z"/></g>
<g><path style="opacity:1" fill="#646464" d="M 376.5,495.5 C 379.877,495.959 383.211,496.626 386.5,497.5C 387.5,498.167 388.5,498.833 389.5,499.5C 384.835,498.943 380.502,497.61 376.5,495.5 Z"/></g>
<g><path style="opacity:1" fill="#959595" d="M 164.5,495.5 C 167.649,495.415 170.316,496.415 172.5,498.5C 169.351,498.585 166.684,497.585 164.5,495.5 Z"/></g>
<g><path style="opacity:1" fill="#646464" d="M 467.5,490.5 C 467.53,491.497 467.03,492.164 466,492.5C 460.604,494.621 455.104,496.287 449.5,497.5C 455.267,494.796 461.267,492.462 467.5,490.5 Z"/></g>
<g><path style="opacity:1" fill="#393939" d="M 242.5,495.5 C 238.535,498.926 233.869,500.26 228.5,499.5C 232.94,497.748 237.607,496.415 242.5,495.5 Z"/></g>
<g><path style="opacity:1" fill="#ababab" d="M 386.5,497.5 C 390.702,498.132 394.702,499.132 398.5,500.5C 397.167,500.5 395.833,500.5 394.5,500.5C 392.708,500.634 391.042,500.301 389.5,499.5C 388.5,498.833 387.5,498.167 386.5,497.5 Z"/></g>
<g><path style="opacity:1" fill="#393939" d="M 449.5,497.5 C 447.239,499.255 444.572,500.422 441.5,501C 437.514,501.499 433.514,501.666 429.5,501.5C 435.983,499.885 442.65,498.552 449.5,497.5 Z"/></g>
<g><path style="opacity:1" fill="#636363" d="M 173.5,498.5 C 191.418,502.143 209.418,502.476 227.5,499.5C 226.737,500.268 225.737,500.768 224.5,501C 208.628,503.105 192.795,502.938 177,500.5C 175.319,500.392 174.152,499.725 173.5,498.5 Z"/></g>
<g><path style="opacity:1" fill="#5b5b5b" d="M 394.5,500.5 C 395.833,500.5 397.167,500.5 398.5,500.5C 408.468,501.396 418.468,501.729 428.5,501.5C 423.845,502.166 419.012,502.499 414,502.5C 407.254,502.72 400.754,502.054 394.5,500.5 Z"/></g>
<g><path style="opacity:1" fill="#aeaeae" d="M 1134.5,924.5 C 1132.91,924.08 1131.41,923.414 1130,922.5C 1129.1,922.743 1128.26,923.077 1127.5,923.5C 1127.5,922.167 1127.5,920.833 1127.5,919.5C 1130.95,919.615 1133.28,921.281 1134.5,924.5 Z"/></g>
<g><path style="opacity:1" fill="#fefefe" d="M 1134.5,924.5 C 1134.35,925.552 1134.52,926.552 1135,927.5C 1137.84,929.799 1140.01,932.465 1141.5,935.5C 1141.34,936.873 1141.51,938.207 1142,939.5C 1144.51,941.196 1146.01,943.53 1146.5,946.5C 1147.52,947.193 1148.52,947.859 1149.5,948.5C 1150.42,952.362 1152.09,955.696 1154.5,958.5C 1155.92,962.459 1157.42,966.459 1159,970.5C 1162.02,971.688 1164.18,973.688 1165.5,976.5C 1165.83,979.808 1167.33,982.475 1170,984.5C 1170.49,985.793 1170.66,987.127 1170.5,988.5C 1171.5,988.5 1172.5,988.5 1173.5,988.5C 1174.31,990.028 1174.98,991.694 1175.5,993.5C 1176.93,996.047 1178.6,998.381 1180.5,1000.5C 1181.51,1002.37 1182.34,1004.37 1183,1006.5C 1183.67,1007.25 1184.5,1007.59 1185.5,1007.5C 1187.98,1008.69 1188.98,1010.69 1188.5,1013.5C 1188.95,1016.75 1190.62,1019.08 1193.5,1020.5C 1193.95,1023.75 1195.62,1026.08 1198.5,1027.5C 1198.63,1031.62 1200.63,1034.29 1204.5,1035.5C 1204.34,1036.87 1204.51,1038.21 1205,1039.5C 1207.19,1043.2 1209.85,1046.53 1213,1049.5C 1213.88,1053.88 1216.38,1056.88 1220.5,1058.5C 1220.34,1059.87 1220.51,1061.21 1221,1062.5C 1224.09,1065.72 1226.92,1069.05 1229.5,1072.5C 1229.34,1073.87 1229.51,1075.21 1230,1076.5C 1232.24,1078.72 1234.07,1081.06 1235.5,1083.5C 1238.01,1088.12 1241.34,1092.12 1245.5,1095.5C 1244.87,1099.16 1246.21,1101.66 1249.5,1103C 1251.37,1105.19 1253.03,1107.36 1254.5,1109.5C 1255.83,1110.17 1256.83,1111.17 1257.5,1112.5C 1257.99,1114.82 1258.99,1116.82 1260.5,1118.5C 1262.5,1120.17 1264.5,1121.83 1266.5,1123.5C 1266.34,1124.87 1266.51,1126.21 1267,1127.5C 1271.25,1132.2 1275.42,1136.86 1279.5,1141.5C 1281.3,1143.89 1282.97,1146.22 1284.5,1148.5C 1288.39,1154.78 1293.22,1160.44 1299,1165.5C 1299.21,1167.06 1299.71,1168.39 1300.5,1169.5C 1302.5,1172.17 1304.83,1174.5 1307.5,1176.5C 1307.83,1176.5 1308.17,1176.5 1308.5,1176.5C 1308.46,1181.47 1310.8,1184.8 1315.5,1186.5C 1317.18,1189.02 1318.68,1191.69 1320,1194.5C 1320.67,1195.25 1321.5,1195.59 1322.5,1195.5C 1325.79,1199.45 1329.45,1203.12 1333.5,1206.5C 1335.62,1212.3 1339.29,1216.96 1344.5,1220.5C 1346.7,1222.26 1347.87,1224.6 1348,1227.5C 1348.67,1228.25 1349.5,1228.59 1350.5,1228.5C 1354.07,1233.57 1358.23,1238.24 1363,1242.5C 1362.94,1245.84 1364.44,1247.84 1367.5,1248.5C 1375.13,1256.63 1382.96,1264.63 1391,1272.5C 1393.9,1277.57 1397.73,1281.9 1402.5,1285.5C 1404.5,1288.17 1406.83,1290.5 1409.5,1292.5C 1411.5,1295.17 1413.83,1297.5 1416.5,1299.5C 1418.5,1302.17 1420.83,1304.5 1423.5,1306.5C 1425.5,1309.17 1427.83,1311.5 1430.5,1313.5C 1432.5,1316.17 1434.83,1318.5 1437.5,1320.5C 1439.5,1323.17 1441.83,1325.5 1444.5,1327.5C 1446.5,1330.17 1448.83,1332.5 1451.5,1334.5C 1453.5,1337.17 1455.83,1339.5 1458.5,1341.5C 1460.17,1345.17 1462.83,1347.83 1466.5,1349.5C 1467.69,1352.94 1470.03,1355.27 1473.5,1356.5C 1474.69,1359.94 1477.03,1362.27 1480.5,1363.5C 1483.53,1365.86 1486.19,1368.53 1488.5,1371.5C 1491.07,1372.72 1493.4,1374.38 1495.5,1376.5C 1497.17,1380.17 1499.83,1382.83 1503.5,1384.5C 1506.17,1386.5 1508.5,1388.83 1510.5,1391.5C 1527.52,1407.01 1544.36,1423.35 1561,1440.5C 1561.23,1441.74 1561.73,1442.74 1562.5,1443.5C 1564.5,1446.17 1566.83,1448.5 1569.5,1450.5C 1571.5,1453.17 1573.83,1455.5 1576.5,1457.5C 1578.3,1459.89 1579.97,1462.22 1581.5,1464.5C 1583.5,1467.17 1585.83,1469.5 1588.5,1471.5C 1589.15,1473.09 1589.65,1474.75 1590,1476.5C 1593.81,1479.79 1596.97,1483.46 1599.5,1487.5C 1600.83,1489.5 1602.5,1491.17 1604.5,1492.5C 1606.56,1494.37 1607.9,1496.7 1608.5,1499.5C 1609.52,1500.19 1610.52,1500.86 1611.5,1501.5C 1612.15,1503.09 1612.65,1504.75 1613,1506.5C 1616.15,1509.13 1618.65,1512.13 1620.5,1515.5C 1622.76,1518.46 1624.42,1521.79 1625.5,1525.5C 1626.79,1528.13 1628.79,1529.8 1631.5,1530.5C 1633.88,1534.76 1636.71,1538.76 1640,1542.5C 1641.46,1544.97 1642.46,1547.64 1643,1550.5C 1643.67,1551.25 1644.5,1551.59 1645.5,1551.5C 1645.99,1553.82 1646.99,1555.82 1648.5,1557.5C 1648.63,1561.62 1650.63,1564.29 1654.5,1565.5C 1654.62,1568.58 1655.62,1571.24 1657.5,1573.5C 1659.62,1575.6 1661.28,1577.93 1662.5,1580.5C 1663.77,1582.04 1664.77,1583.71 1665.5,1585.5C 1665.14,1589.41 1666.47,1592.41 1669.5,1594.5C 1671.09,1599.66 1673.43,1604.33 1676.5,1608.5C 1677.35,1611.59 1678.35,1614.59 1679.5,1617.5C 1680.1,1620.13 1680.6,1622.79 1681,1625.5C 1684.29,1628.75 1685.95,1632.75 1686,1637.5C 1687.52,1639.27 1689.02,1640.94 1690.5,1642.5C 1691.14,1645.93 1692.31,1649.26 1694,1652.5C 1694.67,1653.25 1695.5,1653.59 1696.5,1653.5C 1696.21,1655.74 1696.54,1657.74 1697.5,1659.5C 1698.37,1661.72 1698.7,1664.05 1698.5,1666.5C 1702.41,1680.62 1706.41,1694.62 1710.5,1708.5C 1710.83,1708.5 1711.17,1708.5 1711.5,1708.5C 1713.76,1723.24 1715.76,1737.9 1717.5,1752.5C 1717.5,1753.17 1717.83,1753.5 1718.5,1753.5C 1718.67,1777.84 1718.5,1802.17 1718,1826.5C 1716.55,1831.98 1716.05,1837.65 1716.5,1843.5C 1714.58,1847.03 1713.91,1851.03 1714.5,1855.5C 1712.59,1858.68 1711.92,1862.35 1712.5,1866.5C 1711.5,1866.41 1710.67,1866.75 1710,1867.5C 1707.63,1879.22 1704.46,1890.56 1700.5,1901.5C 1699.5,1901.5 1698.5,1901.5 1697.5,1901.5C 1696.03,1908.65 1694.03,1915.65 1691.5,1922.5C 1690.5,1922.5 1689.5,1922.5 1688.5,1922.5C 1687.17,1927.17 1685.83,1931.83 1684.5,1936.5C 1682.1,1940.96 1679.43,1945.3 1676.5,1949.5C 1675.83,1950.5 1675.17,1951.5 1674.5,1952.5C 1670.79,1954.22 1668.79,1957.22 1668.5,1961.5C 1666.63,1961.86 1665.13,1962.86 1664,1964.5C 1663.42,1966.66 1662.58,1968.66 1661.5,1970.5C 1657.47,1971.61 1655.31,1974.28 1655,1978.5C 1651.68,1981.99 1648.18,1985.32 1644.5,1988.5C 1643.05,1989.85 1642.38,1991.52 1642.5,1993.5C 1641.13,1993.34 1639.79,1993.51 1638.5,1994C 1631.27,2001.72 1624.27,2009.56 1617.5,2017.5C 1614.14,2017.22 1611.81,2018.55 1610.5,2021.5C 1607.83,2022.17 1606.17,2023.83 1605.5,2026.5C 1601.76,2026.24 1599.43,2027.91 1598.5,2031.5C 1594.78,2032.66 1591.11,2034.16 1587.5,2036C 1585.86,2037.13 1584.86,2038.63 1584.5,2040.5C 1580.76,2040.24 1578.43,2041.91 1577.5,2045.5C 1575.52,2045.16 1574.18,2045.82 1573.5,2047.5C 1570.32,2048.64 1566.98,2049.31 1563.5,2049.5C 1563.5,2050.5 1563.5,2051.5 1563.5,2052.5C 1561.52,2052.16 1560.18,2052.82 1559.5,2054.5C 1556.32,2055.64 1552.98,2056.31 1549.5,2056.5C 1549.5,2057.5 1549.5,2058.5 1549.5,2059.5C 1548.21,2059.26 1547.21,2059.6 1546.5,2060.5C 1545.83,2060.5 1545.5,2060.83 1545.5,2061.5C 1541.19,2062.37 1537.19,2063.71 1533.5,2065.5C 1531.71,2066.31 1529.71,2066.81 1527.5,2067C 1525.4,2067.74 1523.74,2068.9 1522.5,2070.5C 1522.5,2071.17 1522.17,2071.5 1521.5,2071.5C 1516.54,2072.04 1511.88,2073.38 1507.5,2075.5C 1504.81,2075.34 1502.15,2075.5 1499.5,2076C 1495.86,2076.76 1492.53,2077.93 1489.5,2079.5C 1486.2,2079.89 1483.2,2080.89 1480.5,2082.5C 1472.68,2083.07 1465.01,2084.07 1457.5,2085.5C 1457.5,2086.17 1457.5,2086.83 1457.5,2087.5C 1449.41,2087.2 1441.41,2087.53 1433.5,2088.5C 1411.79,2088.81 1390.12,2088.48 1368.5,2087.5C 1355.95,2086.8 1343.62,2085.13 1331.5,2082.5C 1326.74,2082.77 1322.07,2082.44 1317.5,2081.5C 1314.66,2080.66 1311.66,2079.99 1308.5,2079.5C 1308.5,2079.17 1308.5,2078.83 1308.5,2078.5C 1302.8,2076.59 1296.8,2075.59 1290.5,2075.5C 1290.39,2074.88 1290.06,2074.38 1289.5,2074C 1286.41,2073.74 1283.41,2073.24 1280.5,2072.5C 1278.03,2071.9 1275.69,2070.9 1273.5,2069.5C 1271.29,2068.73 1268.95,2068.07 1266.5,2067.5C 1264.29,2066.73 1261.95,2066.07 1259.5,2065.5C 1257.03,2064.9 1254.69,2063.9 1252.5,2062.5C 1250.21,2061.94 1248.21,2060.78 1246.5,2059C 1244.87,2058.51 1243.2,2058.34 1241.5,2058.5C 1241.5,2058.17 1241.5,2057.83 1241.5,2057.5C 1239.92,2056.72 1238.59,2055.55 1237.5,2054C 1231.74,2052.58 1226.07,2051.08 1220.5,2049.5C 1216.66,2047.83 1212.66,2046.16 1208.5,2044.5C 1207.43,2043.57 1206.1,2043.23 1204.5,2043.5C 1204.59,2042.5 1204.25,2041.67 1203.5,2041C 1197.86,2039.47 1192.86,2036.97 1188.5,2033.5C 1188.5,2032.83 1188.17,2032.5 1187.5,2032.5C 1185.77,2031.79 1184.1,2030.79 1182.5,2029.5C 1182.17,2030 1181.83,2030.5 1181.5,2031C 1182.67,2035.44 1184.01,2039.61 1185.5,2043.5C 1185.19,2046.71 1185.52,2049.71 1186.5,2052.5C 1187.09,2055.61 1187.76,2058.61 1188.5,2061.5C 1188.5,2062.17 1188.83,2062.5 1189.5,2062.5C 1189.59,2068.8 1190.59,2074.8 1192.5,2080.5C 1193.12,2080.61 1193.62,2080.94 1194,2081.5C 1194.18,2084.36 1194.68,2087.03 1195.5,2089.5C 1195.5,2090.17 1195.83,2090.5 1196.5,2090.5C 1196.34,2093.52 1196.5,2096.52 1197,2099.5C 1198.78,2101.21 1199.94,2103.21 1200.5,2105.5C 1200.5,2106.17 1200.83,2106.5 1201.5,2106.5C 1201.37,2112.03 1202.04,2117.36 1203.5,2122.5C 1204.5,2122.5 1205.5,2122.5 1206.5,2122.5C 1207.5,2127.87 1208.5,2133.2 1209.5,2138.5C 1210.12,2138.61 1210.62,2138.94 1211,2139.5C 1212.04,2143.97 1213.21,2148.3 1214.5,2152.5C 1214.93,2155.01 1215.59,2157.34 1216.5,2159.5C 1217.8,2164.23 1219.3,2168.9 1221,2173.5C 1221.74,2175.6 1222.9,2177.26 1224.5,2178.5C 1224.54,2183.35 1225.38,2188.01 1227,2192.5C 1228.55,2193.59 1229.72,2194.92 1230.5,2196.5C 1231.61,2198.42 1232.95,2200.09 1234.5,2201.5C 1234.2,2204.06 1234.53,2206.39 1235.5,2208.5C 1235.14,2212.41 1236.47,2215.41 1239.5,2217.5C 1240.93,2218.91 1241.93,2220.58 1242.5,2222.5C 1242.14,2226.41 1243.47,2229.41 1246.5,2231.5C 1247.01,2235.3 1248.68,2238.3 1251.5,2240.5C 1251.5,2241.17 1251.83,2241.5 1252.5,2241.5C 1252.23,2243.1 1252.57,2244.43 1253.5,2245.5C 1255.51,2251.36 1258.01,2257.02 1261,2262.5C 1262.11,2263.31 1263.28,2263.97 1264.5,2264.5C 1265.86,2265.59 1266.86,2266.92 1267.5,2268.5C 1269.97,2273.44 1272.47,2278.44 1275,2283.5C 1277.31,2284.73 1279.47,2286.06 1281.5,2287.5C 1284.68,2292.03 1288.34,2296.36 1292.5,2300.5C 1293.99,2304.67 1296.66,2308.01 1300.5,2310.5C 1303.66,2313.64 1306.33,2316.97 1308.5,2320.5C 1312.08,2325.75 1316.42,2330.42 1321.5,2334.5C 1322.17,2335.95 1322.84,2337.28 1323.5,2338.5C 1326.83,2341.5 1330.17,2344.5 1333.5,2347.5C 1333.9,2351.23 1335.57,2354.23 1338.5,2356.5C 1338.54,2357.58 1338.87,2358.58 1339.5,2359.5C 1271.5,2359.83 1203.5,2360.17 1135.5,2360.5C 1067.16,2360.5 999.163,2359.83 931.5,2358.5C 935.44,2357.38 937.273,2354.71 937,2350.5C 938.707,2348.96 940.207,2347.3 941.5,2345.5C 942.434,2344.43 942.768,2343.1 942.5,2341.5C 943.5,2341.5 944.5,2341.5 945.5,2341.5C 945.5,2340.5 945.5,2339.5 945.5,2338.5C 945.972,2336.47 946.972,2334.8 948.5,2333.5C 949.708,2332.77 951.041,2332.43 952.5,2332.5C 952.34,2330.8 952.506,2329.13 953,2327.5C 956.716,2323.82 959.882,2319.82 962.5,2315.5C 963.103,2312.83 964.436,2310.49 966.5,2308.5C 969.408,2304.73 972.241,2300.73 975,2296.5C 976.378,2294.79 978.045,2293.45 980,2292.5C 980.494,2290.87 980.66,2289.2 980.5,2287.5C 981.417,2284.68 983.084,2282.35 985.5,2280.5C 987.46,2277.37 989.127,2274.04 990.5,2270.5C 991.458,2270.05 992.292,2269.38 993,2268.5C 994.622,2265.68 995.789,2262.68 996.5,2259.5C 996.972,2257.47 997.972,2255.8 999.5,2254.5C 1000.14,2252.92 1001.14,2251.59 1002.5,2250.5C 1004.9,2247.38 1007.07,2244.05 1009,2240.5C 1010.08,2237.94 1010.58,2235.27 1010.5,2232.5C 1010.5,2232.17 1010.5,2231.83 1010.5,2231.5C 1012.8,2228.93 1014.63,2225.93 1016,2222.5C 1016.5,2220.19 1016.66,2217.86 1016.5,2215.5C 1017.98,2213.99 1019.31,2212.33 1020.5,2210.5C 1021.27,2208.29 1021.93,2205.95 1022.5,2203.5C 1024.86,2201.08 1025.86,2198.08 1025.5,2194.5C 1026.17,2194.5 1026.83,2194.5 1027.5,2194.5C 1028.27,2192.29 1028.93,2189.95 1029.5,2187.5C 1030.43,2186.43 1030.77,2185.1 1030.5,2183.5C 1031.5,2183.5 1032.5,2183.5 1033.5,2183.5C 1033.19,2181.08 1033.53,2178.74 1034.5,2176.5C 1036.72,2173.22 1037.89,2169.55 1038,2165.5C 1038.38,2164.94 1038.88,2164.61 1039.5,2164.5C 1040.69,2164.03 1041.36,2163.03 1041.5,2161.5C 1041.99,2157.75 1042.65,2154.09 1043.5,2150.5C 1044.5,2150.5 1045.5,2150.5 1046.5,2150.5C 1047.52,2143.52 1049.36,2136.85 1052,2130.5C 1052.5,2128.19 1052.66,2125.86 1052.5,2123.5C 1052.5,2123.17 1052.5,2122.83 1052.5,2122.5C 1052.83,2122.5 1053.17,2122.5 1053.5,2122.5C 1055.09,2120.89 1056.26,2118.89 1057,2116.5C 1059.03,2109.59 1060.53,2102.59 1061.5,2095.5C 1062.5,2095.5 1063.5,2095.5 1064.5,2095.5C 1066.4,2090.05 1067.9,2084.39 1069,2078.5C 1070.08,2074.23 1070.58,2069.9 1070.5,2065.5C 1072.12,2065.64 1073.29,2064.97 1074,2063.5C 1074.66,2058.04 1075.82,2052.71 1077.5,2047.5C 1078.43,2042.54 1079.27,2037.54 1080,2032.5C 1081.49,2031.58 1081.66,2030.58 1080.5,2029.5C 1078.86,2030.7 1077.19,2031.7 1075.5,2032.5C 1073.81,2034.01 1071.81,2035.01 1069.5,2035.5C 1067.52,2036 1065.52,2036.5 1063.5,2037C 1062.75,2037.67 1062.41,2038.5 1062.5,2039.5C 1062.5,2040.17 1062.5,2040.83 1062.5,2041.5C 1057.33,2042.42 1052.66,2044.42 1048.5,2047.5C 1047.13,2047.34 1045.79,2047.51 1044.5,2048C 1042.4,2048.74 1040.74,2049.9 1039.5,2051.5C 1039.5,2051.83 1039.5,2052.17 1039.5,2052.5C 1036.09,2053.35 1032.76,2054.52 1029.5,2056C 1027.19,2056.5 1024.86,2056.66 1022.5,2056.5C 1022.5,2057.5 1022.5,2058.5 1022.5,2059.5C 1021.21,2059.26 1020.21,2059.6 1019.5,2060.5C 1018.83,2060.5 1018.5,2060.83 1018.5,2061.5C 1014.19,2062.37 1010.19,2063.71 1006.5,2065.5C 1000.5,2067.5 994.5,2069.5 988.5,2071.5C 987.051,2073.16 985.051,2074 982.5,2074C 981.748,2074.67 981.414,2075.5 981.5,2076.5C 978.941,2076.2 976.607,2076.53 974.5,2077.5C 965.803,2078.65 957.136,2079.99 948.5,2081.5C 948.5,2082.5 948.5,2083.5 948.5,2084.5C 944.988,2083.95 941.988,2084.61 939.5,2086.5C 939.5,2086.83 939.5,2087.17 939.5,2087.5C 935.818,2087.33 932.152,2087.5 928.5,2088C 924.217,2088.77 920.217,2089.93 916.5,2091.5C 912.353,2092.32 908.019,2092.82 903.5,2093C 902.944,2093.38 902.611,2093.88 902.5,2094.5C 895.087,2093.87 888.087,2094.54 881.5,2096.5C 854.5,2096.5 827.5,2096.5 800.5,2096.5C 795.604,2094.55 790.271,2093.89 784.5,2094.5C 784.672,2093.51 784.338,2092.84 783.5,2092.5C 778.268,2091.79 772.935,2091.12 767.5,2090.5C 765.031,2089.68 762.365,2089.18 759.5,2089C 758.944,2088.62 758.611,2088.12 758.5,2087.5C 755.311,2086.83 751.977,2086.17 748.5,2085.5C 748.291,2084.91 747.957,2084.41 747.5,2084C 741.865,2083.1 736.198,2082.6 730.5,2082.5C 725.833,2080.5 721.167,2078.5 716.5,2076.5C 714.285,2075.73 711.952,2075.07 709.5,2074.5C 707.285,2073.73 704.952,2073.07 702.5,2072.5C 702.5,2072.17 702.5,2071.83 702.5,2071.5C 700.077,2069.14 697.077,2068.14 693.5,2068.5C 693.5,2068.17 693.5,2067.83 693.5,2067.5C 691.645,2065.77 689.312,2064.77 686.5,2064.5C 684.924,2063.72 683.591,2062.55 682.5,2061C 680.866,2060.51 679.199,2060.34 677.5,2060.5C 671.131,2056.85 664.464,2053.52 657.5,2050.5C 657.586,2049.5 657.252,2048.67 656.5,2048C 654.753,2047.65 653.086,2047.15 651.5,2046.5C 647.763,2046.76 645.43,2045.09 644.5,2041.5C 642.877,2039.11 640.544,2037.77 637.5,2037.5C 636.085,2034.62 633.751,2032.95 630.5,2032.5C 628.822,2030.15 626.489,2028.81 623.5,2028.5C 621.372,2025.87 619.039,2023.37 616.5,2021C 611.041,2017.05 605.708,2012.88 600.5,2008.5C 599.237,2006.97 598.237,2005.3 597.5,2003.5C 597.372,2001.91 596.705,2000.58 595.5,1999.5C 593.013,1997.5 590.347,1995.83 587.5,1994.5C 586.603,1991.79 585.27,1989.45 583.5,1987.5C 580.808,1985.14 578.141,1982.8 575.5,1980.5C 575.975,1977.69 574.975,1975.69 572.5,1974.5C 570.384,1972.4 568.717,1970.07 567.5,1967.5C 566.713,1965.9 565.38,1965.23 563.5,1965.5C 563.5,1963.83 563.5,1962.17 563.5,1960.5C 561.384,1958.4 559.717,1956.07 558.5,1953.5C 556.769,1952.01 555.769,1950.01 555.5,1947.5C 553.61,1941.98 550.944,1936.98 547.5,1932.5C 546.772,1929.92 546.272,1927.25 546,1924.5C 544.45,1923.41 543.283,1922.08 542.5,1920.5C 539.825,1911.91 536.825,1903.57 533.5,1895.5C 533.113,1892.79 532.113,1890.46 530.5,1888.5C 529.423,1881.8 528.423,1875.13 527.5,1868.5C 526.5,1868.5 525.5,1868.5 524.5,1868.5C 525.08,1864.35 524.414,1860.68 522.5,1857.5C 523.134,1849.1 522.467,1841.1 520.5,1833.5C 519.338,1815.67 519.171,1797.67 520,1779.5C 520.383,1778.94 520.883,1778.61 521.5,1778.5C 522.203,1772.27 522.87,1765.93 523.5,1759.5C 524.216,1754.94 524.883,1750.27 525.5,1745.5C 526.63,1738.41 528.297,1731.41 530.5,1724.5C 532.473,1716.36 534.139,1708.02 535.5,1699.5C 536.167,1699.5 536.833,1699.5 537.5,1699.5C 538.268,1697.29 538.935,1694.95 539.5,1692.5C 540.268,1690.29 540.935,1687.95 541.5,1685.5C 541.833,1685.5 542.167,1685.5 542.5,1685.5C 543.268,1683.29 543.935,1680.95 544.5,1678.5C 545.268,1676.29 545.935,1673.95 546.5,1671.5C 547.268,1669.29 547.935,1666.95 548.5,1664.5C 549.404,1663.79 549.737,1662.79 549.5,1661.5C 550.15,1661.2 550.817,1660.86 551.5,1660.5C 553.566,1657.01 554.9,1653.34 555.5,1649.5C 559.744,1645.14 562.077,1639.8 562.5,1633.5C 563.051,1630.94 564.051,1628.61 565.5,1626.5C 566.5,1626.17 567.167,1625.5 567.5,1624.5C 568.404,1623.79 568.737,1622.79 568.5,1621.5C 569.5,1621.5 570.5,1621.5 571.5,1621.5C 572.502,1617.83 573.502,1614.16 574.5,1610.5C 575.345,1609.33 576.011,1608 576.5,1606.5C 578.46,1603.37 580.127,1600.04 581.5,1596.5C 582.361,1593.96 584.028,1591.96 586.5,1590.5C 587.429,1589.31 587.762,1587.98 587.5,1586.5C 588.5,1586.5 589.5,1586.5 590.5,1586.5C 589.578,1582.52 591.078,1580.18 595,1579.5C 595.384,1576.94 596.217,1574.61 597.5,1572.5C 600.402,1566.26 603.735,1560.26 607.5,1554.5C 608.5,1554.17 609.167,1553.5 609.5,1552.5C 613.883,1547.27 617.55,1541.61 620.5,1535.5C 624.733,1533.94 627.067,1530.94 627.5,1526.5C 627.799,1524.54 628.799,1523.21 630.5,1522.5C 632.58,1519.36 634.913,1516.36 637.5,1513.5C 640.287,1510.63 642.621,1507.3 644.5,1503.5C 645.5,1503.17 646.167,1502.5 646.5,1501.5C 647.717,1498.93 649.384,1496.6 651.5,1494.5C 651.5,1493.17 652.167,1492.5 653.5,1492.5C 657.705,1486.95 662.372,1481.61 667.5,1476.5C 667.5,1474.83 667.5,1473.17 667.5,1471.5C 670.833,1471.5 672.5,1469.83 672.5,1466.5C 673.552,1466.65 674.552,1466.48 675.5,1466C 678.235,1463.47 680.235,1460.63 681.5,1457.5C 683.5,1456.17 685.167,1454.5 686.5,1452.5C 686.5,1451.17 687.167,1450.5 688.5,1450.5C 690.053,1448.62 692.053,1447.62 694.5,1447.5C 694.433,1446.04 694.766,1444.71 695.5,1443.5C 698.167,1441.5 700.5,1439.17 702.5,1436.5C 705.167,1434.5 707.5,1432.17 709.5,1429.5C 709.229,1427.62 709.896,1426.29 711.5,1425.5C 720.839,1416.83 729.839,1407.83 738.5,1398.5C 741.155,1398.02 743.155,1396.69 744.5,1394.5C 744.5,1393.17 745.167,1392.5 746.5,1392.5C 749.167,1390.5 751.5,1388.17 753.5,1385.5C 756.167,1383.5 758.5,1381.17 760.5,1378.5C 763.167,1376.5 765.5,1374.17 767.5,1371.5C 770.167,1369.5 772.5,1367.17 774.5,1364.5C 777.167,1362.5 779.5,1360.17 781.5,1357.5C 784.167,1355.5 786.5,1353.17 788.5,1350.5C 791.167,1348.5 793.5,1346.17 795.5,1343.5C 798.167,1341.5 800.5,1339.17 802.5,1336.5C 805.167,1334.5 807.5,1332.17 809.5,1329.5C 809.5,1328.17 810.167,1327.5 811.5,1327.5C 814.167,1325.5 816.5,1323.17 818.5,1320.5C 827.373,1310.12 836.873,1300.12 847,1290.5C 847.513,1289.47 848.013,1288.47 848.5,1287.5C 850.754,1286.88 852.421,1285.54 853.5,1283.5C 853.077,1281.22 853.744,1279.55 855.5,1278.5C 857.5,1277.17 859.167,1275.5 860.5,1273.5C 860.5,1272.17 861.167,1271.5 862.5,1271.5C 864.5,1270.17 866.167,1268.5 867.5,1266.5C 867.5,1265.17 868.167,1264.5 869.5,1264.5C 871.5,1263.17 873.167,1261.5 874.5,1259.5C 874.5,1258.83 874.5,1258.17 874.5,1257.5C 880.167,1252.5 885.5,1247.17 890.5,1241.5C 894.705,1235.95 899.372,1230.61 904.5,1225.5C 904.077,1223.22 904.744,1221.55 906.5,1220.5C 908.5,1219.17 910.167,1217.5 911.5,1215.5C 911.5,1214.17 912.167,1213.5 913.5,1213.5C 918.338,1207.15 923.838,1201.15 930,1195.5C 931.068,1192.56 932.568,1189.9 934.5,1187.5C 936.754,1186.88 938.421,1185.54 939.5,1183.5C 940.434,1182.43 940.768,1181.1 940.5,1179.5C 941.552,1179.65 942.552,1179.48 943.5,1179C 946,1175.83 948.833,1173 952,1170.5C 953.617,1167.38 955.451,1164.38 957.5,1161.5C 960.118,1157.18 963.284,1153.18 967,1149.5C 967.236,1147.19 968.069,1145.19 969.5,1143.5C 969.5,1142.17 970.167,1141.5 971.5,1141.5C 975.036,1136.62 979.036,1131.95 983.5,1127.5C 983.392,1125.49 984.058,1123.82 985.5,1122.5C 987.754,1121.88 989.421,1120.54 990.5,1118.5C 992.928,1116.08 994.928,1113.42 996.5,1110.5C 997.653,1106.67 999.986,1103.67 1003.5,1101.5C 1006.97,1100.52 1008.8,1098.19 1009,1094.5C 1010.33,1092.34 1011.83,1090.34 1013.5,1088.5C 1014.43,1087.43 1014.77,1086.1 1014.5,1084.5C 1018.65,1084.17 1020.31,1081.83 1019.5,1077.5C 1025.03,1073.37 1028.86,1068.04 1031,1061.5C 1031.71,1060.62 1032.54,1059.95 1033.5,1059.5C 1037.44,1058.38 1039.27,1055.71 1039,1051.5C 1040.04,1050.63 1040.88,1049.63 1041.5,1048.5C 1043.15,1044.69 1045.98,1042.02 1050,1040.5C 1050.38,1037.94 1051.22,1035.61 1052.5,1033.5C 1053.98,1029.5 1056.48,1026.17 1060,1023.5C 1060.55,1020.39 1062.22,1018.05 1065,1016.5C 1065.08,1013.25 1066.58,1010.92 1069.5,1009.5C 1072.5,1004.76 1075.5,1000.09 1078.5,995.5C 1079.17,994.167 1079.83,992.833 1080.5,991.5C 1081.82,991.67 1082.99,991.337 1084,990.5C 1086,986.354 1088.16,982.354 1090.5,978.5C 1093.89,976.891 1095.23,974.224 1094.5,970.5C 1095.82,970.67 1096.99,970.337 1098,969.5C 1098.5,967.527 1098.66,965.527 1098.5,963.5C 1102.19,963.369 1104.19,961.369 1104.5,957.5C 1107.42,956.081 1108.92,953.748 1109,950.5C 1111.8,948.609 1112.97,945.942 1112.5,942.5C 1114.39,942.703 1115.89,942.037 1117,940.5C 1120.9,935.256 1124.06,929.59 1126.5,923.5C 1126.83,923.5 1127.17,923.5 1127.5,923.5C 1128.26,923.077 1129.1,922.743 1130,922.5C 1131.41,923.414 1132.91,924.08 1134.5,924.5 Z"/></g>
<g><path style="opacity:1" fill="#b3b3b3" d="M 1126.5,923.5 C 1124.06,929.59 1120.9,935.256 1117,940.5C 1115.89,942.037 1114.39,942.703 1112.5,942.5C 1112.97,945.942 1111.8,948.609 1109,950.5C 1108.92,953.748 1107.42,956.081 1104.5,957.5C 1104.19,961.369 1102.19,963.369 1098.5,963.5C 1098.86,961.81 1099.86,960.81 1101.5,960.5C 1102.42,957.679 1104.08,955.346 1106.5,953.5C 1106.5,951.833 1106.5,950.167 1106.5,948.5C 1108.39,948.703 1109.89,948.037 1111,946.5C 1112.58,942.41 1114.41,938.41 1116.5,934.5C 1119.29,933.048 1120.96,930.715 1121.5,927.5C 1122.92,925.739 1124.58,924.406 1126.5,923.5 Z"/></g>
<g><path style="opacity:1" fill="#585858" d="M 1141.5,935.5 C 1142.68,938.198 1144.51,940.531 1147,942.5C 1147.66,944.628 1148.49,946.628 1149.5,948.5C 1148.52,947.859 1147.52,947.193 1146.5,946.5C 1146.01,943.53 1144.51,941.196 1142,939.5C 1141.51,938.207 1141.34,936.873 1141.5,935.5 Z"/></g>
<g><path style="opacity:1" fill="#7c7c7c" d="M 1149.5,948.5 C 1151.91,951.304 1153.58,954.638 1154.5,958.5C 1152.09,955.696 1150.42,952.362 1149.5,948.5 Z"/></g>
<g><path style="opacity:1" fill="#6a6a6a" d="M 1106.5,953.5 C 1104.08,955.346 1102.42,957.679 1101.5,960.5C 1101.01,956.54 1102.67,954.207 1106.5,953.5 Z"/></g>
<g><path style="opacity:1" fill="#b3b3b3" d="M 1154.5,958.5 C 1155.48,959.141 1156.48,959.807 1157.5,960.5C 1159.52,963.524 1160.52,966.857 1160.5,970.5C 1164.31,970.651 1165.98,972.651 1165.5,976.5C 1164.18,973.688 1162.02,971.688 1159,970.5C 1157.42,966.459 1155.92,962.459 1154.5,958.5 Z"/></g>
<g><path style="opacity:1" fill="#d0d0d0" d="M 1098.5,963.5 C 1098.66,965.527 1098.5,967.527 1098,969.5C 1096.99,970.337 1095.82,970.67 1094.5,970.5C 1095.23,974.224 1093.89,976.891 1090.5,978.5C 1088.16,982.354 1086,986.354 1084,990.5C 1082.99,991.337 1081.82,991.67 1080.5,991.5C 1081.17,990.5 1081.83,989.5 1082.5,988.5C 1083.42,985.679 1085.08,983.346 1087.5,981.5C 1088.42,978.679 1090.08,976.346 1092.5,974.5C 1092.5,972.833 1092.5,971.167 1092.5,969.5C 1096.2,969.132 1098.2,967.132 1098.5,963.5 Z"/></g>
<g><path style="opacity:1" fill="#696969" d="M 1092.5,974.5 C 1090.08,976.346 1088.42,978.679 1087.5,981.5C 1087.01,977.54 1088.67,975.207 1092.5,974.5 Z"/></g>
<g><path style="opacity:1" fill="#4f4f4f" d="M 1087.5,981.5 C 1085.08,983.346 1083.42,985.679 1082.5,988.5C 1082.01,984.54 1083.67,982.207 1087.5,981.5 Z"/></g>
<g><path style="opacity:1" fill="#a2a2a2" d="M 1165.5,976.5 C 1168.46,980.161 1171.13,984.161 1173.5,988.5C 1172.5,988.5 1171.5,988.5 1170.5,988.5C 1170.66,987.127 1170.49,985.793 1170,984.5C 1167.33,982.475 1165.83,979.808 1165.5,976.5 Z"/></g>
<g><path style="opacity:1" fill="#656565" d="M 1082.5,988.5 C 1081.83,989.5 1081.17,990.5 1080.5,991.5C 1079.83,992.833 1079.17,994.167 1078.5,995.5C 1077.68,991.778 1079.01,989.445 1082.5,988.5 Z"/></g>
<g><path style="opacity:1" fill="#888888" d="M 1175.5,993.5 C 1178.38,994.915 1180.05,997.249 1180.5,1000.5C 1178.6,998.381 1176.93,996.047 1175.5,993.5 Z"/></g>
<g><path style="opacity:1" fill="#858585" d="M 1180.5,1000.5 C 1183.38,1001.92 1185.05,1004.25 1185.5,1007.5C 1184.5,1007.59 1183.67,1007.25 1183,1006.5C 1182.34,1004.37 1181.51,1002.37 1180.5,1000.5 Z"/></g>
<g><path style="opacity:1" fill="#696969" d="M 1078.5,995.5 C 1075.5,1000.09 1072.5,1004.76 1069.5,1009.5C 1066.58,1010.92 1065.08,1013.25 1065,1016.5C 1062.22,1018.05 1060.55,1020.39 1060,1023.5C 1056.48,1026.17 1053.98,1029.5 1052.5,1033.5C 1051.83,1033.83 1051.17,1034.17 1050.5,1034.5C 1050.86,1032.41 1051.52,1030.41 1052.5,1028.5C 1057.28,1024.87 1061.11,1020.54 1064,1015.5C 1064.33,1014.17 1064.67,1012.83 1065,1011.5C 1067.19,1007.8 1069.85,1004.47 1073,1001.5C 1073.35,998.086 1075.19,996.086 1078.5,995.5 Z"/></g>
<g><path style="opacity:1" fill="#676767" d="M 1188.5,1013.5 C 1189.5,1013.41 1190.33,1013.75 1191,1014.5C 1191.66,1016.63 1192.49,1018.63 1193.5,1020.5C 1190.62,1019.08 1188.95,1016.75 1188.5,1013.5 Z"/></g>
<g><path style="opacity:1" fill="#4e4e4e" d="M 1193.5,1020.5 C 1194.5,1020.41 1195.33,1020.75 1196,1021.5C 1196.66,1023.63 1197.49,1025.63 1198.5,1027.5C 1195.62,1026.08 1193.95,1023.75 1193.5,1020.5 Z"/></g>
<g><path style="opacity:1" fill="#606060" d="M 1198.5,1027.5 C 1199.99,1030.36 1201.99,1033.02 1204.5,1035.5C 1200.63,1034.29 1198.63,1031.62 1198.5,1027.5 Z"/></g>
<g><path style="opacity:1" fill="#b1b1b1" d="M 1052.5,1033.5 C 1051.22,1035.61 1050.38,1037.94 1050,1040.5C 1045.98,1042.02 1043.15,1044.69 1041.5,1048.5C 1041.34,1047.13 1041.51,1045.79 1042,1044.5C 1045.72,1041.65 1048.55,1038.31 1050.5,1034.5C 1051.17,1034.17 1051.83,1033.83 1052.5,1033.5 Z"/></g>
<g><path style="opacity:1" fill="#4e4e4e" d="M 1204.5,1035.5 C 1207.8,1039.65 1210.97,1043.98 1214,1048.5C 1214.33,1049.83 1214.67,1051.17 1215,1052.5C 1217.04,1054.37 1218.87,1056.37 1220.5,1058.5C 1216.38,1056.88 1213.88,1053.88 1213,1049.5C 1209.85,1046.53 1207.19,1043.2 1205,1039.5C 1204.51,1038.21 1204.34,1036.87 1204.5,1035.5 Z"/></g>
<g><path style="opacity:1" fill="#b8b8b8" d="M 1041.5,1048.5 C 1040.88,1049.63 1040.04,1050.63 1039,1051.5C 1039.27,1055.71 1037.44,1058.38 1033.5,1059.5C 1033.83,1058.83 1034.17,1058.17 1034.5,1057.5C 1036.13,1055.97 1036.96,1053.97 1037,1051.5C 1038.13,1049.86 1039.63,1048.86 1041.5,1048.5 Z"/></g>
<g><path style="opacity:1" fill="#7b7b7b" d="M 1034.5,1057.5 C 1034.17,1058.17 1033.83,1058.83 1033.5,1059.5C 1032.54,1059.95 1031.71,1060.62 1031,1061.5C 1028.86,1068.04 1025.03,1073.37 1019.5,1077.5C 1023.14,1073.58 1026.3,1069.24 1029,1064.5C 1029.2,1060.81 1031.03,1058.48 1034.5,1057.5 Z"/></g>
<g><path style="opacity:1" fill="#b7b7b7" d="M 1019.5,1077.5 C 1020.31,1081.83 1018.65,1084.17 1014.5,1084.5C 1014.77,1086.1 1014.43,1087.43 1013.5,1088.5C 1013.5,1086.83 1013.5,1085.17 1013.5,1083.5C 1017.2,1083.13 1019.2,1081.13 1019.5,1077.5 Z"/></g>
<g><path style="opacity:1" fill="#797979" d="M 1229.5,1072.5 C 1231.29,1074.68 1233.12,1077.02 1235,1079.5C 1235.49,1080.79 1235.66,1082.13 1235.5,1083.5C 1234.07,1081.06 1232.24,1078.72 1230,1076.5C 1229.51,1075.21 1229.34,1073.87 1229.5,1072.5 Z"/></g>
<g><path style="opacity:1" fill="#b0b0b0" d="M 1013.5,1088.5 C 1011.83,1090.34 1010.33,1092.34 1009,1094.5C 1008.8,1098.19 1006.97,1100.52 1003.5,1101.5C 1004.5,1100.17 1005.5,1098.83 1006.5,1097.5C 1006.58,1092.75 1008.91,1089.75 1013.5,1088.5 Z"/></g>
<g><path style="opacity:1" fill="#868686" d="M 1245.5,1095.5 C 1246.45,1096.92 1246.78,1098.59 1246.5,1100.5C 1251.25,1101.59 1253.92,1104.59 1254.5,1109.5C 1253.03,1107.36 1251.37,1105.19 1249.5,1103C 1246.21,1101.66 1244.87,1099.16 1245.5,1095.5 Z"/></g>
<g><path style="opacity:1" fill="#737373" d="M 1006.5,1097.5 C 1005.5,1098.83 1004.5,1100.17 1003.5,1101.5C 999.986,1103.67 997.653,1106.67 996.5,1110.5C 995.167,1111.5 993.833,1112.5 992.5,1113.5C 994.549,1110.62 996.383,1107.62 998,1104.5C 1000.44,1101.55 1003.27,1099.22 1006.5,1097.5 Z"/></g>
<g><path style="opacity:1" fill="#c2c2c2" d="M 996.5,1110.5 C 994.928,1113.42 992.928,1116.08 990.5,1118.5C 990.077,1116.22 990.744,1114.55 992.5,1113.5C 993.833,1112.5 995.167,1111.5 996.5,1110.5 Z"/></g>
<g><path style="opacity:1" fill="#9d9d9d" d="M 1257.5,1112.5 C 1259.98,1113.69 1260.98,1115.69 1260.5,1118.5C 1258.99,1116.82 1257.99,1114.82 1257.5,1112.5 Z"/></g>
<g><path style="opacity:1" fill="#7e7e7e" d="M 990.5,1118.5 C 989.421,1120.54 987.754,1121.88 985.5,1122.5C 986.539,1120.47 988.205,1119.14 990.5,1118.5 Z"/></g>
<g><path style="opacity:1" fill="#5f5f5f" d="M 1266.5,1123.5 C 1268.63,1127.16 1271.47,1130.49 1275,1133.5C 1276.32,1136.31 1277.82,1138.98 1279.5,1141.5C 1275.42,1136.86 1271.25,1132.2 1267,1127.5C 1266.51,1126.21 1266.34,1124.87 1266.5,1123.5 Z"/></g>
<g><path style="opacity:1" fill="#4e4e4e" d="M 983.5,1127.5 C 979.036,1131.95 975.036,1136.62 971.5,1141.5C 971.995,1139.52 972.495,1137.52 973,1135.5C 976.395,1132.59 979.895,1129.93 983.5,1127.5 Z"/></g>
<g><path style="opacity:1" fill="#757575" d="M 1279.5,1141.5 C 1283.09,1142.43 1284.76,1144.76 1284.5,1148.5C 1282.97,1146.22 1281.3,1143.89 1279.5,1141.5 Z"/></g>
<g><path style="opacity:1" fill="#737373" d="M 969.5,1143.5 C 968.069,1145.19 967.236,1147.19 967,1149.5C 963.284,1153.18 960.118,1157.18 957.5,1161.5C 955.852,1162.81 954.186,1164.14 952.5,1165.5C 952.025,1168.15 950.691,1170.15 948.5,1171.5C 948.995,1169.52 949.495,1167.52 950,1165.5C 957.827,1160.14 963.494,1153.14 967,1144.5C 967.671,1143.75 968.504,1143.41 969.5,1143.5 Z"/></g>
<g><path style="opacity:1" fill="#505050" d="M 1300.5,1169.5 C 1303.94,1170.69 1306.27,1173.03 1307.5,1176.5C 1304.83,1174.5 1302.5,1172.17 1300.5,1169.5 Z"/></g>
<g><path style="opacity:1" fill="#acacac" d="M 957.5,1161.5 C 955.451,1164.38 953.617,1167.38 952,1170.5C 948.833,1173 946,1175.83 943.5,1179C 942.552,1179.48 941.552,1179.65 940.5,1179.5C 940.768,1181.1 940.434,1182.43 939.5,1183.5C 940.585,1178.08 943.585,1174.08 948.5,1171.5C 950.691,1170.15 952.025,1168.15 952.5,1165.5C 954.186,1164.14 955.852,1162.81 957.5,1161.5 Z"/></g>
<g><path style="opacity:1" fill="#7c7c7c" d="M 1308.5,1176.5 C 1309.95,1180.31 1312.29,1183.65 1315.5,1186.5C 1310.8,1184.8 1308.46,1181.47 1308.5,1176.5 Z"/></g>
<g><path style="opacity:1" fill="#7e7e7e" d="M 939.5,1183.5 C 938.421,1185.54 936.754,1186.88 934.5,1187.5C 935.539,1185.47 937.205,1184.14 939.5,1183.5 Z"/></g>
<g><path style="opacity:1" fill="#7c7c7c" d="M 1315.5,1186.5 C 1319.18,1188.49 1321.51,1191.49 1322.5,1195.5C 1321.5,1195.59 1320.67,1195.25 1320,1194.5C 1318.68,1191.69 1317.18,1189.02 1315.5,1186.5 Z"/></g>
<g><path style="opacity:1" fill="#727272" d="M 934.5,1187.5 C 932.568,1189.9 931.068,1192.56 930,1195.5C 923.838,1201.15 918.338,1207.15 913.5,1213.5C 915.549,1210.62 917.383,1207.62 919,1204.5C 924.88,1199.14 930.046,1193.47 934.5,1187.5 Z"/></g>
<g><path style="opacity:1" fill="#5b5b5b" d="M 1333.5,1206.5 C 1337.13,1211.14 1340.8,1215.81 1344.5,1220.5C 1339.29,1216.96 1335.62,1212.3 1333.5,1206.5 Z"/></g>
<g><path style="opacity:1" fill="#5f5f5f" d="M 911.5,1215.5 C 910.167,1217.5 908.5,1219.17 906.5,1220.5C 907.167,1217.83 908.833,1216.17 911.5,1215.5 Z"/></g>
<g><path style="opacity:1" fill="#777777" d="M 1344.5,1220.5 C 1348.37,1221.71 1350.37,1224.38 1350.5,1228.5C 1349.5,1228.59 1348.67,1228.25 1348,1227.5C 1347.87,1224.6 1346.7,1222.26 1344.5,1220.5 Z"/></g>
<g><path style="opacity:1" fill="#898989" d="M 1350.5,1228.5 C 1357.69,1234.01 1363.35,1240.68 1367.5,1248.5C 1364.44,1247.84 1362.94,1245.84 1363,1242.5C 1358.23,1238.24 1354.07,1233.57 1350.5,1228.5 Z"/></g>
<g><path style="opacity:1" fill="#848484" d="M 904.5,1225.5 C 899.372,1230.61 894.705,1235.95 890.5,1241.5C 890.215,1239.71 890.548,1238.05 891.5,1236.5C 895.579,1232.41 899.912,1228.75 904.5,1225.5 Z"/></g>
<g><path style="opacity:1" fill="#717171" d="M 890.5,1241.5 C 885.5,1247.17 880.167,1252.5 874.5,1257.5C 878.833,1251.17 884.167,1245.83 890.5,1241.5 Z"/></g>
<g><path style="opacity:1" fill="#6b6b6b" d="M 1367.5,1248.5 C 1380.94,1259.27 1392.6,1271.6 1402.5,1285.5C 1397.73,1281.9 1393.9,1277.57 1391,1272.5C 1382.96,1264.63 1375.13,1256.63 1367.5,1248.5 Z"/></g>
<g><path style="opacity:1" fill="#5d5d5d" d="M 874.5,1259.5 C 873.167,1261.5 871.5,1263.17 869.5,1264.5C 870.167,1261.83 871.833,1260.17 874.5,1259.5 Z"/></g>
<g><path style="opacity:1" fill="#5d5d5d" d="M 867.5,1266.5 C 866.167,1268.5 864.5,1270.17 862.5,1271.5C 863.167,1268.83 864.833,1267.17 867.5,1266.5 Z"/></g>
<g><path style="opacity:1" fill="#5d5d5d" d="M 860.5,1273.5 C 859.167,1275.5 857.5,1277.17 855.5,1278.5C 856.167,1275.83 857.833,1274.17 860.5,1273.5 Z"/></g>
<g><path style="opacity:1" fill="#7d7d7d" d="M 853.5,1283.5 C 852.421,1285.54 850.754,1286.88 848.5,1287.5C 849.539,1285.47 851.205,1284.14 853.5,1283.5 Z"/></g>
<g><path style="opacity:1" fill="#585858" d="M 1402.5,1285.5 C 1405.83,1286.83 1408.17,1289.17 1409.5,1292.5C 1406.83,1290.5 1404.5,1288.17 1402.5,1285.5 Z"/></g>
<g><path style="opacity:1" fill="#565656" d="M 1409.5,1292.5 C 1412.83,1293.83 1415.17,1296.17 1416.5,1299.5C 1413.83,1297.5 1411.5,1295.17 1409.5,1292.5 Z"/></g>
<g><path style="opacity:1" fill="#808080" d="M 848.5,1287.5 C 848.013,1288.47 847.513,1289.47 847,1290.5C 836.873,1300.12 827.373,1310.12 818.5,1320.5C 819.645,1318.29 820.645,1315.95 821.5,1313.5C 830.541,1304.79 839.541,1296.12 848.5,1287.5 Z"/></g>
<g><path style="opacity:1" fill="#565656" d="M 1416.5,1299.5 C 1419.83,1300.83 1422.17,1303.17 1423.5,1306.5C 1420.83,1304.5 1418.5,1302.17 1416.5,1299.5 Z"/></g>
<g><path style="opacity:1" fill="#565656" d="M 1423.5,1306.5 C 1426.83,1307.83 1429.17,1310.17 1430.5,1313.5C 1427.83,1311.5 1425.5,1309.17 1423.5,1306.5 Z"/></g>
<g><path style="opacity:1" fill="#565656" d="M 1430.5,1313.5 C 1433.83,1314.83 1436.17,1317.17 1437.5,1320.5C 1434.83,1318.5 1432.5,1316.17 1430.5,1313.5 Z"/></g>
<g><path style="opacity:1" fill="#4c4c4c" d="M 1437.5,1320.5 C 1440.94,1321.69 1443.27,1324.03 1444.5,1327.5C 1441.83,1325.5 1439.5,1323.17 1437.5,1320.5 Z"/></g>
<g><path style="opacity:1" fill="#707070" d="M 818.5,1320.5 C 816.5,1323.17 814.167,1325.5 811.5,1327.5C 812.833,1324.17 815.167,1321.83 818.5,1320.5 Z"/></g>
<g><path style="opacity:1" fill="#4c4c4c" d="M 1444.5,1327.5 C 1447.94,1328.69 1450.27,1331.03 1451.5,1334.5C 1448.83,1332.5 1446.5,1330.17 1444.5,1327.5 Z"/></g>
<g><path style="opacity:1" fill="#707070" d="M 809.5,1329.5 C 807.5,1332.17 805.167,1334.5 802.5,1336.5C 803.833,1333.17 806.167,1330.83 809.5,1329.5 Z"/></g>
<g><path style="opacity:1" fill="#4c4c4c" d="M 1451.5,1334.5 C 1454.94,1335.69 1457.27,1338.03 1458.5,1341.5C 1455.83,1339.5 1453.5,1337.17 1451.5,1334.5 Z"/></g>
<g><path style="opacity:1" fill="#707070" d="M 802.5,1336.5 C 800.5,1339.17 798.167,1341.5 795.5,1343.5C 796.833,1340.17 799.167,1337.83 802.5,1336.5 Z"/></g>
<g><path style="opacity:1" fill="#929292" d="M 1458.5,1341.5 C 1461.5,1343.83 1464.17,1346.5 1466.5,1349.5C 1462.83,1347.83 1460.17,1345.17 1458.5,1341.5 Z"/></g>
<g><path style="opacity:1" fill="#707070" d="M 795.5,1343.5 C 793.5,1346.17 791.167,1348.5 788.5,1350.5C 789.833,1347.17 792.167,1344.83 795.5,1343.5 Z"/></g>
<g><path style="opacity:1" fill="#9b9b9b" d="M 1466.5,1349.5 C 1469.17,1351.5 1471.5,1353.83 1473.5,1356.5C 1470.03,1355.27 1467.69,1352.94 1466.5,1349.5 Z"/></g>
<g><path style="opacity:1" fill="#707070" d="M 788.5,1350.5 C 786.5,1353.17 784.167,1355.5 781.5,1357.5C 782.833,1354.17 785.167,1351.83 788.5,1350.5 Z"/></g>
<g><path style="opacity:1" fill="#9b9b9b" d="M 1473.5,1356.5 C 1476.17,1358.5 1478.5,1360.83 1480.5,1363.5C 1477.03,1362.27 1474.69,1359.94 1473.5,1356.5 Z"/></g>
<g><path style="opacity:1" fill="#707070" d="M 781.5,1357.5 C 779.5,1360.17 777.167,1362.5 774.5,1364.5C 775.833,1361.17 778.167,1358.83 781.5,1357.5 Z"/></g>
<g><path style="opacity:1" fill="#707070" d="M 774.5,1364.5 C 772.5,1367.17 770.167,1369.5 767.5,1371.5C 768.833,1368.17 771.167,1365.83 774.5,1364.5 Z"/></g>
<g><path style="opacity:1" fill="#6e6e6e" d="M 1488.5,1371.5 C 1492.24,1371.24 1494.57,1372.91 1495.5,1376.5C 1493.4,1374.38 1491.07,1372.72 1488.5,1371.5 Z"/></g>
<g><path style="opacity:1" fill="#707070" d="M 767.5,1371.5 C 765.5,1374.17 763.167,1376.5 760.5,1378.5C 761.833,1375.17 764.167,1372.83 767.5,1371.5 Z"/></g>
<g><path style="opacity:1" fill="#a6a6a6" d="M 1495.5,1376.5 C 1498.5,1378.83 1501.17,1381.5 1503.5,1384.5C 1499.83,1382.83 1497.17,1380.17 1495.5,1376.5 Z"/></g>
<g><path style="opacity:1" fill="#6f6f6f" d="M 760.5,1378.5 C 758.5,1381.17 756.167,1383.5 753.5,1385.5C 754.833,1382.17 757.167,1379.83 760.5,1378.5 Z"/></g>
<g><path style="opacity:1" fill="#6f6f6f" d="M 753.5,1385.5 C 751.5,1388.17 749.167,1390.5 746.5,1392.5C 747.833,1389.17 750.167,1386.83 753.5,1385.5 Z"/></g>
<g><path style="opacity:1" fill="#808080" d="M 1510.5,1391.5 C 1512.26,1393.7 1514.6,1394.87 1517.5,1395C 1532.33,1409.83 1547.17,1424.67 1562,1439.5C 1562.49,1440.79 1562.66,1442.13 1562.5,1443.5C 1561.73,1442.74 1561.23,1441.74 1561,1440.5C 1544.36,1423.35 1527.52,1407.01 1510.5,1391.5 Z"/></g>
<g><path style="opacity:1" fill="#808080" d="M 744.5,1394.5 C 743.155,1396.69 741.155,1398.02 738.5,1398.5C 729.839,1407.83 720.839,1416.83 711.5,1425.5C 719.784,1415.88 728.45,1406.55 737.5,1397.5C 739.955,1396.65 742.288,1395.65 744.5,1394.5 Z"/></g>
<g><path style="opacity:1" fill="#6b6b6b" d="M 709.5,1429.5 C 707.5,1432.17 705.167,1434.5 702.5,1436.5C 703.833,1433.17 706.167,1430.83 709.5,1429.5 Z"/></g>
<g><path style="opacity:1" fill="#676767" d="M 702.5,1436.5 C 700.5,1439.17 698.167,1441.5 695.5,1443.5C 696.833,1440.17 699.167,1437.83 702.5,1436.5 Z"/></g>
<g><path style="opacity:1" fill="#616161" d="M 1562.5,1443.5 C 1565.83,1444.83 1568.17,1447.17 1569.5,1450.5C 1566.83,1448.5 1564.5,1446.17 1562.5,1443.5 Z"/></g>
<g><path style="opacity:1" fill="#7c7c7c" d="M 695.5,1443.5 C 694.766,1444.71 694.433,1446.04 694.5,1447.5C 692.053,1447.62 690.053,1448.62 688.5,1450.5C 689.833,1447.17 692.167,1444.83 695.5,1443.5 Z"/></g>
<g><path style="opacity:1" fill="#606060" d="M 1569.5,1450.5 C 1572.83,1451.83 1575.17,1454.17 1576.5,1457.5C 1573.83,1455.5 1571.5,1453.17 1569.5,1450.5 Z"/></g>
<g><path style="opacity:1" fill="#666666" d="M 686.5,1452.5 C 685.167,1454.5 683.5,1456.17 681.5,1457.5C 682.167,1454.83 683.833,1453.17 686.5,1452.5 Z"/></g>
<g><path style="opacity:1" fill="#808080" d="M 1576.5,1457.5 C 1580.09,1458.43 1581.76,1460.76 1581.5,1464.5C 1579.97,1462.22 1578.3,1459.89 1576.5,1457.5 Z"/></g>
<g><path style="opacity:1" fill="#727272" d="M 1588.5,1471.5 C 1591.31,1475.83 1594.81,1479.83 1599,1483.5C 1599.49,1484.79 1599.66,1486.13 1599.5,1487.5C 1596.97,1483.46 1593.81,1479.79 1590,1476.5C 1589.65,1474.75 1589.15,1473.09 1588.5,1471.5 Z"/></g>
<g><path style="opacity:1" fill="#757575" d="M 667.5,1476.5 C 662.372,1481.61 657.705,1486.95 653.5,1492.5C 656.329,1485.66 660.996,1480.33 667.5,1476.5 Z"/></g>
<g><path style="opacity:1" fill="#626262" d="M 1599.5,1487.5 C 1602.17,1488.17 1603.83,1489.83 1604.5,1492.5C 1602.5,1491.17 1600.83,1489.5 1599.5,1487.5 Z"/></g>
<g><path style="opacity:1" fill="#626262" d="M 651.5,1494.5 C 649.384,1496.6 647.717,1498.93 646.5,1501.5C 646.241,1497.76 647.907,1495.43 651.5,1494.5 Z"/></g>
<g><path style="opacity:1" fill="#777777" d="M 1604.5,1492.5 C 1608.42,1494.2 1610.75,1497.2 1611.5,1501.5C 1610.75,1497.2 1608.42,1494.2 1604.5,1492.5 Z"/></g>
<g><path style="opacity:1" fill="#767676" d="M 1611.5,1501.5 C 1613.63,1505.16 1616.47,1508.49 1620,1511.5C 1620.49,1512.79 1620.66,1514.13 1620.5,1515.5C 1618.65,1512.13 1616.15,1509.13 1613,1506.5C 1612.65,1504.75 1612.15,1503.09 1611.5,1501.5 Z"/></g>
<g><path style="opacity:1" fill="#a5a5a5" d="M 644.5,1503.5 C 642.621,1507.3 640.287,1510.63 637.5,1513.5C 637.897,1508.78 640.23,1505.44 644.5,1503.5 Z"/></g>
<g><path style="opacity:1" fill="#4e4e4e" d="M 637.5,1513.5 C 634.913,1516.36 632.58,1519.36 630.5,1522.5C 630.252,1517.42 632.585,1514.42 637.5,1513.5 Z"/></g>
<g><path style="opacity:1" fill="#acacac" d="M 1620.5,1515.5 C 1624.44,1516.62 1626.27,1519.29 1626,1523.5C 1627.11,1525.04 1628.61,1525.7 1630.5,1525.5C 1630.37,1527.29 1630.7,1528.96 1631.5,1530.5C 1628.79,1529.8 1626.79,1528.13 1625.5,1525.5C 1624.42,1521.79 1622.76,1518.46 1620.5,1515.5 Z"/></g>
<g><path style="opacity:1" fill="#b5b5b5" d="M 627.5,1526.5 C 627.067,1530.94 624.733,1533.94 620.5,1535.5C 620.833,1534.83 621.167,1534.17 621.5,1533.5C 624.186,1531.81 626.186,1529.48 627.5,1526.5 Z"/></g>
<g><path style="opacity:1" fill="#666666" d="M 1631.5,1530.5 C 1634.62,1532.45 1636.79,1535.12 1638,1538.5C 1641.72,1542.16 1644.22,1546.5 1645.5,1551.5C 1644.5,1551.59 1643.67,1551.25 1643,1550.5C 1642.46,1547.64 1641.46,1544.97 1640,1542.5C 1636.71,1538.76 1633.88,1534.76 1631.5,1530.5 Z"/></g>
<g><path style="opacity:1" fill="#777777" d="M 621.5,1533.5 C 621.167,1534.17 620.833,1534.83 620.5,1535.5C 617.55,1541.61 613.883,1547.27 609.5,1552.5C 609.343,1551.13 609.51,1549.79 610,1548.5C 613.148,1545.53 615.815,1542.2 618,1538.5C 618.333,1537.17 618.667,1535.83 619,1534.5C 619.671,1533.75 620.504,1533.41 621.5,1533.5 Z"/></g>
<g><path style="opacity:1" fill="#818181" d="M 1645.5,1551.5 C 1647.98,1552.69 1648.98,1554.69 1648.5,1557.5C 1646.99,1555.82 1645.99,1553.82 1645.5,1551.5 Z"/></g>
<g><path style="opacity:1" fill="#8a8a8a" d="M 1648.5,1557.5 C 1649.99,1560.36 1651.99,1563.02 1654.5,1565.5C 1650.63,1564.29 1648.63,1561.62 1648.5,1557.5 Z"/></g>
<g><path style="opacity:1" fill="#6b6b6b" d="M 607.5,1554.5 C 603.735,1560.26 600.402,1566.26 597.5,1572.5C 596.833,1572.83 596.167,1573.17 595.5,1573.5C 595.857,1571.41 596.523,1569.41 597.5,1567.5C 599.673,1564.93 601.84,1562.26 604,1559.5C 604.333,1558.17 604.667,1556.83 605,1555.5C 605.671,1554.75 606.504,1554.41 607.5,1554.5 Z"/></g>
<g><path style="opacity:1" fill="#7c7c7c" d="M 1654.5,1565.5 C 1656.38,1567.76 1657.38,1570.42 1657.5,1573.5C 1655.62,1571.24 1654.62,1568.58 1654.5,1565.5 Z"/></g>
<g><path style="opacity:1" fill="#6a6a6a" d="M 1657.5,1573.5 C 1661.09,1574.43 1662.76,1576.76 1662.5,1580.5C 1661.28,1577.93 1659.62,1575.6 1657.5,1573.5 Z"/></g>
<g><path style="opacity:1" fill="#9f9f9f" d="M 597.5,1572.5 C 596.217,1574.61 595.384,1576.94 595,1579.5C 591.078,1580.18 589.578,1582.52 590.5,1586.5C 589.5,1586.5 588.5,1586.5 587.5,1586.5C 587.762,1587.98 587.429,1589.31 586.5,1590.5C 584.028,1591.96 582.361,1593.96 581.5,1596.5C 581.12,1593.21 582.453,1590.88 585.5,1589.5C 586.944,1586.95 588.111,1584.28 589,1581.5C 591.842,1579.2 594.009,1576.53 595.5,1573.5C 596.167,1573.17 596.833,1572.83 597.5,1572.5 Z"/></g>
<g><path style="opacity:1" fill="#9b9b9b" d="M 1665.5,1585.5 C 1666.85,1588.5 1668.18,1591.5 1669.5,1594.5C 1666.47,1592.41 1665.14,1589.41 1665.5,1585.5 Z"/></g>
<g><path style="opacity:1" fill="#4a4a4a" d="M 581.5,1596.5 C 580.127,1600.04 578.46,1603.37 576.5,1606.5C 577.036,1603.45 577.869,1600.45 579,1597.5C 579.671,1596.75 580.504,1596.41 581.5,1596.5 Z"/></g>
<g><path style="opacity:1" fill="#959595" d="M 1669.5,1594.5 C 1671.01,1596.34 1672.51,1598.34 1674,1600.5C 1674.66,1603.28 1675.49,1605.95 1676.5,1608.5C 1673.43,1604.33 1671.09,1599.66 1669.5,1594.5 Z"/></g>
<g><path style="opacity:1" fill="#797979" d="M 1676.5,1608.5 C 1678.8,1611.51 1680.8,1614.84 1682.5,1618.5C 1681.39,1618.44 1680.39,1618.11 1679.5,1617.5C 1678.35,1614.59 1677.35,1611.59 1676.5,1608.5 Z"/></g>
<g><path style="opacity:1" fill="#a3a3a3" d="M 574.5,1610.5 C 573.502,1614.16 572.502,1617.83 571.5,1621.5C 570.5,1621.5 569.5,1621.5 568.5,1621.5C 568.737,1622.79 568.404,1623.79 567.5,1624.5C 567.5,1623.17 567.5,1621.83 567.5,1620.5C 568.5,1620.5 569.5,1620.5 570.5,1620.5C 570.343,1619.13 570.51,1617.79 571,1616.5C 571.739,1614.11 572.905,1612.11 574.5,1610.5 Z"/></g>
<g><path style="opacity:1" fill="#4a4a4a" d="M 1687.5,1629.5 C 1688.25,1632.05 1688.92,1634.72 1689.5,1637.5C 1687.63,1635.36 1686.96,1632.7 1687.5,1629.5 Z"/></g>
<g><path style="opacity:1" fill="#cfcfcf" d="M 1679.5,1617.5 C 1680.39,1618.11 1681.39,1618.44 1682.5,1618.5C 1682.04,1623.31 1683.7,1626.97 1687.5,1629.5C 1686.96,1632.7 1687.63,1635.36 1689.5,1637.5C 1689.37,1639.29 1689.7,1640.96 1690.5,1642.5C 1689.02,1640.94 1687.52,1639.27 1686,1637.5C 1685.95,1632.75 1684.29,1628.75 1681,1625.5C 1680.6,1622.79 1680.1,1620.13 1679.5,1617.5 Z"/></g>
<g><path style="opacity:1" fill="#535353" d="M 565.5,1626.5 C 564.051,1628.61 563.051,1630.94 562.5,1633.5C 561.833,1635.17 561.167,1636.83 560.5,1638.5C 560.268,1634.54 561.101,1630.88 563,1627.5C 563.671,1626.75 564.504,1626.41 565.5,1626.5 Z"/></g>
<g><path style="opacity:1" fill="#b8b8b8" d="M 562.5,1633.5 C 562.077,1639.8 559.744,1645.14 555.5,1649.5C 556.167,1647.5 556.833,1645.5 557.5,1643.5C 557.972,1641.47 558.972,1639.8 560.5,1638.5C 561.167,1636.83 561.833,1635.17 562.5,1633.5 Z"/></g>
<g><path style="opacity:1" fill="#737373" d="M 1689.5,1637.5 C 1691.42,1642.95 1693.76,1648.28 1696.5,1653.5C 1695.5,1653.59 1694.67,1653.25 1694,1652.5C 1692.31,1649.26 1691.14,1645.93 1690.5,1642.5C 1689.7,1640.96 1689.37,1639.29 1689.5,1637.5 Z"/></g>
<g><path style="opacity:1" fill="#626262" d="M 557.5,1643.5 C 556.833,1645.5 556.167,1647.5 555.5,1649.5C 554.9,1653.34 553.566,1657.01 551.5,1660.5C 550.817,1660.86 550.15,1661.2 549.5,1661.5C 551.712,1657.44 553.212,1653.11 554,1648.5C 554.737,1646.4 555.903,1644.74 557.5,1643.5 Z"/></g>
<g><path style="opacity:1" fill="#717171" d="M 1697.5,1659.5 C 1699.34,1661.28 1700.01,1663.61 1699.5,1666.5C 1699.17,1666.5 1698.83,1666.5 1698.5,1666.5C 1698.7,1664.05 1698.37,1661.72 1697.5,1659.5 Z"/></g>
<g><path style="opacity:1" fill="#535353" d="M 548.5,1664.5 C 547.935,1666.95 547.268,1669.29 546.5,1671.5C 545.99,1668.61 546.656,1666.28 548.5,1664.5 Z"/></g>
<g><path style="opacity:1" fill="#737373" d="M 546.5,1671.5 C 545.935,1673.95 545.268,1676.29 544.5,1678.5C 543.99,1675.61 544.656,1673.28 546.5,1671.5 Z"/></g>
<g><path style="opacity:1" fill="#939393" d="M 544.5,1678.5 C 543.935,1680.95 543.268,1683.29 542.5,1685.5C 541.99,1682.61 542.656,1680.28 544.5,1678.5 Z"/></g>
<g><path style="opacity:1" fill="#c9c9c9" d="M 1698.5,1666.5 C 1698.83,1666.5 1699.17,1666.5 1699.5,1666.5C 1701.89,1671.46 1703.39,1676.8 1704,1682.5C 1704.38,1683.06 1704.88,1683.39 1705.5,1683.5C 1705.5,1685.83 1705.5,1688.17 1705.5,1690.5C 1706.5,1690.5 1707.5,1690.5 1708.5,1690.5C 1708.19,1693.39 1708.53,1696.05 1709.5,1698.5C 1710.41,1701.73 1710.75,1705.06 1710.5,1708.5C 1706.41,1694.62 1702.41,1680.62 1698.5,1666.5 Z"/></g>
<g><path style="opacity:1" fill="#515151" d="M 541.5,1685.5 C 540.935,1687.95 540.268,1690.29 539.5,1692.5C 538.99,1689.61 539.656,1687.28 541.5,1685.5 Z"/></g>
<g><path style="opacity:1" fill="#474747" d="M 1705.5,1683.5 C 1706.46,1685.26 1706.79,1687.26 1706.5,1689.5C 1707.5,1689.5 1708.5,1689.5 1709.5,1689.5C 1709.5,1692.5 1709.5,1695.5 1709.5,1698.5C 1708.53,1696.05 1708.19,1693.39 1708.5,1690.5C 1707.5,1690.5 1706.5,1690.5 1705.5,1690.5C 1705.5,1688.17 1705.5,1685.83 1705.5,1683.5 Z"/></g>
<g><path style="opacity:1" fill="#727272" d="M 539.5,1692.5 C 538.935,1694.95 538.268,1697.29 537.5,1699.5C 536.99,1696.61 537.656,1694.28 539.5,1692.5 Z"/></g>
<g><path style="opacity:1" fill="#5a5a5a" d="M 535.5,1699.5 C 534.139,1708.02 532.473,1716.36 530.5,1724.5C 530.996,1715.84 532.663,1707.51 535.5,1699.5 Z"/></g>
<g><path style="opacity:1" fill="#909090" d="M 1711.5,1708.5 C 1712.97,1712.66 1714.3,1716.99 1715.5,1721.5C 1714.96,1726.47 1715.63,1731.13 1717.5,1735.5C 1717.5,1741.17 1717.5,1746.83 1717.5,1752.5C 1715.76,1737.9 1713.76,1723.24 1711.5,1708.5 Z"/></g>
<g><path style="opacity:1" fill="#5a5a5a" d="M 530.5,1724.5 C 528.297,1731.41 526.63,1738.41 525.5,1745.5C 525.335,1741.82 525.501,1738.15 526,1734.5C 527.672,1731.13 529.172,1727.8 530.5,1724.5 Z"/></g>
<g><path style="opacity:1" fill="#545454" d="M 1717.5,1735.5 C 1718.2,1741.4 1718.87,1747.4 1719.5,1753.5C 1719.17,1753.5 1718.83,1753.5 1718.5,1753.5C 1717.83,1753.5 1717.5,1753.17 1717.5,1752.5C 1717.5,1746.83 1717.5,1741.17 1717.5,1735.5 Z"/></g>
<g><path style="opacity:1" fill="#656565" d="M 525.5,1745.5 C 524.883,1750.27 524.216,1754.94 523.5,1759.5C 522.897,1754.38 523.564,1749.71 525.5,1745.5 Z"/></g>
<g><path style="opacity:1" fill="#1a1a1a" d="M 1715.5,1721.5 C 1717.06,1725.56 1718.23,1729.89 1719,1734.5C 1719.04,1740.67 1719.71,1746.67 1721,1752.5C 1721.83,1777.34 1721.66,1802 1720.5,1826.5C 1720.83,1801.99 1720.5,1777.66 1719.5,1753.5C 1718.87,1747.4 1718.2,1741.4 1717.5,1735.5C 1715.63,1731.13 1714.96,1726.47 1715.5,1721.5 Z"/></g>
<g><path style="opacity:1" fill="#ababab" d="M 1718.5,1753.5 C 1718.83,1753.5 1719.17,1753.5 1719.5,1753.5C 1720.5,1777.66 1720.83,1801.99 1720.5,1826.5C 1719.83,1827.17 1719.17,1827.83 1718.5,1828.5C 1717.83,1833.5 1717.17,1838.5 1716.5,1843.5C 1716.05,1837.65 1716.55,1831.98 1718,1826.5C 1718.5,1802.17 1718.67,1777.84 1718.5,1753.5 Z"/></g>
<g><path style="opacity:1" fill="#888888" d="M 523.5,1759.5 C 522.87,1765.93 522.203,1772.27 521.5,1778.5C 521.5,1778.17 521.5,1777.83 521.5,1777.5C 520.88,1771.07 521.547,1765.07 523.5,1759.5 Z"/></g>
<g><path style="opacity:1" fill="#434343" d="M 521.5,1777.5 C 521.5,1777.83 521.5,1778.17 521.5,1778.5C 520.883,1778.61 520.383,1778.94 520,1779.5C 519.171,1797.67 519.338,1815.67 520.5,1833.5C 520.833,1834.17 521.167,1834.83 521.5,1835.5C 520.504,1835.59 519.671,1835.25 519,1834.5C 518.333,1815.83 518.333,1797.17 519,1778.5C 519.671,1777.75 520.504,1777.41 521.5,1777.5 Z"/></g>
<g><path style="opacity:1" fill="#565656" d="M 1718.5,1828.5 C 1718.83,1833.87 1718.49,1839.21 1717.5,1844.5C 1717.11,1848.59 1716.11,1852.26 1714.5,1855.5C 1713.91,1851.03 1714.58,1847.03 1716.5,1843.5C 1717.17,1838.5 1717.83,1833.5 1718.5,1828.5 Z"/></g>
<g><path style="opacity:1" fill="#8e8e8e" d="M 520.5,1833.5 C 522.467,1841.1 523.134,1849.1 522.5,1857.5C 521.508,1850.35 521.175,1843.02 521.5,1835.5C 521.167,1834.83 520.833,1834.17 520.5,1833.5 Z"/></g>
<g><path style="opacity:1" fill="#717171" d="M 1714.5,1855.5 C 1713.9,1859.27 1713.23,1862.94 1712.5,1866.5C 1711.92,1862.35 1712.59,1858.68 1714.5,1855.5 Z"/></g>
<g><path style="opacity:1" fill="#848484" d="M 522.5,1857.5 C 524.414,1860.68 525.08,1864.35 524.5,1868.5C 525.5,1868.5 526.5,1868.5 527.5,1868.5C 528.423,1875.13 529.423,1881.8 530.5,1888.5C 529.172,1885.2 527.672,1881.87 526,1878.5C 524.326,1871.62 523.16,1864.62 522.5,1857.5 Z"/></g>
<g><path style="opacity:1" fill="#a0a0a0" d="M 530.5,1888.5 C 532.113,1890.46 533.113,1892.79 533.5,1895.5C 532.504,1895.59 531.671,1895.25 531,1894.5C 530.505,1892.53 530.338,1890.53 530.5,1888.5 Z"/></g>
<g><path style="opacity:1" fill="#8f8f8f" d="M 1712.5,1866.5 C 1709.38,1876.61 1706.38,1886.94 1703.5,1897.5C 1701.99,1901.2 1699.82,1904.53 1697,1907.5C 1696.57,1913.27 1695.07,1918.6 1692.5,1923.5C 1691.5,1923.5 1690.5,1923.5 1689.5,1923.5C 1688.59,1928.19 1686.92,1932.52 1684.5,1936.5C 1685.83,1931.83 1687.17,1927.17 1688.5,1922.5C 1689.5,1922.5 1690.5,1922.5 1691.5,1922.5C 1694.03,1915.65 1696.03,1908.65 1697.5,1901.5C 1698.5,1901.5 1699.5,1901.5 1700.5,1901.5C 1704.46,1890.56 1707.63,1879.22 1710,1867.5C 1710.67,1866.75 1711.5,1866.41 1712.5,1866.5 Z"/></g>
<g><path style="opacity:1" fill="#b3b3b3" d="M 533.5,1895.5 C 536.825,1903.57 539.825,1911.91 542.5,1920.5C 541.024,1918.94 539.524,1917.27 538,1915.5C 536,1908.92 534.5,1902.26 533.5,1895.5 Z"/></g>
<g><path style="opacity:1" fill="#b0b0b0" d="M 542.5,1920.5 C 543.283,1922.08 544.45,1923.41 546,1924.5C 546.272,1927.25 546.772,1929.92 547.5,1932.5C 546.504,1932.59 545.671,1932.25 545,1931.5C 544.052,1927.83 543.219,1924.17 542.5,1920.5 Z"/></g>
<g><path style="opacity:1" fill="#cacaca" d="M 547.5,1932.5 C 550.944,1936.98 553.61,1941.98 555.5,1947.5C 553.025,1946.31 552.025,1944.31 552.5,1941.5C 551.5,1941.5 550.5,1941.5 549.5,1941.5C 548.594,1938.56 547.928,1935.56 547.5,1932.5 Z"/></g>
<g><path style="opacity:1" fill="#484848" d="M 1676.5,1949.5 C 1676.98,1952.31 1675.98,1954.31 1673.5,1955.5C 1673.56,1954.39 1673.89,1953.39 1674.5,1952.5C 1675.17,1951.5 1675.83,1950.5 1676.5,1949.5 Z"/></g>
<g><path style="opacity:1" fill="#7b7b7b" d="M 558.5,1953.5 C 559.717,1956.07 561.384,1958.4 563.5,1960.5C 559.907,1959.57 558.241,1957.24 558.5,1953.5 Z"/></g>
<g><path style="opacity:1" fill="#9a9a9a" d="M 1674.5,1952.5 C 1673.89,1953.39 1673.56,1954.39 1673.5,1955.5C 1672.18,1957.75 1670.52,1959.75 1668.5,1961.5C 1668.79,1957.22 1670.79,1954.22 1674.5,1952.5 Z"/></g>
<g><path style="opacity:1" fill="#8f8f8f" d="M 1668.5,1961.5 C 1666.04,1964.52 1663.7,1967.52 1661.5,1970.5C 1662.58,1968.66 1663.42,1966.66 1664,1964.5C 1665.13,1962.86 1666.63,1961.86 1668.5,1961.5 Z"/></g>
<g><path style="opacity:1" fill="#666666" d="M 567.5,1967.5 C 568.717,1970.07 570.384,1972.4 572.5,1974.5C 568.907,1973.57 567.241,1971.24 567.5,1967.5 Z"/></g>
<g><path style="opacity:1" fill="#585858" d="M 572.5,1974.5 C 574.975,1975.69 575.975,1977.69 575.5,1980.5C 573.992,1978.82 572.992,1976.82 572.5,1974.5 Z"/></g>
<g><path style="opacity:1" fill="#8a8a8a" d="M 583.5,1987.5 C 585.27,1989.45 586.603,1991.79 587.5,1994.5C 585.105,1992.88 583.772,1990.54 583.5,1987.5 Z"/></g>
<g><path style="opacity:1" fill="#bfbfbf" d="M 587.5,1994.5 C 590.347,1995.83 593.013,1997.5 595.5,1999.5C 596.705,2000.58 597.372,2001.91 597.5,2003.5C 593.748,2000.96 590.415,1997.96 587.5,1994.5 Z"/></g>
<g><path style="opacity:1" fill="#858585" d="M 1661.5,1970.5 C 1657.7,1977.98 1652.36,1984.32 1645.5,1989.5C 1636.67,1999 1627.33,2008.33 1617.5,2017.5C 1624.27,2009.56 1631.27,2001.72 1638.5,1994C 1639.79,1993.51 1641.13,1993.34 1642.5,1993.5C 1642.38,1991.52 1643.05,1989.85 1644.5,1988.5C 1648.18,1985.32 1651.68,1981.99 1655,1978.5C 1655.31,1974.28 1657.47,1971.61 1661.5,1970.5 Z"/></g>
<g><path style="opacity:1" fill="#777777" d="M 1617.5,2017.5 C 1615.21,2018.76 1612.88,2020.1 1610.5,2021.5C 1611.81,2018.55 1614.14,2017.22 1617.5,2017.5 Z"/></g>
<g><path style="opacity:1" fill="#a2a2a2" d="M 1610.5,2021.5 C 1609.17,2023.5 1607.5,2025.17 1605.5,2026.5C 1606.17,2023.83 1607.83,2022.17 1610.5,2021.5 Z"/></g>
<g><path style="opacity:1" fill="#959595" d="M 1605.5,2026.5 C 1602.93,2027.72 1600.6,2029.38 1598.5,2031.5C 1599.43,2027.91 1601.76,2026.24 1605.5,2026.5 Z"/></g>
<g><path style="opacity:1" fill="#5e5e5e" d="M 623.5,2028.5 C 626.489,2028.81 628.822,2030.15 630.5,2032.5C 627.787,2031.6 625.454,2030.27 623.5,2028.5 Z"/></g>
<g><path style="opacity:1" fill="#616161" d="M 1187.5,2032.5 C 1186.5,2032.5 1185.5,2032.5 1184.5,2032.5C 1184.24,2036.27 1184.58,2039.94 1185.5,2043.5C 1184.01,2039.61 1182.67,2035.44 1181.5,2031C 1181.83,2030.5 1182.17,2030 1182.5,2029.5C 1184.1,2030.79 1185.77,2031.79 1187.5,2032.5 Z"/></g>
<g><path style="opacity:1" fill="#5a5a5a" d="M 630.5,2032.5 C 633.751,2032.95 636.085,2034.62 637.5,2037.5C 635.442,2036.07 633.108,2035.4 630.5,2035.5C 630.5,2034.5 630.5,2033.5 630.5,2032.5 Z"/></g>
<g><path style="opacity:1" fill="#bababa" d="M 1069.5,2035.5 C 1068.14,2038.52 1065.81,2039.85 1062.5,2039.5C 1062.41,2038.5 1062.75,2037.67 1063.5,2037C 1065.52,2036.5 1067.52,2036 1069.5,2035.5 Z"/></g>
<g><path style="opacity:1" fill="#9d9d9d" d="M 1598.5,2031.5 C 1594.11,2034.79 1589.44,2037.79 1584.5,2040.5C 1584.86,2038.63 1585.86,2037.13 1587.5,2036C 1591.11,2034.16 1594.78,2032.66 1598.5,2031.5 Z"/></g>
<g><path style="opacity:1" fill="#676767" d="M 1188.5,2033.5 C 1192.86,2036.97 1197.86,2039.47 1203.5,2041C 1204.25,2041.67 1204.59,2042.5 1204.5,2043.5C 1198.33,2041.32 1192.99,2037.99 1188.5,2033.5 Z"/></g>
<g><path style="opacity:1" fill="#8c8c8c" d="M 637.5,2037.5 C 640.544,2037.77 642.877,2039.11 644.5,2041.5C 641.787,2040.6 639.454,2039.27 637.5,2037.5 Z"/></g>
<g><path style="opacity:1" fill="#999999" d="M 1584.5,2040.5 C 1581.93,2041.72 1579.6,2043.38 1577.5,2045.5C 1578.43,2041.91 1580.76,2040.24 1584.5,2040.5 Z"/></g>
<g><path style="opacity:1" fill="#6d6d6d" d="M 1208.5,2044.5 C 1212.66,2046.16 1216.66,2047.83 1220.5,2049.5C 1220.5,2049.83 1220.5,2050.17 1220.5,2050.5C 1215.75,2049.7 1211.75,2047.7 1208.5,2044.5 Z"/></g>
<g><path style="opacity:1" fill="#404040" d="M 1062.5,2041.5 C 1060.24,2043.38 1057.58,2044.38 1054.5,2044.5C 1054.5,2045.5 1054.5,2046.5 1054.5,2047.5C 1052.38,2047.33 1050.38,2047.66 1048.5,2048.5C 1048.5,2048.17 1048.5,2047.83 1048.5,2047.5C 1052.66,2044.42 1057.33,2042.42 1062.5,2041.5 Z"/></g>
<g><path style="opacity:1" fill="#909090" d="M 651.5,2046.5 C 653.086,2047.15 654.753,2047.65 656.5,2048C 657.252,2048.67 657.586,2049.5 657.5,2050.5C 655.185,2049.46 653.185,2048.12 651.5,2046.5 Z"/></g>
<g><path style="opacity:1" fill="#a8a8a8" d="M 1048.5,2047.5 C 1048.5,2047.83 1048.5,2048.17 1048.5,2048.5C 1045.59,2049.65 1042.59,2050.65 1039.5,2051.5C 1040.74,2049.9 1042.4,2048.74 1044.5,2048C 1045.79,2047.51 1047.13,2047.34 1048.5,2047.5 Z"/></g>
<g><path style="opacity:1" fill="#7c7c7c" d="M 657.5,2050.5 C 664.464,2053.52 671.131,2056.85 677.5,2060.5C 677.5,2060.83 677.5,2061.17 677.5,2061.5C 670.069,2058.94 663.402,2055.27 657.5,2050.5 Z"/></g>
<g><path style="opacity:1" fill="#797979" d="M 1573.5,2047.5 C 1569.28,2050.58 1564.61,2052.92 1559.5,2054.5C 1560.18,2052.82 1561.52,2052.16 1563.5,2052.5C 1563.5,2051.5 1563.5,2050.5 1563.5,2049.5C 1566.98,2049.31 1570.32,2048.64 1573.5,2047.5 Z"/></g>
<g><path style="opacity:1" fill="#bababa" d="M 1220.5,2050.5 C 1220.5,2050.17 1220.5,2049.83 1220.5,2049.5C 1226.07,2051.08 1231.74,2052.58 1237.5,2054C 1238.59,2055.55 1239.92,2056.72 1241.5,2057.5C 1233.99,2056.26 1226.99,2053.93 1220.5,2050.5 Z"/></g>
<g><path style="opacity:1" fill="#868686" d="M 1186.5,2052.5 C 1188.39,2054.99 1189.05,2057.99 1188.5,2061.5C 1187.76,2058.61 1187.09,2055.61 1186.5,2052.5 Z"/></g>
<g><path style="opacity:1" fill="#939393" d="M 1039.5,2052.5 C 1033.45,2056.51 1026.78,2059.18 1019.5,2060.5C 1020.21,2059.6 1021.21,2059.26 1022.5,2059.5C 1022.5,2058.5 1022.5,2057.5 1022.5,2056.5C 1024.86,2056.66 1027.19,2056.5 1029.5,2056C 1032.76,2054.52 1036.09,2053.35 1039.5,2052.5 Z"/></g>
<g><path style="opacity:1" fill="#727272" d="M 1077.5,2047.5 C 1076.54,2047.95 1075.71,2048.62 1075,2049.5C 1073.43,2054.47 1072.26,2059.47 1071.5,2064.5C 1071.34,2061.48 1071.5,2058.48 1072,2055.5C 1073.33,2050.83 1074.67,2046.17 1076,2041.5C 1078.21,2039 1079.05,2036 1078.5,2032.5C 1077.5,2032.5 1076.5,2032.5 1075.5,2032.5C 1077.19,2031.7 1078.86,2030.7 1080.5,2029.5C 1081.66,2030.58 1081.49,2031.58 1080,2032.5C 1079.27,2037.54 1078.43,2042.54 1077.5,2047.5 Z"/></g>
<g><path style="opacity:1" fill="#dadada" d="M 1077.5,2047.5 C 1075.82,2052.71 1074.66,2058.04 1074,2063.5C 1073.29,2064.97 1072.12,2065.64 1070.5,2065.5C 1070.58,2069.9 1070.08,2074.23 1069,2078.5C 1067.9,2084.39 1066.4,2090.05 1064.5,2095.5C 1063.5,2095.5 1062.5,2095.5 1061.5,2095.5C 1061.5,2095.17 1061.5,2094.83 1061.5,2094.5C 1061.92,2091.84 1062.92,2089.51 1064.5,2087.5C 1066.69,2080.06 1068.36,2072.39 1069.5,2064.5C 1070.17,2064.5 1070.83,2064.5 1071.5,2064.5C 1072.26,2059.47 1073.43,2054.47 1075,2049.5C 1075.71,2048.62 1076.54,2047.95 1077.5,2047.5 Z"/></g>
<g><path style="opacity:1" fill="#797979" d="M 1559.5,2054.5 C 1555.76,2057.64 1551.42,2059.64 1546.5,2060.5C 1547.21,2059.6 1548.21,2059.26 1549.5,2059.5C 1549.5,2058.5 1549.5,2057.5 1549.5,2056.5C 1552.98,2056.31 1556.32,2055.64 1559.5,2054.5 Z"/></g>
<g><path style="opacity:1" fill="#bebebe" d="M 677.5,2060.5 C 679.199,2060.34 680.866,2060.51 682.5,2061C 683.591,2062.55 684.924,2063.72 686.5,2064.5C 683.152,2064.29 680.152,2063.29 677.5,2061.5C 677.5,2061.17 677.5,2060.83 677.5,2060.5 Z"/></g>
<g><path style="opacity:1" fill="#999999" d="M 1241.5,2058.5 C 1243.2,2058.34 1244.87,2058.51 1246.5,2059C 1248.21,2060.78 1250.21,2061.94 1252.5,2062.5C 1248.04,2062.86 1244.38,2061.52 1241.5,2058.5 Z"/></g>
<g><path style="opacity:1" fill="#a7a7a7" d="M 1018.5,2061.5 C 1016.78,2062.31 1015.11,2063.31 1013.5,2064.5C 1011.05,2064.3 1008.72,2064.63 1006.5,2065.5C 1010.19,2063.71 1014.19,2062.37 1018.5,2061.5 Z"/></g>
<g><path style="opacity:1" fill="#a8a8a8" d="M 1545.5,2061.5 C 1543.78,2062.31 1542.11,2063.31 1540.5,2064.5C 1538.05,2064.3 1535.72,2064.63 1533.5,2065.5C 1537.19,2063.71 1541.19,2062.37 1545.5,2061.5 Z"/></g>
<g><path style="opacity:1" fill="#a7a7a7" d="M 686.5,2064.5 C 689.312,2064.77 691.645,2065.77 693.5,2067.5C 691.167,2067.5 688.833,2067.5 686.5,2067.5C 686.5,2066.5 686.5,2065.5 686.5,2064.5 Z"/></g>
<g><path style="opacity:1" fill="#777777" d="M 1013.5,2064.5 C 1007.03,2066.31 1000.7,2068.64 994.5,2071.5C 992.5,2071.5 990.5,2071.5 988.5,2071.5C 994.5,2069.5 1000.5,2067.5 1006.5,2065.5C 1008.72,2064.63 1011.05,2064.3 1013.5,2064.5 Z"/></g>
<g><path style="opacity:1" fill="#6d6d6d" d="M 1259.5,2065.5 C 1261.95,2066.07 1264.29,2066.73 1266.5,2067.5C 1263.61,2068.01 1261.28,2067.34 1259.5,2065.5 Z"/></g>
<g><path style="opacity:1" fill="#6d6d6d" d="M 1540.5,2064.5 C 1534.59,2066.5 1528.59,2068.5 1522.5,2070.5C 1523.74,2068.9 1525.4,2067.74 1527.5,2067C 1529.71,2066.81 1531.71,2066.31 1533.5,2065.5C 1535.72,2064.63 1538.05,2064.3 1540.5,2064.5 Z"/></g>
<g><path style="opacity:1" fill="#9c9c9c" d="M 693.5,2068.5 C 697.077,2068.14 700.077,2069.14 702.5,2071.5C 699.294,2070.92 696.294,2069.92 693.5,2068.5 Z"/></g>
<g><path style="opacity:1" fill="#8b8b8b" d="M 1266.5,2067.5 C 1268.95,2068.07 1271.29,2068.73 1273.5,2069.5C 1270.61,2070.01 1268.28,2069.34 1266.5,2067.5 Z"/></g>
<g><path style="opacity:1" fill="#686868" d="M 702.5,2072.5 C 704.952,2073.07 707.285,2073.73 709.5,2074.5C 706.612,2075.01 704.279,2074.34 702.5,2072.5 Z"/></g>
<g><path style="opacity:1" fill="#bebebe" d="M 1189.5,2062.5 C 1190.32,2064.97 1190.82,2067.64 1191,2070.5C 1191.38,2071.06 1191.88,2071.39 1192.5,2071.5C 1192.5,2074.5 1192.5,2077.5 1192.5,2080.5C 1190.59,2074.8 1189.59,2068.8 1189.5,2062.5 Z"/></g>
<g><path style="opacity:1" fill="#3b3b3b" d="M 988.5,2071.5 C 990.5,2071.5 992.5,2071.5 994.5,2071.5C 993.081,2072.45 991.415,2072.78 989.5,2072.5C 989.5,2073.5 989.5,2074.5 989.5,2075.5C 986.721,2075.28 984.054,2075.61 981.5,2076.5C 981.414,2075.5 981.748,2074.67 982.5,2074C 985.051,2074 987.051,2073.16 988.5,2071.5 Z"/></g>
<g><path style="opacity:1" fill="#3d3d3d" d="M 1280.5,2072.5 C 1283.41,2073.24 1286.41,2073.74 1289.5,2074C 1290.06,2074.38 1290.39,2074.88 1290.5,2075.5C 1290.5,2075.83 1290.5,2076.17 1290.5,2076.5C 1287.59,2075.76 1284.59,2075.26 1281.5,2075C 1280.75,2074.33 1280.41,2073.5 1280.5,2072.5 Z"/></g>
<g><path style="opacity:1" fill="#393939" d="M 1521.5,2071.5 C 1520.08,2072.45 1518.41,2072.78 1516.5,2072.5C 1516.5,2073.5 1516.5,2074.5 1516.5,2075.5C 1511.3,2076.64 1505.96,2077.31 1500.5,2077.5C 1502.83,2076.83 1505.17,2076.17 1507.5,2075.5C 1511.88,2073.38 1516.54,2072.04 1521.5,2071.5 Z"/></g>
<g><path style="opacity:1" fill="#8b8b8b" d="M 709.5,2074.5 C 711.952,2075.07 714.285,2075.73 716.5,2076.5C 713.612,2077.01 711.279,2076.34 709.5,2074.5 Z"/></g>
<g><path style="opacity:1" fill="#a4a4a4" d="M 1290.5,2076.5 C 1290.5,2076.17 1290.5,2075.83 1290.5,2075.5C 1296.8,2075.59 1302.8,2076.59 1308.5,2078.5C 1302.37,2078.31 1296.37,2077.64 1290.5,2076.5 Z"/></g>
<g><path style="opacity:1" fill="#a6a6a6" d="M 1507.5,2075.5 C 1505.17,2076.17 1502.83,2076.83 1500.5,2077.5C 1499.83,2077.83 1499.17,2078.17 1498.5,2078.5C 1495.39,2078.26 1492.39,2078.6 1489.5,2079.5C 1492.53,2077.93 1495.86,2076.76 1499.5,2076C 1502.15,2075.5 1504.81,2075.34 1507.5,2075.5 Z"/></g>
<g><path style="opacity:1" fill="#b8b8b8" d="M 974.5,2077.5 C 971.203,2077.89 968.203,2078.89 965.5,2080.5C 962.612,2079.99 960.279,2080.66 958.5,2082.5C 952.485,2084.55 946.152,2085.89 939.5,2086.5C 941.988,2084.61 944.988,2083.95 948.5,2084.5C 948.5,2083.5 948.5,2082.5 948.5,2081.5C 957.136,2079.99 965.803,2078.65 974.5,2077.5 Z"/></g>
<g><path style="opacity:1" fill="#686868" d="M 965.5,2080.5 C 963.285,2081.27 960.952,2081.93 958.5,2082.5C 960.279,2080.66 962.612,2079.99 965.5,2080.5 Z"/></g>
<g><path style="opacity:1" fill="#636363" d="M 1069.5,2064.5 C 1068.36,2072.39 1066.69,2080.06 1064.5,2087.5C 1065.21,2079.53 1066.88,2071.86 1069.5,2064.5 Z"/></g>
<g><path style="opacity:1" fill="#747474" d="M 1308.5,2079.5 C 1311.66,2079.99 1314.66,2080.66 1317.5,2081.5C 1314.81,2081.66 1312.15,2081.5 1309.5,2081C 1308.94,2080.62 1308.61,2080.12 1308.5,2079.5 Z"/></g>
<g><path style="opacity:1" fill="#636363" d="M 1498.5,2078.5 C 1492.84,2080.63 1486.84,2081.96 1480.5,2082.5C 1483.2,2080.89 1486.2,2079.89 1489.5,2079.5C 1492.39,2078.6 1495.39,2078.26 1498.5,2078.5 Z"/></g>
<g><path style="opacity:1" fill="#7f7f7f" d="M 1192.5,2071.5 C 1194.41,2077.2 1195.41,2083.2 1195.5,2089.5C 1194.68,2087.03 1194.18,2084.36 1194,2081.5C 1193.62,2080.94 1193.12,2080.61 1192.5,2080.5C 1192.5,2077.5 1192.5,2074.5 1192.5,2071.5 Z"/></g>
<g><path style="opacity:1" fill="#868686" d="M 1317.5,2081.5 C 1322.07,2082.44 1326.74,2082.77 1331.5,2082.5C 1331.5,2082.83 1331.5,2083.17 1331.5,2083.5C 1326.38,2084.1 1321.71,2083.44 1317.5,2081.5 Z"/></g>
<g><path style="opacity:1" fill="#c6c6c6" d="M 730.5,2082.5 C 736.198,2082.6 741.865,2083.1 747.5,2084C 747.957,2084.41 748.291,2084.91 748.5,2085.5C 751.977,2086.17 755.311,2086.83 758.5,2087.5C 754.833,2087.5 751.167,2087.5 747.5,2087.5C 742.025,2085.59 736.358,2083.93 730.5,2082.5 Z"/></g>
<g><path style="opacity:1" fill="#d2d2d2" d="M 1331.5,2083.5 C 1331.5,2083.17 1331.5,2082.83 1331.5,2082.5C 1343.62,2085.13 1355.95,2086.8 1368.5,2087.5C 1360.75,2087.8 1353.08,2087.47 1345.5,2086.5C 1340.72,2086.05 1336.05,2085.05 1331.5,2083.5 Z"/></g>
<g><path style="opacity:1" fill="#a0a0a0" d="M 1480.5,2082.5 C 1476.4,2082.98 1472.4,2083.98 1468.5,2085.5C 1464.83,2085.5 1461.17,2085.5 1457.5,2085.5C 1465.01,2084.07 1472.68,2083.07 1480.5,2082.5 Z"/></g>
<g><path style="opacity:1" fill="#666666" d="M 1345.5,2086.5 C 1353.08,2087.47 1360.75,2087.8 1368.5,2087.5C 1368.5,2087.83 1368.5,2088.17 1368.5,2088.5C 1360.43,2089.13 1352.76,2088.47 1345.5,2086.5 Z"/></g>
<g><path style="opacity:1" fill="#d7d7d7" d="M 1368.5,2088.5 C 1368.5,2088.17 1368.5,2087.83 1368.5,2087.5C 1390.12,2088.48 1411.79,2088.81 1433.5,2088.5C 1412.34,2089.5 1391.01,2089.83 1369.5,2089.5C 1369.5,2088.83 1369.17,2088.5 1368.5,2088.5 Z"/></g>
<g><path style="opacity:1" fill="#272727" d="M 1457.5,2085.5 C 1461.17,2085.5 1464.83,2085.5 1468.5,2085.5C 1465.38,2086.48 1462.04,2086.81 1458.5,2086.5C 1458.5,2087.5 1458.5,2088.5 1458.5,2089.5C 1450.83,2089.5 1443.17,2089.5 1435.5,2089.5C 1442.83,2088.83 1450.17,2088.17 1457.5,2087.5C 1457.5,2086.83 1457.5,2086.17 1457.5,2085.5 Z"/></g>
<g><path style="opacity:1" fill="#7e7e7e" d="M 747.5,2087.5 C 751.167,2087.5 754.833,2087.5 758.5,2087.5C 758.611,2088.12 758.944,2088.62 759.5,2089C 762.365,2089.18 765.031,2089.68 767.5,2090.5C 760.797,2089.5 754.131,2088.5 747.5,2087.5 Z"/></g>
<g><path style="opacity:1" fill="#7c7c7c" d="M 939.5,2087.5 C 932.136,2089.55 924.469,2090.88 916.5,2091.5C 920.217,2089.93 924.217,2088.77 928.5,2088C 932.152,2087.5 935.818,2087.33 939.5,2087.5 Z"/></g>
<g><path style="opacity:1" fill="#808080" d="M 1457.5,2087.5 C 1450.17,2088.17 1442.83,2088.83 1435.5,2089.5C 1413.4,2090.83 1391.4,2090.83 1369.5,2089.5C 1391.01,2089.83 1412.34,2089.5 1433.5,2088.5C 1441.41,2087.53 1449.41,2087.2 1457.5,2087.5 Z"/></g>
<g><path style="opacity:1" fill="#a4a4a4" d="M 767.5,2090.5 C 772.935,2091.12 778.268,2091.79 783.5,2092.5C 778.5,2092.5 773.5,2092.5 768.5,2092.5C 767.662,2092.16 767.328,2091.49 767.5,2090.5 Z"/></g>
<g><path style="opacity:1" fill="#979797" d="M 1196.5,2090.5 C 1197.11,2095.74 1198.44,2100.74 1200.5,2105.5C 1199.94,2103.21 1198.78,2101.21 1197,2099.5C 1196.5,2096.52 1196.34,2093.52 1196.5,2090.5 Z"/></g>
<g><path style="opacity:1" fill="#4b4b4b" d="M 768.5,2092.5 C 773.5,2092.5 778.5,2092.5 783.5,2092.5C 784.338,2092.84 784.672,2093.51 784.5,2094.5C 779.065,2093.88 773.732,2093.21 768.5,2092.5 Z"/></g>
<g><path style="opacity:1" fill="#676767" d="M 784.5,2094.5 C 790.271,2093.89 795.604,2094.55 800.5,2096.5C 800.167,2096.5 799.833,2096.5 799.5,2096.5C 794.5,2095.83 789.5,2095.17 784.5,2094.5 Z"/></g>
<g><path style="opacity:1" fill="#676767" d="M 902.5,2094.5 C 895.833,2095.17 889.167,2095.83 882.5,2096.5C 882.167,2096.5 881.833,2096.5 881.5,2096.5C 888.087,2094.54 895.087,2093.87 902.5,2094.5 Z"/></g>
<g><path style="opacity:1" fill="#535353" d="M 1061.5,2094.5 C 1061.5,2094.83 1061.5,2095.17 1061.5,2095.5C 1060.83,2097.5 1060.17,2099.5 1059.5,2101.5C 1058.99,2098.61 1059.66,2096.28 1061.5,2094.5 Z"/></g>
<g><path style="opacity:1" fill="#454545" d="M 799.5,2096.5 C 799.833,2096.5 800.167,2096.5 800.5,2096.5C 827.5,2096.5 854.5,2096.5 881.5,2096.5C 881.833,2096.5 882.167,2096.5 882.5,2096.5C 869.017,2097.83 855.183,2098.5 841,2098.5C 826.817,2098.5 812.983,2097.83 799.5,2096.5 Z"/></g>
<g><path style="opacity:1" fill="#6f6f6f" d="M 1059.5,2101.5 C 1058.93,2103.95 1058.27,2106.29 1057.5,2108.5C 1056.99,2105.61 1057.66,2103.28 1059.5,2101.5 Z"/></g>
<g><path style="opacity:1" fill="#808080" d="M 1201.5,2106.5 C 1202.11,2112.13 1203.78,2117.46 1206.5,2122.5C 1205.5,2122.5 1204.5,2122.5 1203.5,2122.5C 1202.04,2117.36 1201.37,2112.03 1201.5,2106.5 Z"/></g>
<g><path style="opacity:1" fill="#d0d0d0" d="M 1061.5,2095.5 C 1060.53,2102.59 1059.03,2109.59 1057,2116.5C 1056.26,2118.89 1055.09,2120.89 1053.5,2122.5C 1053.66,2117.29 1054.99,2112.62 1057.5,2108.5C 1058.27,2106.29 1058.93,2103.95 1059.5,2101.5C 1060.17,2099.5 1060.83,2097.5 1061.5,2095.5 Z"/></g>
<g><path style="opacity:1" fill="#6e6e6e" d="M 1052.5,2122.5 C 1052.5,2122.83 1052.5,2123.17 1052.5,2123.5C 1051.83,2125.5 1051.17,2127.5 1050.5,2129.5C 1049.99,2126.61 1050.66,2124.28 1052.5,2122.5 Z"/></g>
<g><path style="opacity:1" fill="#7c7c7c" d="M 1206.5,2122.5 C 1207.08,2125.27 1208.08,2127.94 1209.5,2130.5C 1209.5,2133.17 1209.5,2135.83 1209.5,2138.5C 1208.5,2133.2 1207.5,2127.87 1206.5,2122.5 Z"/></g>
<g><path style="opacity:1" fill="#d1d1d1" d="M 1052.5,2123.5 C 1052.66,2125.86 1052.5,2128.19 1052,2130.5C 1049.36,2136.85 1047.52,2143.52 1046.5,2150.5C 1045.5,2150.5 1044.5,2150.5 1043.5,2150.5C 1043.5,2148.17 1043.5,2145.83 1043.5,2143.5C 1044.5,2143.5 1045.5,2143.5 1046.5,2143.5C 1046.66,2138.29 1047.99,2133.62 1050.5,2129.5C 1051.17,2127.5 1051.83,2125.5 1052.5,2123.5 Z"/></g>
<g><path style="opacity:1" fill="#8e8e8e" d="M 1214.5,2152.5 C 1215.12,2152.61 1215.62,2152.94 1216,2153.5C 1216.5,2155.47 1216.66,2157.47 1216.5,2159.5C 1215.59,2157.34 1214.93,2155.01 1214.5,2152.5 Z"/></g>
<g><path style="opacity:1" fill="#c2c2c2" d="M 1041.5,2150.5 C 1042.17,2150.5 1042.83,2150.5 1043.5,2150.5C 1042.65,2154.09 1041.99,2157.75 1041.5,2161.5C 1041.36,2163.03 1040.69,2164.03 1039.5,2164.5C 1040.64,2159.97 1041.31,2155.3 1041.5,2150.5 Z"/></g>
<g><path style="opacity:1" fill="#575757" d="M 1209.5,2130.5 C 1214.81,2145.97 1219.81,2161.63 1224.5,2177.5C 1224.5,2177.83 1224.5,2178.17 1224.5,2178.5C 1222.9,2177.26 1221.74,2175.6 1221,2173.5C 1219.3,2168.9 1217.8,2164.23 1216.5,2159.5C 1216.66,2157.47 1216.5,2155.47 1216,2153.5C 1215.62,2152.94 1215.12,2152.61 1214.5,2152.5C 1213.21,2148.3 1212.04,2143.97 1211,2139.5C 1210.62,2138.94 1210.12,2138.61 1209.5,2138.5C 1209.5,2135.83 1209.5,2133.17 1209.5,2130.5 Z"/></g>
<g><path style="opacity:1" fill="#676767" d="M 1041.5,2150.5 C 1041.31,2155.3 1040.64,2159.97 1039.5,2164.5C 1038.88,2164.61 1038.38,2164.94 1038,2165.5C 1037.89,2169.55 1036.72,2173.22 1034.5,2176.5C 1033.53,2178.74 1033.19,2181.08 1033.5,2183.5C 1032.5,2183.5 1031.5,2183.5 1030.5,2183.5C 1030.77,2185.1 1030.43,2186.43 1029.5,2187.5C 1030.53,2183.57 1031.19,2179.57 1031.5,2175.5C 1032.5,2175.5 1033.5,2175.5 1034.5,2175.5C 1036.94,2167.15 1039.28,2158.82 1041.5,2150.5 Z"/></g>
<g><path style="opacity:1" fill="#292929" d="M 1224.5,2178.5 C 1224.5,2178.17 1224.5,2177.83 1224.5,2177.5C 1225.5,2177.41 1226.33,2177.75 1227,2178.5C 1228.38,2183.07 1229.54,2187.74 1230.5,2192.5C 1229.5,2192.59 1228.67,2192.25 1228,2191.5C 1226.96,2187.03 1225.79,2182.7 1224.5,2178.5 Z"/></g>
<g><path style="opacity:1" fill="#a8a8a8" d="M 1224.5,2178.5 C 1225.79,2182.7 1226.96,2187.03 1228,2191.5C 1228.67,2192.25 1229.5,2192.59 1230.5,2192.5C 1230.5,2193.83 1230.5,2195.17 1230.5,2196.5C 1229.72,2194.92 1228.55,2193.59 1227,2192.5C 1225.38,2188.01 1224.54,2183.35 1224.5,2178.5 Z"/></g>
<g><path style="opacity:1" fill="#818181" d="M 1029.5,2187.5 C 1028.93,2189.95 1028.27,2192.29 1027.5,2194.5C 1026.99,2191.61 1027.66,2189.28 1029.5,2187.5 Z"/></g>
<g><path style="opacity:1" fill="#5c5c5c" d="M 1025.5,2194.5 C 1025.86,2198.08 1024.86,2201.08 1022.5,2203.5C 1023.08,2200.29 1024.08,2197.29 1025.5,2194.5 Z"/></g>
<g><path style="opacity:1" fill="#585858" d="M 1234.5,2201.5 C 1235.27,2203.71 1235.93,2206.05 1236.5,2208.5C 1236.17,2208.5 1235.83,2208.5 1235.5,2208.5C 1234.53,2206.39 1234.2,2204.06 1234.5,2201.5 Z"/></g>
<g><path style="opacity:1" fill="#7a7a7a" d="M 1022.5,2203.5 C 1021.93,2205.95 1021.27,2208.29 1020.5,2210.5C 1019.99,2207.61 1020.66,2205.28 1022.5,2203.5 Z"/></g>
<g><path style="opacity:1" fill="#b8b8b8" d="M 1235.5,2208.5 C 1235.83,2208.5 1236.17,2208.5 1236.5,2208.5C 1236.97,2210.53 1237.97,2212.2 1239.5,2213.5C 1239.5,2214.83 1239.5,2216.17 1239.5,2217.5C 1236.47,2215.41 1235.14,2212.41 1235.5,2208.5 Z"/></g>
<g><path style="opacity:1" fill="#4a4a4a" d="M 1239.5,2213.5 C 1241.58,2216.07 1242.91,2219.07 1243.5,2222.5C 1243.17,2222.5 1242.83,2222.5 1242.5,2222.5C 1241.93,2220.58 1240.93,2218.91 1239.5,2217.5C 1239.5,2216.17 1239.5,2214.83 1239.5,2213.5 Z"/></g>
<g><path style="opacity:1" fill="#676767" d="M 1016.5,2215.5 C 1016.66,2217.86 1016.5,2220.19 1016,2222.5C 1014.63,2225.93 1012.8,2228.93 1010.5,2231.5C 1012.81,2226.26 1014.81,2220.93 1016.5,2215.5 Z"/></g>
<g><path style="opacity:1" fill="#b1b1b1" d="M 1242.5,2222.5 C 1242.83,2222.5 1243.17,2222.5 1243.5,2222.5C 1245.29,2225.15 1246.29,2228.15 1246.5,2231.5C 1243.47,2229.41 1242.14,2226.41 1242.5,2222.5 Z"/></g>
<g><path style="opacity:1" fill="#ababab" d="M 1246.5,2231.5 C 1247.83,2233.13 1249.17,2234.8 1250.5,2236.5C 1251.43,2237.69 1251.76,2239.02 1251.5,2240.5C 1248.68,2238.3 1247.01,2235.3 1246.5,2231.5 Z"/></g>
<g><path style="opacity:1" fill="#6d6d6d" d="M 1010.5,2231.5 C 1010.5,2231.83 1010.5,2232.17 1010.5,2232.5C 1009.62,2235.39 1008.28,2238.05 1006.5,2240.5C 1006.34,2239.13 1006.51,2237.79 1007,2236.5C 1007.74,2234.4 1008.9,2232.74 1010.5,2231.5 Z"/></g>
<g><path style="opacity:1" fill="#cbcbcb" d="M 1010.5,2232.5 C 1010.58,2235.27 1010.08,2237.94 1009,2240.5C 1007.07,2244.05 1004.9,2247.38 1002.5,2250.5C 1002.37,2248.71 1002.7,2247.04 1003.5,2245.5C 1003.97,2243.47 1004.97,2241.8 1006.5,2240.5C 1008.28,2238.05 1009.62,2235.39 1010.5,2232.5 Z"/></g>
<g><path style="opacity:1" fill="#555555" d="M 1252.5,2241.5 C 1255.06,2243.43 1256.39,2246.1 1256.5,2249.5C 1255.86,2247.92 1254.86,2246.59 1253.5,2245.5C 1252.57,2244.43 1252.23,2243.1 1252.5,2241.5 Z"/></g>
<g><path style="opacity:1" fill="#6b6b6b" d="M 1003.5,2245.5 C 1002.7,2247.04 1002.37,2248.71 1002.5,2250.5C 1001.14,2251.59 1000.14,2252.92 999.5,2254.5C 999.343,2253.13 999.51,2251.79 1000,2250.5C 1000.74,2248.4 1001.9,2246.74 1003.5,2245.5 Z"/></g>
<g><path style="opacity:1" fill="#cecece" d="M 1253.5,2245.5 C 1254.86,2246.59 1255.86,2247.92 1256.5,2249.5C 1257.97,2250.78 1258.63,2252.45 1258.5,2254.5C 1260.7,2256.26 1261.87,2258.6 1262,2261.5C 1262.67,2262.25 1263.5,2262.59 1264.5,2262.5C 1264.5,2263.17 1264.5,2263.83 1264.5,2264.5C 1263.28,2263.97 1262.11,2263.31 1261,2262.5C 1258.01,2257.02 1255.51,2251.36 1253.5,2245.5 Z"/></g>
<g><path style="opacity:1" fill="#7e7e7e" d="M 1258.5,2254.5 C 1262.37,2255.71 1264.37,2258.38 1264.5,2262.5C 1263.5,2262.59 1262.67,2262.25 1262,2261.5C 1261.87,2258.6 1260.7,2256.26 1258.5,2254.5 Z"/></g>
<g><path style="opacity:1" fill="#5b5b5b" d="M 996.5,2259.5 C 995.789,2262.68 994.622,2265.68 993,2268.5C 992.292,2269.38 991.458,2270.05 990.5,2270.5C 990.857,2268.41 991.523,2266.41 992.5,2264.5C 993.689,2262.64 995.022,2260.97 996.5,2259.5 Z"/></g>
<g><path style="opacity:1" fill="#848484" d="M 1264.5,2262.5 C 1266.98,2263.69 1267.98,2265.69 1267.5,2268.5C 1266.86,2266.92 1265.86,2265.59 1264.5,2264.5C 1264.5,2263.83 1264.5,2263.17 1264.5,2262.5 Z"/></g>
<g><path style="opacity:1" fill="#707070" d="M 990.5,2270.5 C 989.127,2274.04 987.46,2277.37 985.5,2280.5C 986.036,2277.45 986.869,2274.45 988,2271.5C 988.671,2270.75 989.504,2270.41 990.5,2270.5 Z"/></g>
<g><path style="opacity:1" fill="#c9c9c9" d="M 1267.5,2268.5 C 1271.09,2269.43 1272.76,2271.76 1272.5,2275.5C 1274.7,2277.26 1275.87,2279.6 1276,2282.5C 1276.67,2283.25 1277.5,2283.59 1278.5,2283.5C 1280.26,2284.26 1281.26,2285.6 1281.5,2287.5C 1279.47,2286.06 1277.31,2284.73 1275,2283.5C 1272.47,2278.44 1269.97,2273.44 1267.5,2268.5 Z"/></g>
<g><path style="opacity:1" fill="#787878" d="M 1272.5,2275.5 C 1276.37,2276.71 1278.37,2279.38 1278.5,2283.5C 1277.5,2283.59 1276.67,2283.25 1276,2282.5C 1275.87,2279.6 1274.7,2277.26 1272.5,2275.5 Z"/></g>
<g><path style="opacity:1" fill="#5a5a5a" d="M 985.5,2280.5 C 983.084,2282.35 981.417,2284.68 980.5,2287.5C 980.005,2283.54 981.672,2281.21 985.5,2280.5 Z"/></g>
<g><path style="opacity:1" fill="#757575" d="M 980.5,2287.5 C 980.66,2289.2 980.494,2290.87 980,2292.5C 978.045,2293.45 976.378,2294.79 975,2296.5C 972.241,2300.73 969.408,2304.73 966.5,2308.5C 967.106,2304.35 969.273,2301.02 973,2298.5C 973.219,2297.06 973.719,2295.73 974.5,2294.5C 976.763,2292.25 978.763,2289.92 980.5,2287.5 Z"/></g>
<g><path style="opacity:1" fill="#535353" d="M 1292.5,2300.5 C 1295.54,2303.54 1298.21,2306.87 1300.5,2310.5C 1296.66,2308.01 1293.99,2304.67 1292.5,2300.5 Z"/></g>
<g><path style="opacity:1" fill="#6e6e6e" d="M 966.5,2308.5 C 964.436,2310.49 963.103,2312.83 962.5,2315.5C 961.68,2311.78 963.013,2309.44 966.5,2308.5 Z"/></g>
<g><path style="opacity:1" fill="#5b5b5b" d="M 1300.5,2310.5 C 1305.02,2312.35 1307.68,2315.68 1308.5,2320.5C 1306.33,2316.97 1303.66,2313.64 1300.5,2310.5 Z"/></g>
<g><path style="opacity:1" fill="#808080" d="M 1308.5,2320.5 C 1313.15,2324.81 1317.81,2329.14 1322.5,2333.5C 1323.45,2335.05 1323.79,2336.71 1323.5,2338.5C 1322.84,2337.28 1322.17,2335.95 1321.5,2334.5C 1316.42,2330.42 1312.08,2325.75 1308.5,2320.5 Z"/></g>
<g><path style="opacity:1" fill="#7f7f7f" d="M 962.5,2315.5 C 959.882,2319.82 956.716,2323.82 953,2327.5C 952.506,2329.13 952.34,2330.8 952.5,2332.5C 951.041,2332.43 949.708,2332.77 948.5,2333.5C 949.887,2328.59 952.721,2324.59 957,2321.5C 957.354,2318.09 959.188,2316.09 962.5,2315.5 Z"/></g>
<g><path style="opacity:1" fill="#808080" d="M 945.5,2338.5 C 945.5,2339.5 945.5,2340.5 945.5,2341.5C 944.5,2341.5 943.5,2341.5 942.5,2341.5C 942.768,2343.1 942.434,2344.43 941.5,2345.5C 941.124,2342.08 942.457,2339.74 945.5,2338.5 Z"/></g>
<g><path style="opacity:1" fill="#a6a6a6" d="M 941.5,2345.5 C 940.207,2347.3 938.707,2348.96 937,2350.5C 937.273,2354.71 935.44,2357.38 931.5,2358.5C 931.833,2357.83 932.167,2357.17 932.5,2356.5C 933.667,2351.33 936.667,2347.67 941.5,2345.5 Z"/></g>
<g><path style="opacity:1" fill="#d3d3d3" d="M 1338.5,2356.5 C 1340.15,2357.48 1341.48,2358.81 1342.5,2360.5C 1205.17,2361.5 1067.83,2361.83 930.5,2361.5C 930.263,2360.21 930.596,2359.21 931.5,2358.5C 999.163,2359.83 1067.16,2360.5 1135.5,2360.5C 1203.5,2360.17 1271.5,2359.83 1339.5,2359.5C 1338.87,2358.58 1338.54,2357.58 1338.5,2356.5 Z"/></g>
<g><path style="opacity:1" fill="#797979" d="M 1333.5,2347.5 C 1336.36,2351.88 1339.86,2355.88 1344,2359.5C 1344.74,2360.75 1344.57,2361.75 1343.5,2362.5C 1205.67,2362.83 1068,2362.5 930.5,2361.5C 1067.83,2361.83 1205.17,2361.5 1342.5,2360.5C 1341.48,2358.81 1340.15,2357.48 1338.5,2356.5C 1335.57,2354.23 1333.9,2351.23 1333.5,2347.5 Z"/></g>
<g><path style="opacity:1" fill="#252525" d="M 932.5,2356.5 C 932.167,2357.17 931.833,2357.83 931.5,2358.5C 930.596,2359.21 930.263,2360.21 930.5,2361.5C 1068,2362.5 1205.67,2362.83 1343.5,2362.5C 1205.67,2363.5 1067.67,2363.83 929.5,2363.5C 929.338,2361.47 929.505,2359.47 930,2357.5C 930.671,2356.75 931.504,2356.41 932.5,2356.5 Z"/></g>
<g><path style="opacity:1" fill="#6f6f6f" d="M 1839.5,2760.5 C 1829.15,2760.4 1818.81,2760.73 1808.5,2761.5C 1814.25,2759.96 1820.25,2759.29 1826.5,2759.5C 1831.01,2759.5 1835.35,2759.83 1839.5,2760.5 Z"/></g>
<g><path style="opacity:1" fill="#767676" d="M 2057.5,2760.5 C 2044.42,2760.13 2031.42,2760.8 2018.5,2762.5C 2020.95,2761.38 2023.62,2760.55 2026.5,2760C 2037.01,2759.17 2047.34,2759.34 2057.5,2760.5 Z"/></g>
<g><path style="opacity:1" fill="#fefefe" d="M 1839.5,2760.5 C 1842.5,2760.5 1845.5,2760.5 1848.5,2760.5C 1851.5,2762.28 1854.84,2763.28 1858.5,2763.5C 1860.41,2763.22 1862.08,2763.55 1863.5,2764.5C 1865.51,2765.92 1867.85,2766.59 1870.5,2766.5C 1872.68,2768.58 1875.35,2769.58 1878.5,2769.5C 1878.97,2770.91 1879.97,2771.57 1881.5,2771.5C 1883.85,2773.34 1886.52,2774.67 1889.5,2775.5C 1889.97,2776.91 1890.97,2777.57 1892.5,2777.5C 1896.62,2780.73 1900.96,2783.73 1905.5,2786.5C 1906.91,2788.91 1908.91,2790.58 1911.5,2791.5C 1920.88,2800.62 1928.55,2810.95 1934.5,2822.5C 1934.43,2824.03 1935.09,2825.03 1936.5,2825.5C 1936.56,2826.04 1936.89,2826.38 1937.5,2826.5C 1948.97,2803.4 1965.97,2785.56 1988.5,2773C 1993.71,2769.76 1999.38,2767.59 2005.5,2766.5C 2008.86,2766.31 2011.86,2765.31 2014.5,2763.5C 2015.57,2762.57 2016.9,2762.23 2018.5,2762.5C 2031.42,2760.8 2044.42,2760.13 2057.5,2760.5C 2057.83,2760.5 2058.17,2760.5 2058.5,2760.5C 2061.63,2761.58 2064.96,2762.25 2068.5,2762.5C 2071.27,2763.66 2074.27,2764.32 2077.5,2764.5C 2079.51,2765.92 2081.85,2766.59 2084.5,2766.5C 2086.06,2766.73 2087.4,2767.4 2088.5,2768.5C 2090.51,2770.07 2092.84,2771.07 2095.5,2771.5C 2097.85,2773.34 2100.52,2774.67 2103.5,2775.5C 2103.97,2776.91 2104.97,2777.57 2106.5,2777.5C 2138.07,2797.94 2156.57,2826.94 2162,2864.5C 2164.45,2907.24 2152.78,2945.57 2127,2979.5C 2112.99,2996.52 2097.82,3012.69 2081.5,3028C 2040.44,3062.73 2001.61,3099.89 1965,3139.5C 1955.35,3151.48 1946.18,3163.81 1937.5,3176.5C 1926.4,3161.32 1914.56,3146.66 1902,3132.5C 1888.25,3117.58 1874.08,3103.25 1859.5,3089.5C 1857.76,3086.76 1855.43,3084.76 1852.5,3083.5C 1847.21,3079.87 1842.54,3075.54 1838.5,3070.5C 1837.42,3068.41 1835.75,3067.08 1833.5,3066.5C 1831.83,3065.5 1830.5,3064.17 1829.5,3062.5C 1827.76,3059.76 1825.43,3057.76 1822.5,3056.5C 1821.5,3056.17 1820.83,3055.5 1820.5,3054.5C 1819.42,3052.41 1817.75,3051.08 1815.5,3050.5C 1813.83,3049.5 1812.5,3048.17 1811.5,3046.5C 1810.42,3044.41 1808.75,3043.08 1806.5,3042.5C 1804.83,3041.5 1803.5,3040.17 1802.5,3038.5C 1800.76,3035.76 1798.43,3033.76 1795.5,3032.5C 1768.73,3009.58 1746.57,2982.91 1729,2952.5C 1728.15,2950.15 1727.32,2947.81 1726.5,2945.5C 1726.25,2943.03 1725.25,2941.03 1723.5,2939.5C 1721.9,2936.71 1720.9,2933.71 1720.5,2930.5C 1719.01,2920.92 1717.01,2911.59 1714.5,2902.5C 1713.52,2899.38 1713.19,2896.04 1713.5,2892.5C 1713.71,2879.83 1714.04,2867.16 1714.5,2854.5C 1716.73,2850.92 1717.73,2846.92 1717.5,2842.5C 1717.83,2841.83 1718.17,2841.17 1718.5,2840.5C 1720.07,2838.9 1720.74,2836.9 1720.5,2834.5C 1721.71,2829.75 1723.71,2825.42 1726.5,2821.5C 1727.91,2821.03 1728.57,2820.03 1728.5,2818.5C 1732.31,2810.36 1737.64,2803.36 1744.5,2797.5C 1746.5,2796.17 1748.17,2794.5 1749.5,2792.5C 1752.95,2787.71 1757.28,2784.05 1762.5,2781.5C 1764.97,2780.7 1766.97,2779.37 1768.5,2777.5C 1770.85,2777.41 1772.51,2776.41 1773.5,2774.5C 1775.61,2772.23 1778.28,2770.9 1781.5,2770.5C 1784.4,2769.87 1787.06,2768.87 1789.5,2767.5C 1795.93,2765.46 1802.27,2763.46 1808.5,2761.5C 1818.81,2760.73 1829.15,2760.4 1839.5,2760.5 Z"/></g>
<g><path style="opacity:1" fill="#5a5a5a" d="M 2058.5,2760.5 C 2061.19,2760.34 2063.85,2760.5 2066.5,2761C 2067.42,2761.28 2068.08,2761.78 2068.5,2762.5C 2064.96,2762.25 2061.63,2761.58 2058.5,2760.5 Z"/></g>
<g><path style="opacity:1" fill="#686868" d="M 1848.5,2760.5 C 1852.16,2760.72 1855.5,2761.72 1858.5,2763.5C 1854.84,2763.28 1851.5,2762.28 1848.5,2760.5 Z"/></g>
<g><path style="opacity:1" fill="#4d4d4d" d="M 2068.5,2762.5 C 2071.19,2762.34 2073.85,2762.5 2076.5,2763C 2077.06,2763.38 2077.39,2763.88 2077.5,2764.5C 2074.27,2764.32 2071.27,2763.66 2068.5,2762.5 Z"/></g>
<g><path style="opacity:1" fill="#616161" d="M 1863.5,2764.5 C 1866.15,2764.41 1868.49,2765.08 1870.5,2766.5C 1867.85,2766.59 1865.51,2765.92 1863.5,2764.5 Z"/></g>
<g><path style="opacity:1" fill="#979797" d="M 2014.5,2763.5 C 2011.86,2765.31 2008.86,2766.31 2005.5,2766.5C 2008.08,2764.53 2011.08,2763.53 2014.5,2763.5 Z"/></g>
<g><path style="opacity:1" fill="#5c5c5c" d="M 2077.5,2764.5 C 2080.15,2764.41 2082.49,2765.08 2084.5,2766.5C 2081.85,2766.59 2079.51,2765.92 2077.5,2764.5 Z"/></g>
<g><path style="opacity:1" fill="#797979" d="M 1808.5,2761.5 C 1802.27,2763.46 1795.93,2765.46 1789.5,2767.5C 1795.2,2763.93 1801.54,2761.93 1808.5,2761.5 Z"/></g>
<g><path style="opacity:1" fill="#5f5f5f" d="M 2088.5,2768.5 C 2091.49,2768.17 2093.82,2769.17 2095.5,2771.5C 2092.84,2771.07 2090.51,2770.07 2088.5,2768.5 Z"/></g>
<g><path style="opacity:1" fill="#848484" d="M 1789.5,2767.5 C 1787.06,2768.87 1784.4,2769.87 1781.5,2770.5C 1783.62,2768.35 1786.28,2767.35 1789.5,2767.5 Z"/></g>
<g><path style="opacity:1" fill="#6b6b6b" d="M 1878.5,2769.5 C 1880.03,2769.43 1881.03,2770.09 1881.5,2771.5C 1879.97,2771.57 1878.97,2770.91 1878.5,2769.5 Z"/></g>
<g><path style="opacity:1" fill="#a1a1a1" d="M 1773.5,2774.5 C 1772.51,2776.41 1770.85,2777.41 1768.5,2777.5C 1769.66,2775.75 1771.33,2774.75 1773.5,2774.5 Z"/></g>
<g><path style="opacity:1" fill="#717171" d="M 1889.5,2775.5 C 1891.03,2775.43 1892.03,2776.09 1892.5,2777.5C 1890.97,2777.57 1889.97,2776.91 1889.5,2775.5 Z"/></g>
<g><path style="opacity:1" fill="#6a6a6a" d="M 2103.5,2775.5 C 2105.03,2775.43 2106.03,2776.09 2106.5,2777.5C 2104.97,2777.57 2103.97,2776.91 2103.5,2775.5 Z"/></g>
<g><path style="opacity:1" fill="#9f9f9f" d="M 1768.5,2777.5 C 1766.97,2779.37 1764.97,2780.7 1762.5,2781.5C 1763.8,2779.18 1765.8,2777.84 1768.5,2777.5 Z"/></g>
<g><path style="opacity:1" fill="#505050" d="M 1905.5,2786.5 C 1908.09,2787.42 1910.09,2789.09 1911.5,2791.5C 1908.91,2790.58 1906.91,2788.91 1905.5,2786.5 Z"/></g>
<g><path style="opacity:1" fill="#949494" d="M 1749.5,2792.5 C 1748.17,2794.5 1746.5,2796.17 1744.5,2797.5C 1745.17,2794.83 1746.83,2793.17 1749.5,2792.5 Z"/></g>
<g><path style="opacity:1" fill="#7e7e7e" d="M 1728.5,2818.5 C 1728.57,2820.03 1727.91,2821.03 1726.5,2821.5C 1726.43,2819.97 1727.09,2818.97 1728.5,2818.5 Z"/></g>
<g><path style="opacity:1" fill="#6d6d6d" d="M 1934.5,2822.5 C 1935.91,2822.97 1936.57,2823.97 1936.5,2825.5C 1935.09,2825.03 1934.43,2824.03 1934.5,2822.5 Z"/></g>
<g><path style="opacity:1" fill="#8e8e8e" d="M 1720.5,2834.5 C 1720.74,2836.9 1720.07,2838.9 1718.5,2840.5C 1718.26,2838.1 1718.93,2836.1 1720.5,2834.5 Z"/></g>
<g><path style="opacity:1" fill="#a7a7a7" d="M 1717.5,2842.5 C 1717.73,2846.92 1716.73,2850.92 1714.5,2854.5C 1714.72,2850.2 1715.72,2846.2 1717.5,2842.5 Z"/></g>
<g><path style="opacity:1" fill="#bcbcbc" d="M 1714.5,2854.5 C 1714.04,2867.16 1713.71,2879.83 1713.5,2892.5C 1712.83,2887.68 1712.5,2882.68 1712.5,2877.5C 1712.34,2869.61 1713.01,2861.94 1714.5,2854.5 Z"/></g>
<g><path style="opacity:1" fill="#cbcbcb" d="M 1714.5,2902.5 C 1717.01,2911.59 1719.01,2920.92 1720.5,2930.5C 1717.02,2921.6 1715.02,2912.27 1714.5,2902.5 Z"/></g>
<g><path style="opacity:1" fill="#9f9f9f" d="M 1723.5,2939.5 C 1725.25,2941.03 1726.25,2943.03 1726.5,2945.5C 1724.75,2943.97 1723.75,2941.97 1723.5,2939.5 Z"/></g>
<g><path style="opacity:1" fill="#a1a1a1" d="M 1795.5,3032.5 C 1798.43,3033.76 1800.76,3035.76 1802.5,3038.5C 1799.57,3037.24 1797.24,3035.24 1795.5,3032.5 Z"/></g>
<g><path style="opacity:1" fill="#a5a5a5" d="M 1806.5,3042.5 C 1808.75,3043.08 1810.42,3044.41 1811.5,3046.5C 1809.25,3045.92 1807.58,3044.59 1806.5,3042.5 Z"/></g>
<g><path style="opacity:1" fill="#a0a0a0" d="M 1815.5,3050.5 C 1817.75,3051.08 1819.42,3052.41 1820.5,3054.5C 1818.25,3053.92 1816.58,3052.59 1815.5,3050.5 Z"/></g>
<g><path style="opacity:1" fill="#a5a5a5" d="M 1822.5,3056.5 C 1825.43,3057.76 1827.76,3059.76 1829.5,3062.5C 1826.57,3061.24 1824.24,3059.24 1822.5,3056.5 Z"/></g>
<g><path style="opacity:1" fill="#9f9f9f" d="M 1833.5,3066.5 C 1835.75,3067.08 1837.42,3068.41 1838.5,3070.5C 1836.25,3069.92 1834.58,3068.59 1833.5,3066.5 Z"/></g>
<g><path style="opacity:1" fill="#9d9d9d" d="M 1852.5,3083.5 C 1855.43,3084.76 1857.76,3086.76 1859.5,3089.5C 1856.57,3088.24 1854.24,3086.24 1852.5,3083.5 Z"/></g>
</svg>
