<?xml version="1.0" encoding="UTF-8"?>
<!DOCTYPE svg PUBLIC "-//W3C//DTD SVG 1.1//EN" "http://www.w3.org/Graphics/SVG/1.1/DTD/svg11.dtd">
<svg xmlns="http://www.w3.org/2000/svg" version="1.1" width="2250px" height="3264px" style="shape-rendering:geometricPrecision; text-rendering:geometricPrecision; image-rendering:optimizeQuality; fill-rule:evenodd; clip-rule:evenodd" xmlns:xlink="http://www.w3.org/1999/xlink">
<g><path style="opacity:0.997" fill="#fefefe" d="M 75.5,21.5 C 775.5,21.3333 1475.5,21.5 2175.5,22C 2210.38,27.2115 2230.21,47.3782 2235,82.5C 2235.67,1115.5 2235.67,2148.5 2235,3181.5C 2230.27,3214.23 2211.77,3234.07 2179.5,3241C 1476.83,3241.67 774.167,3241.67 71.5,3241C 41.9734,3235.32 23.8068,3217.82 17,3188.5C 16.3333,2150.83 16.3333,1113.17 17,75.5C 20.7097,56.5735 30.5431,41.7402 46.5,31C 55.5588,25.7242 65.2255,22.5575 75.5,21.5 Z"/></g>
<g><path style="opacity:1" fill="#000000" d="M 438.5,217.5 C 439.585,219.587 441.251,220.92 443.5,221.5C 461.801,237.635 478.968,254.968 495,273.5C 509.759,291.349 520.592,311.349 527.5,333.5C 528.388,338.073 529.721,342.406 531.5,346.5C 531.846,351.216 532.513,355.883 533.5,360.5C 534.302,372.148 534.635,383.815 534.5,395.5C 532.474,408.968 528.807,421.968 523.5,434.5C 521.755,436.033 520.755,438.033 520.5,440.5C 511.52,455.32 500.186,468.153 486.5,479C 480.103,482.859 473.77,486.692 467.5,490.5C 463.376,491.399 459.709,493.066 456.5,495.5C 447.402,497.517 438.402,499.517 429.5,501.5C 418.482,501.619 407.482,501.286 396.5,500.5C 390.966,499.532 385.632,498.198 380.5,496.5C 379.486,495.326 378.153,494.66 376.5,494.5C 361.802,489.822 348.802,482.155 337.5,471.5C 333.5,466.833 329.167,462.5 324.5,458.5C 319.508,450.52 314.508,442.52 309.5,434.5C 297.117,459.549 278.451,478.216 253.5,490.5C 249.407,491.382 245.74,493.049 242.5,495.5C 233.055,497.532 223.722,499.532 214.5,501.5C 213.833,501.5 213.167,501.5 212.5,501.5C 201.424,501.73 190.424,501.063 179.5,499.5C 177.236,498.781 174.903,498.448 172.5,498.5C 170.898,496.926 168.898,496.259 166.5,496.5C 162.739,494.462 158.739,492.796 154.5,491.5C 122.28,476.27 100.614,451.603 89.5,417.5C 89.5905,414.848 88.9238,412.515 87.5,410.5C 87.3713,408.784 87.038,407.117 86.5,405.5C 86.473,399.949 85.8063,394.616 84.5,389.5C 84.2363,382.11 84.5696,374.777 85.5,367.5C 87.1042,363.1 87.7709,358.434 87.5,353.5C 93.1009,325.521 104.934,300.521 123,278.5C 152.46,245.385 184.293,214.885 218.5,187C 252.695,156.322 283.029,122.489 309.5,85.5C 334.111,118.619 361.778,149.119 392.5,177C 408.001,190.336 423.335,203.836 438.5,217.5 Z"/></g>
<g><path style="opacity:1" fill="#949494" d="M 438.5,217.5 C 440.749,218.08 442.415,219.413 443.5,221.5C 441.251,220.92 439.585,219.587 438.5,217.5 Z"/></g>
<g><path style="opacity:1" fill="#aeaeae" d="M 527.5,333.5 C 528.117,333.611 528.617,333.944 529,334.5C 530.154,338.447 530.987,342.447 531.5,346.5C 529.721,342.406 528.388,338.073 527.5,333.5 Z"/></g>
<g><path style="opacity:1" fill="#4a4a4a" d="M 87.5,353.5 C 87.7709,358.434 87.1042,363.1 85.5,367.5C 85.3618,362.586 86.0285,357.919 87.5,353.5 Z"/></g>
<g><path style="opacity:1" fill="#bcbcbc" d="M 533.5,360.5 C 535.03,367.097 535.697,373.93 535.5,381C 535.499,386.012 535.166,390.845 534.5,395.5C 534.635,383.815 534.302,372.148 533.5,360.5 Z"/></g>
<g><path style="opacity:1" fill="#acacac" d="M 84.5,389.5 C 85.8063,394.616 86.473,399.949 86.5,405.5C 84.9216,400.417 84.2549,395.084 84.5,389.5 Z"/></g>
<g><path style="opacity:1" fill="#9e9e9e" d="M 87.5,410.5 C 88.9238,412.515 89.5905,414.848 89.5,417.5C 88.0762,415.485 87.4095,413.152 87.5,410.5 Z"/></g>
<g><path style="opacity:1" fill="#8b8b8b" d="M 523.5,434.5 C 523.245,436.967 522.245,438.967 520.5,440.5C 520.755,438.033 521.755,436.033 523.5,434.5 Z"/></g>
<g><path style="opacity:1" fill="#ababab" d="M 324.5,458.5 C 329.167,462.5 333.5,466.833 337.5,471.5C 332.167,468.167 327.833,463.833 324.5,458.5 Z"/></g>
<g><path style="opacity:1" fill="#818181" d="M 154.5,491.5 C 158.739,492.796 162.739,494.462 166.5,496.5C 161.913,495.979 157.913,494.312 154.5,491.5 Z"/></g>
<g><path style="opacity:1" fill="#aeaeae" d="M 467.5,490.5 C 464.668,493.755 461.001,495.422 456.5,495.5C 459.709,493.066 463.376,491.399 467.5,490.5 Z"/></g>
<g><path style="opacity:1" fill="#adadad" d="M 253.5,490.5 C 250.503,493.496 246.836,495.163 242.5,495.5C 245.74,493.049 249.407,491.382 253.5,490.5 Z"/></g>
<g><path style="opacity:1" fill="#787878" d="M 376.5,494.5 C 378.153,494.66 379.486,495.326 380.5,496.5C 378.62,496.771 377.287,496.104 376.5,494.5 Z"/></g>
<g><path style="opacity:1" fill="#868686" d="M 166.5,496.5 C 168.898,496.259 170.898,496.926 172.5,498.5C 170.102,498.741 168.102,498.074 166.5,496.5 Z"/></g>
<g><path style="opacity:1" fill="#999999" d="M 242.5,495.5 C 233.754,499.616 224.42,501.616 214.5,501.5C 223.722,499.532 233.055,497.532 242.5,495.5 Z"/></g>
<g><path style="opacity:1" fill="#636363" d="M 179.5,499.5 C 190.424,501.063 201.424,501.73 212.5,501.5C 205.011,502.656 197.345,502.822 189.5,502C 185.962,501.465 182.628,500.632 179.5,499.5 Z"/></g>
<g><path style="opacity:1" fill="#9d9d9d" d="M 396.5,500.5 C 407.482,501.286 418.482,501.619 429.5,501.5C 419.342,502.659 409.008,502.825 398.5,502C 397.584,501.722 396.918,501.222 396.5,500.5 Z"/></g>
<g><path style="opacity:1" fill="#676767" d="M 1131.5,921.5 C 1130.5,921.586 1129.67,921.252 1129,920.5C 1128.77,921.737 1128.27,922.737 1127.5,923.5C 1127.5,922.167 1127.5,920.833 1127.5,919.5C 1129.38,919.229 1130.71,919.896 1131.5,921.5 Z"/></g>
<g><path style="opacity:1" fill="#000000" d="M 1131.5,921.5 C 1132.51,923.544 1133.51,925.544 1134.5,927.5C 1135.67,929.279 1137.34,930.279 1139.5,930.5C 1139.34,931.873 1139.51,933.207 1140,934.5C 1140.74,936.889 1141.91,938.889 1143.5,940.5C 1143.99,942.819 1144.99,944.819 1146.5,946.5C 1147.05,948.532 1148.38,949.532 1150.5,949.5C 1150.23,951.099 1150.57,952.432 1151.5,953.5C 1153.05,958.355 1155.71,962.355 1159.5,965.5C 1160.43,966.568 1160.77,967.901 1160.5,969.5C 1163.84,972.804 1166.01,976.804 1167,981.5C 1168.13,983.141 1169.63,984.141 1171.5,984.5C 1171.34,985.873 1171.51,987.207 1172,988.5C 1172.74,990.596 1173.9,992.263 1175.5,993.5C 1176.75,996.009 1177.75,998.675 1178.5,1001.5C 1179.42,1002.13 1180.42,1002.46 1181.5,1002.5C 1183.22,1003.61 1184.22,1005.27 1184.5,1007.5C 1186.65,1011.19 1188.65,1014.85 1190.5,1018.5C 1191.61,1018.56 1192.61,1018.89 1193.5,1019.5C 1195.01,1021.52 1195.85,1023.85 1196,1026.5C 1199.01,1031.33 1202.51,1035.66 1206.5,1039.5C 1206.5,1039.83 1206.5,1040.17 1206.5,1040.5C 1207.8,1042.41 1208.8,1044.41 1209.5,1046.5C 1211.56,1048.37 1212.9,1050.7 1213.5,1053.5C 1215.59,1055.6 1217.92,1057.27 1220.5,1058.5C 1220.08,1060.78 1220.74,1062.45 1222.5,1063.5C 1223.51,1065.54 1224.51,1067.54 1225.5,1069.5C 1227.94,1071.16 1229.44,1073.5 1230,1076.5C 1231.13,1078.14 1232.63,1079.14 1234.5,1079.5C 1234.08,1081.78 1234.74,1083.45 1236.5,1084.5C 1236.99,1086.82 1237.99,1088.82 1239.5,1090.5C 1242.27,1093.26 1244.61,1096.26 1246.5,1099.5C 1247.83,1101.5 1249.5,1103.17 1251.5,1104.5C 1251.63,1108.62 1253.63,1111.29 1257.5,1112.5C 1257.99,1114.82 1258.99,1116.82 1260.5,1118.5C 1263.27,1121.26 1265.61,1124.26 1267.5,1127.5C 1268.83,1129.5 1270.5,1131.17 1272.5,1132.5C 1272.83,1132.5 1273.17,1132.5 1273.5,1132.5C 1273.34,1134.2 1273.51,1135.87 1274,1137.5C 1277.81,1140.79 1280.97,1144.46 1283.5,1148.5C 1286.66,1151.64 1289.33,1154.97 1291.5,1158.5C 1296.08,1161.72 1299.42,1165.72 1301.5,1170.5C 1302.83,1173.83 1305.17,1176.17 1308.5,1177.5C 1308.34,1178.87 1308.51,1180.21 1309,1181.5C 1314.25,1186.22 1318.75,1191.22 1322.5,1196.5C 1324.83,1199.5 1327.5,1202.17 1330.5,1204.5C 1335.03,1211.71 1340.7,1218.04 1347.5,1223.5C 1348.43,1224.69 1348.76,1226.02 1348.5,1227.5C 1353.13,1232.63 1357.96,1237.63 1363,1242.5C 1365.9,1247.57 1369.73,1251.9 1374.5,1255.5C 1376.5,1258.17 1378.83,1260.5 1381.5,1262.5C 1383.5,1265.17 1385.83,1267.5 1388.5,1269.5C 1390.7,1271.26 1391.87,1273.6 1392,1276.5C 1392.67,1277.25 1393.5,1277.59 1394.5,1277.5C 1425.25,1309.75 1456.58,1341.58 1488.5,1373C 1491.31,1374.32 1493.98,1375.82 1496.5,1377.5C 1497.83,1380.83 1500.17,1383.17 1503.5,1384.5C 1506.17,1386.5 1508.5,1388.83 1510.5,1391.5C 1512.2,1395.42 1515.2,1397.75 1519.5,1398.5C 1521.5,1399.83 1523.17,1401.5 1524.5,1403.5C 1532.17,1411.83 1540.17,1419.83 1548.5,1427.5C 1550.5,1430.17 1552.83,1432.5 1555.5,1434.5C 1558.66,1437.64 1561.33,1440.97 1563.5,1444.5C 1564.17,1447.17 1565.83,1448.83 1568.5,1449.5C 1569.83,1452.83 1572.17,1455.17 1575.5,1456.5C 1577.18,1459.02 1578.68,1461.69 1580,1464.5C 1580.67,1465.25 1581.5,1465.59 1582.5,1465.5C 1583.83,1468.83 1586.17,1471.17 1589.5,1472.5C 1589.34,1473.87 1589.51,1475.21 1590,1476.5C 1593.81,1479.79 1596.97,1483.46 1599.5,1487.5C 1600.83,1489.5 1602.5,1491.17 1604.5,1492.5C 1606.93,1494.96 1608.93,1497.63 1610.5,1500.5C 1611.8,1502.41 1612.8,1504.41 1613.5,1506.5C 1616.66,1509.64 1619.33,1512.97 1621.5,1516.5C 1622.51,1518.37 1623.34,1520.37 1624,1522.5C 1624.67,1523.25 1625.5,1523.59 1626.5,1523.5C 1627.51,1525.54 1628.51,1527.54 1629.5,1529.5C 1631.13,1531.63 1632.96,1533.63 1635,1535.5C 1635.2,1539.19 1637.03,1541.52 1640.5,1542.5C 1640.5,1543.83 1640.5,1545.17 1640.5,1546.5C 1641.5,1546.5 1642.5,1546.5 1643.5,1546.5C 1643.34,1548.2 1643.51,1549.87 1644,1551.5C 1646.16,1553.14 1647.66,1555.14 1648.5,1557.5C 1648.63,1561.62 1650.63,1564.29 1654.5,1565.5C 1654.62,1568.58 1655.62,1571.24 1657.5,1573.5C 1660.68,1576.86 1662.68,1580.86 1663.5,1585.5C 1664.5,1585.5 1665.5,1585.5 1666.5,1585.5C 1666.23,1587.1 1666.57,1588.43 1667.5,1589.5C 1668.4,1593.08 1669.73,1596.41 1671.5,1599.5C 1672.21,1602.68 1673.38,1605.68 1675,1608.5C 1675.67,1609.25 1676.5,1609.59 1677.5,1609.5C 1678.84,1614.53 1680.34,1619.53 1682,1624.5C 1682.67,1625.25 1683.5,1625.59 1684.5,1625.5C 1684.5,1626.83 1684.5,1628.17 1684.5,1629.5C 1685.5,1629.5 1686.5,1629.5 1687.5,1629.5C 1686.96,1632.7 1687.63,1635.36 1689.5,1637.5C 1690.5,1642.68 1692,1647.68 1694,1652.5C 1694.67,1653.25 1695.5,1653.59 1696.5,1653.5C 1695.99,1656.39 1696.66,1658.72 1698.5,1660.5C 1698.83,1664.91 1699.66,1669.25 1701,1673.5C 1701.38,1674.06 1701.88,1674.39 1702.5,1674.5C 1701.79,1680.88 1703.29,1686.54 1707,1691.5C 1707.18,1694.36 1707.68,1697.03 1708.5,1699.5C 1709.24,1702.41 1709.74,1705.41 1710,1708.5C 1710.67,1709.25 1711.5,1709.59 1712.5,1709.5C 1713.82,1724.02 1715.48,1738.35 1717.5,1752.5C 1717.5,1753.17 1717.83,1753.5 1718.5,1753.5C 1718.67,1777.84 1718.5,1802.17 1718,1826.5C 1716.55,1831.98 1716.05,1837.65 1716.5,1843.5C 1714.93,1847.22 1713.77,1851.22 1713,1855.5C 1712.5,1859.15 1712.33,1862.82 1712.5,1866.5C 1711.5,1866.5 1710.5,1866.5 1709.5,1866.5C 1708.36,1871.7 1707.69,1877.04 1707.5,1882.5C 1706.5,1882.41 1705.67,1882.75 1705,1883.5C 1703.39,1889.49 1701.89,1895.49 1700.5,1901.5C 1699.02,1903.06 1697.52,1904.73 1696,1906.5C 1695.59,1910.35 1694.75,1914.02 1693.5,1917.5C 1691.97,1918.8 1690.97,1920.47 1690.5,1922.5C 1688.9,1923.74 1687.74,1925.4 1687,1927.5C 1686.51,1928.79 1686.34,1930.13 1686.5,1931.5C 1685.17,1933.17 1683.83,1934.83 1682.5,1936.5C 1680.11,1939.65 1678.45,1943.31 1677.5,1947.5C 1676.5,1947.41 1675.67,1947.75 1675,1948.5C 1674.94,1951.56 1673.61,1953.89 1671,1955.5C 1670.51,1956.79 1670.34,1958.13 1670.5,1959.5C 1665.67,1961.67 1662.67,1965.33 1661.5,1970.5C 1658.03,1971.48 1656.2,1973.81 1656,1977.5C 1651.99,1981.68 1647.82,1985.68 1643.5,1989.5C 1642.55,1991.05 1642.21,1992.71 1642.5,1994.5C 1641.13,1994.34 1639.79,1994.51 1638.5,1995C 1630.91,2002.09 1623.91,2009.59 1617.5,2017.5C 1615.71,2017.21 1614.05,2017.55 1612.5,2018.5C 1609.4,2020.59 1607.07,2023.26 1605.5,2026.5C 1601.76,2026.24 1599.43,2027.91 1598.5,2031.5C 1595.4,2031.09 1593.07,2032.26 1591.5,2035C 1587.81,2035.2 1585.48,2037.03 1584.5,2040.5C 1580.76,2040.24 1578.43,2041.91 1577.5,2045.5C 1574.5,2046.17 1571.5,2046.83 1568.5,2047.5C 1568.5,2048.5 1568.5,2049.5 1568.5,2050.5C 1567.21,2050.26 1566.21,2050.6 1565.5,2051.5C 1562.99,2051.77 1560.99,2052.77 1559.5,2054.5C 1554.16,2055.31 1549.5,2057.31 1545.5,2060.5C 1545.5,2060.83 1545.5,2061.17 1545.5,2061.5C 1543.83,2061.5 1542.17,2061.5 1540.5,2061.5C 1540.5,2062.5 1540.5,2063.5 1540.5,2064.5C 1538.47,2064.34 1536.47,2064.5 1534.5,2065C 1531.5,2065.75 1528.83,2066.92 1526.5,2068.5C 1520.54,2070.05 1514.54,2071.38 1508.5,2072.5C 1508.5,2073.5 1508.5,2074.5 1508.5,2075.5C 1505.48,2075.34 1502.48,2075.5 1499.5,2076C 1495.86,2076.76 1492.53,2077.93 1489.5,2079.5C 1482.48,2081.33 1475.48,2082.99 1468.5,2084.5C 1456.84,2085.67 1445.17,2086.83 1433.5,2088C 1411.79,2088.81 1390.12,2088.64 1368.5,2087.5C 1365.4,2086.18 1361.9,2085.51 1358,2085.5C 1349.51,2084.97 1341.01,2084.63 1332.5,2084.5C 1332.39,2083.88 1332.06,2083.38 1331.5,2083C 1323.27,2083.3 1315.6,2081.8 1308.5,2078.5C 1302.8,2076.59 1296.8,2075.59 1290.5,2075.5C 1285.63,2073.23 1280.29,2071.89 1274.5,2071.5C 1274.59,2070.5 1274.25,2069.67 1273.5,2069C 1261.02,2066.13 1249.02,2062.3 1237.5,2057.5C 1237.59,2056.5 1237.25,2055.67 1236.5,2055C 1231.19,2053.5 1225.86,2052 1220.5,2050.5C 1220.5,2049.5 1220.5,2048.5 1220.5,2047.5C 1218.05,2047.7 1215.72,2047.37 1213.5,2046.5C 1212.43,2045.57 1211.1,2045.23 1209.5,2045.5C 1209.59,2044.5 1209.25,2043.67 1208.5,2043C 1205.68,2041.38 1202.68,2040.21 1199.5,2039.5C 1197.22,2037.97 1194.89,2036.3 1192.5,2034.5C 1190.45,2034.63 1188.78,2033.97 1187.5,2032.5C 1186,2031.69 1184.34,2031.03 1182.5,2030.5C 1182.17,2030.83 1181.83,2031.17 1181.5,2031.5C 1182.43,2035.43 1182.77,2039.43 1182.5,2043.5C 1183.5,2043.5 1184.5,2043.5 1185.5,2043.5C 1184.93,2047.33 1185.6,2050.66 1187.5,2053.5C 1188.17,2059.5 1188.83,2065.5 1189.5,2071.5C 1190.5,2071.5 1191.5,2071.5 1192.5,2071.5C 1192.34,2074.52 1192.5,2077.52 1193,2080.5C 1194.23,2083.3 1194.9,2086.3 1195,2089.5C 1195.38,2090.06 1195.88,2090.39 1196.5,2090.5C 1196.37,2096.03 1197.04,2101.36 1198.5,2106.5C 1199.5,2106.5 1200.5,2106.5 1201.5,2106.5C 1202.48,2109.29 1202.81,2112.29 1202.5,2115.5C 1203.37,2117.72 1203.7,2120.05 1203.5,2122.5C 1204.5,2122.5 1205.5,2122.5 1206.5,2122.5C 1207.5,2127.73 1208.33,2133.06 1209,2138.5C 1211.31,2143.55 1213.48,2148.55 1215.5,2153.5C 1216.68,2160.22 1218.18,2166.88 1220,2173.5C 1220.38,2174.06 1220.88,2174.39 1221.5,2174.5C 1223.76,2180.25 1225.6,2186.25 1227,2192.5C 1227.74,2194.32 1228.91,2195.65 1230.5,2196.5C 1232.26,2200.3 1233.6,2204.3 1234.5,2208.5C 1235.69,2210.36 1237.02,2212.03 1238.5,2213.5C 1239.86,2216.75 1241.52,2219.75 1243.5,2222.5C 1244.07,2228.26 1246.4,2232.93 1250.5,2236.5C 1251.84,2241.2 1253.17,2245.87 1254.5,2250.5C 1255.5,2250.5 1256.5,2250.5 1257.5,2250.5C 1258.26,2254.44 1259.76,2258.11 1262,2261.5C 1262.67,2262.25 1263.5,2262.59 1264.5,2262.5C 1265.52,2264.54 1266.52,2266.54 1267.5,2268.5C 1270.01,2270.98 1272.01,2273.64 1273.5,2276.5C 1274.51,2278.54 1275.51,2280.54 1276.5,2282.5C 1277.83,2284.5 1279.5,2286.17 1281.5,2287.5C 1281.83,2287.5 1282.17,2287.5 1282.5,2287.5C 1282.34,2289.2 1282.51,2290.87 1283,2292.5C 1283.67,2293.25 1284.5,2293.59 1285.5,2293.5C 1287.13,2295.63 1288.96,2297.63 1291,2299.5C 1291.33,2300.83 1291.67,2302.17 1292,2303.5C 1292.67,2304.25 1293.5,2304.59 1294.5,2304.5C 1297.4,2308.9 1300.9,2312.9 1305,2316.5C 1305.06,2318.91 1306.22,2320.24 1308.5,2320.5C 1311.79,2324.45 1315.45,2328.12 1319.5,2331.5C 1321.61,2337.29 1325.27,2341.95 1330.5,2345.5C 1332.99,2347.81 1334.99,2350.48 1336.5,2353.5C 1337.83,2355.17 1339.17,2356.83 1340.5,2358.5C 1272.67,2359.83 1204.5,2360.5 1136,2360.5C 1067.5,2360.5 999.33,2359.83 931.5,2358.5C 931.833,2357.83 932.167,2357.17 932.5,2356.5C 935.064,2352.59 938.064,2348.92 941.5,2345.5C 942.765,2343.21 944.098,2340.88 945.5,2338.5C 945.833,2338.5 946.167,2338.5 946.5,2338.5C 947.765,2336.21 949.098,2333.88 950.5,2331.5C 951.434,2330.43 951.768,2329.1 951.5,2327.5C 954.089,2326.58 956.089,2324.91 957.5,2322.5C 960.308,2318.9 962.641,2314.9 964.5,2310.5C 966.69,2309.03 968.023,2307.03 968.5,2304.5C 974.06,2299.97 978.06,2294.31 980.5,2287.5C 980.991,2284.34 982.658,2282.01 985.5,2280.5C 987.46,2277.37 989.127,2274.04 990.5,2270.5C 991.458,2270.05 992.292,2269.38 993,2268.5C 994.591,2266.07 995.425,2263.41 995.5,2260.5C 996.5,2260.5 997.5,2260.5 998.5,2260.5C 999.444,2257.19 1000.44,2253.86 1001.5,2250.5C 1002.43,2249.43 1002.77,2248.1 1002.5,2246.5C 1003.5,2246.5 1004.5,2246.5 1005.5,2246.5C 1006.44,2243.19 1007.44,2239.86 1008.5,2236.5C 1009.43,2235.43 1009.77,2234.1 1009.5,2232.5C 1010.5,2232.5 1011.5,2232.5 1012.5,2232.5C 1013.44,2229.19 1014.44,2225.86 1015.5,2222.5C 1016.31,2218.66 1017.65,2215 1019.5,2211.5C 1022.13,2206.4 1024.46,2201.07 1026.5,2195.5C 1027.5,2195.5 1028.5,2195.5 1029.5,2195.5C 1029.5,2192.83 1029.5,2190.17 1029.5,2187.5C 1032.46,2182.6 1034.8,2177.27 1036.5,2171.5C 1038.38,2164.42 1040.71,2157.42 1043.5,2150.5C 1044.27,2148.29 1044.93,2145.95 1045.5,2143.5C 1045.92,2140.84 1046.92,2138.51 1048.5,2136.5C 1049.27,2134.29 1049.93,2131.95 1050.5,2129.5C 1051.27,2127.29 1051.93,2124.95 1052.5,2122.5C 1052.98,2119.92 1053.98,2117.59 1055.5,2115.5C 1056.46,2113.74 1056.79,2111.74 1056.5,2109.5C 1057.5,2109.5 1058.5,2109.5 1059.5,2109.5C 1061.63,2102.19 1063.63,2094.86 1065.5,2087.5C 1065.34,2084.81 1065.5,2082.15 1066,2079.5C 1066.75,2076.5 1067.92,2073.83 1069.5,2071.5C 1070.27,2069.29 1070.93,2066.95 1071.5,2064.5C 1075.01,2053.74 1078.34,2042.57 1081.5,2031C 1081.17,2030.5 1080.83,2030 1080.5,2029.5C 1076.27,2030.79 1072.6,2032.79 1069.5,2035.5C 1067.44,2037.59 1065.1,2039.26 1062.5,2040.5C 1057.16,2041.31 1052.5,2043.31 1048.5,2046.5C 1043.95,2049.17 1039.29,2051.83 1034.5,2054.5C 1029.17,2055.83 1023.83,2057.17 1018.5,2058.5C 1018.5,2059.5 1018.5,2060.5 1018.5,2061.5C 1016.83,2061.5 1015.17,2061.5 1013.5,2061.5C 1013.5,2062.5 1013.5,2063.5 1013.5,2064.5C 1011.47,2064.34 1009.47,2064.5 1007.5,2065C 1004.5,2065.75 1001.83,2066.92 999.5,2068.5C 993.539,2070.05 987.539,2071.38 981.5,2072.5C 981.5,2073.5 981.5,2074.5 981.5,2075.5C 978.612,2074.99 976.279,2075.66 974.5,2077.5C 971.482,2077.34 968.482,2077.5 965.5,2078C 959.957,2080.61 954.29,2082.78 948.5,2084.5C 941.479,2086.33 934.479,2087.99 927.5,2089.5C 923.818,2089.33 920.152,2089.5 916.5,2090C 911.564,2090.77 906.898,2091.94 902.5,2093.5C 895.5,2094.17 888.5,2094.83 881.5,2095.5C 854.456,2095.82 827.456,2095.48 800.5,2094.5C 795.651,2093.83 790.651,2093.17 785.5,2092.5C 785.291,2091.91 784.957,2091.41 784.5,2091C 778.785,2090.74 773.118,2090.24 767.5,2089.5C 761.016,2088.06 754.349,2087.39 747.5,2087.5C 747.586,2086.5 747.252,2085.67 746.5,2085C 739.24,2083.4 731.906,2081.9 724.5,2080.5C 724.586,2079.5 724.252,2078.67 723.5,2078C 721.08,2077.71 718.746,2077.21 716.5,2076.5C 712.343,2075.02 708.01,2073.69 703.5,2072.5C 700.636,2069.99 697.303,2068.32 693.5,2067.5C 689.947,2066.44 686.281,2065.44 682.5,2064.5C 682.586,2063.5 682.252,2062.67 681.5,2062C 679.073,2060.41 676.407,2059.58 673.5,2059.5C 672.952,2056.92 671.285,2055.92 668.5,2056.5C 665.373,2053.77 661.706,2051.77 657.5,2050.5C 657.167,2050.5 656.833,2050.5 656.5,2050.5C 656.5,2049.5 656.5,2048.5 656.5,2047.5C 654.708,2047.63 653.042,2047.3 651.5,2046.5C 649.446,2046.63 647.779,2045.97 646.5,2044.5C 646.029,2043.1 645.362,2041.77 644.5,2040.5C 641.802,2039.17 639.135,2037.83 636.5,2036.5C 627.631,2032.49 620.298,2026.32 614.5,2018C 613.167,2017.67 611.833,2017.33 610.5,2017C 604.631,2010.96 598.631,2005.13 592.5,1999.5C 591.213,1996.55 589.213,1994.21 586.5,1992.5C 583.635,1988.28 580.302,1984.28 576.5,1980.5C 575.631,1976.97 573.631,1974.3 570.5,1972.5C 568.972,1967.99 566.639,1963.99 563.5,1960.5C 560.994,1958.02 558.994,1955.36 557.5,1952.5C 557.658,1949.48 556.325,1947.48 553.5,1946.5C 552.833,1944.83 552.167,1943.17 551.5,1941.5C 550.909,1938.07 549.575,1935.07 547.5,1932.5C 545.584,1928.9 544.25,1924.9 543.5,1920.5C 542.5,1920.5 541.5,1920.5 540.5,1920.5C 539.475,1916.57 538.808,1912.57 538.5,1908.5C 535.764,1901.63 533.431,1894.63 531.5,1887.5C 530.833,1887.5 530.167,1887.5 529.5,1887.5C 528.833,1881.17 528.167,1874.83 527.5,1868.5C 526.5,1868.5 525.5,1868.5 524.5,1868.5C 524.815,1864.63 524.482,1860.96 523.5,1857.5C 523.167,1857.5 522.833,1857.5 522.5,1857.5C 523.134,1849.1 522.467,1841.1 520.5,1833.5C 519.338,1815.67 519.171,1797.67 520,1779.5C 520.383,1778.94 520.883,1778.61 521.5,1778.5C 522.218,1768.17 523.385,1757.83 525,1747.5C 525.667,1746.83 526.333,1746.17 527,1745.5C 528.681,1734.67 530.514,1724 532.5,1713.5C 534.282,1709.01 535.948,1704.34 537.5,1699.5C 538.268,1697.29 538.935,1694.95 539.5,1692.5C 539.98,1689.92 540.98,1687.59 542.5,1685.5C 543.268,1683.29 543.935,1680.95 544.5,1678.5C 545.268,1676.29 545.935,1673.95 546.5,1671.5C 547.461,1669.74 547.795,1667.74 547.5,1665.5C 548.5,1665.5 549.5,1665.5 550.5,1665.5C 550.924,1661.99 551.924,1658.65 553.5,1655.5C 554.391,1651.85 555.391,1648.18 556.5,1644.5C 557.5,1644.5 558.5,1644.5 559.5,1644.5C 560.448,1638.11 562.448,1632.11 565.5,1626.5C 567.812,1625.23 569.145,1623.23 569.5,1620.5C 572.717,1616.38 575.051,1611.71 576.5,1606.5C 577.494,1603.88 578.494,1601.21 579.5,1598.5C 581.569,1595.71 583.902,1593.05 586.5,1590.5C 587.429,1589.31 587.762,1587.98 587.5,1586.5C 588.5,1586.5 589.5,1586.5 590.5,1586.5C 590.016,1583.21 591.016,1580.55 593.5,1578.5C 594.765,1576.21 596.098,1573.88 597.5,1571.5C 599.255,1569.2 600.422,1566.53 601,1563.5C 602.512,1562.74 603.846,1561.74 605,1560.5C 605.236,1558.19 606.069,1556.19 607.5,1554.5C 609.569,1551.71 611.902,1549.05 614.5,1546.5C 617.303,1542.38 619.636,1538.05 621.5,1533.5C 625.028,1530.14 628.028,1526.47 630.5,1522.5C 631.708,1521.77 633.041,1521.43 634.5,1521.5C 634.016,1518.21 635.016,1515.55 637.5,1513.5C 639.414,1509.91 641.748,1506.58 644.5,1503.5C 645.5,1503.17 646.167,1502.5 646.5,1501.5C 647.717,1498.93 649.384,1496.6 651.5,1494.5C 651.5,1493.17 652.167,1492.5 653.5,1492.5C 655.975,1491.31 656.975,1489.31 656.5,1486.5C 657.5,1486.5 658.5,1486.5 659.5,1486.5C 661.041,1483.61 663.041,1480.94 665.5,1478.5C 666.865,1476.41 667.532,1474.08 667.5,1471.5C 671.332,1470.35 674.332,1468.01 676.5,1464.5C 679.325,1463.52 680.658,1461.52 680.5,1458.5C 682.134,1457.79 683.468,1456.63 684.5,1455C 685.448,1454.52 686.448,1454.35 687.5,1454.5C 687.433,1453.04 687.766,1451.71 688.5,1450.5C 690.053,1448.62 692.053,1447.62 694.5,1447.5C 694.433,1446.04 694.766,1444.71 695.5,1443.5C 697.5,1442.17 699.167,1440.5 700.5,1438.5C 700.5,1437.17 701.167,1436.5 702.5,1436.5C 704.296,1435.21 705.963,1433.71 707.5,1432C 708.448,1431.52 709.448,1431.35 710.5,1431.5C 711.84,1427.49 713.84,1423.82 716.5,1420.5C 716.5,1420.17 716.5,1419.83 716.5,1419.5C 719.447,1418.22 721.781,1416.22 723.5,1413.5C 723.5,1413.17 723.5,1412.83 723.5,1412.5C 726.447,1411.22 728.781,1409.22 730.5,1406.5C 730.5,1406.17 730.5,1405.83 730.5,1405.5C 733.447,1404.22 735.781,1402.22 737.5,1399.5C 739.565,1399.05 741.232,1398.05 742.5,1396.5C 743.5,1396.5 744.5,1396.5 745.5,1396.5C 745.433,1395.04 745.766,1393.71 746.5,1392.5C 748.5,1391.17 750.167,1389.5 751.5,1387.5C 751.5,1386.17 752.167,1385.5 753.5,1385.5C 755.5,1384.17 757.167,1382.5 758.5,1380.5C 758.5,1379.17 759.167,1378.5 760.5,1378.5C 763.167,1376.5 765.5,1374.17 767.5,1371.5C 770.167,1369.5 772.5,1367.17 774.5,1364.5C 777.167,1362.5 779.5,1360.17 781.5,1357.5C 784.167,1355.5 786.5,1353.17 788.5,1350.5C 791.167,1348.5 793.5,1346.17 795.5,1343.5C 795.5,1342.17 796.167,1341.5 797.5,1341.5C 799.5,1340.17 801.167,1338.5 802.5,1336.5C 802.5,1335.17 803.167,1334.5 804.5,1334.5C 806.5,1333.17 808.167,1331.5 809.5,1329.5C 809.5,1328.17 810.167,1327.5 811.5,1327.5C 813.5,1326.17 815.167,1324.5 816.5,1322.5C 817.641,1320.91 819.141,1319.58 821,1318.5C 821.21,1316.94 821.71,1315.61 822.5,1314.5C 828.843,1309.16 834.509,1303.16 839.5,1296.5C 840.5,1296.17 841.167,1295.5 841.5,1294.5C 844.833,1293.17 847.167,1290.83 848.5,1287.5C 850.754,1286.88 852.421,1285.54 853.5,1283.5C 855.317,1279.89 857.65,1276.56 860.5,1273.5C 861.5,1273.17 862.167,1272.5 862.5,1271.5C 864.5,1270.17 866.167,1268.5 867.5,1266.5C 871.7,1263.65 874.7,1259.98 876.5,1255.5C 879.167,1253.5 881.5,1251.17 883.5,1248.5C 886.167,1246.5 888.5,1244.17 890.5,1241.5C 893.44,1237.55 896.44,1233.55 899.5,1229.5C 901.754,1228.88 903.421,1227.54 904.5,1225.5C 906.317,1221.89 908.65,1218.56 911.5,1215.5C 911.5,1214.17 912.167,1213.5 913.5,1213.5C 918.356,1206.97 924.022,1200.97 930.5,1195.5C 931.206,1193.3 932.206,1191.3 933.5,1189.5C 935.736,1188.61 937.736,1187.28 939.5,1185.5C 940.099,1182.12 941.432,1179.12 943.5,1176.5C 945.5,1175.17 947.167,1173.5 948.5,1171.5C 950.58,1168.36 952.913,1165.36 955.5,1162.5C 960.005,1158.53 963.672,1153.87 966.5,1148.5C 970.223,1144.11 973.557,1139.44 976.5,1134.5C 979.167,1132.5 981.5,1130.17 983.5,1127.5C 983.392,1125.49 984.058,1123.82 985.5,1122.5C 987.754,1121.88 989.421,1120.54 990.5,1118.5C 993.116,1114.05 995.949,1109.71 999,1105.5C 1001.7,1102.96 1004.2,1100.3 1006.5,1097.5C 1008.1,1093.99 1010.43,1090.99 1013.5,1088.5C 1013.5,1086.83 1013.5,1085.17 1013.5,1083.5C 1014.55,1083.65 1015.55,1083.48 1016.5,1083C 1017.76,1080.7 1019.09,1078.53 1020.5,1076.5C 1022.15,1075.19 1023.81,1073.86 1025.5,1072.5C 1028.23,1068.13 1030.89,1063.79 1033.5,1059.5C 1037.44,1058.38 1039.27,1055.71 1039,1051.5C 1040.04,1050.63 1040.88,1049.63 1041.5,1048.5C 1043.39,1045.26 1045.73,1042.26 1048.5,1039.5C 1049.76,1037.21 1051.1,1034.88 1052.5,1032.5C 1054.75,1029.57 1057.08,1026.57 1059.5,1023.5C 1060.42,1020.68 1062.08,1018.35 1064.5,1016.5C 1065.1,1013.83 1066.44,1011.49 1068.5,1009.5C 1070.03,1007.22 1071.7,1004.89 1073.5,1002.5C 1077.26,998.392 1080.26,993.725 1082.5,988.5C 1083.42,985.679 1085.08,983.346 1087.5,981.5C 1088.72,978.933 1090.38,976.6 1092.5,974.5C 1093.76,972.209 1095.1,969.875 1096.5,967.5C 1097.17,966.167 1097.83,964.833 1098.5,963.5C 1102.67,963.154 1104.5,960.82 1104,956.5C 1105.04,955.627 1105.88,954.627 1106.5,953.5C 1107.76,951.209 1109.1,948.875 1110.5,946.5C 1111.17,945.167 1111.83,943.833 1112.5,942.5C 1114.01,941.498 1115.68,940.831 1117.5,940.5C 1117.02,937.212 1118.02,934.545 1120.5,932.5C 1121.76,930.209 1123.1,927.875 1124.5,925.5C 1125.5,924.833 1126.5,924.167 1127.5,923.5C 1128.27,922.737 1128.77,921.737 1129,920.5C 1129.67,921.252 1130.5,921.586 1131.5,921.5 Z"/></g>
<g><path style="opacity:1" fill="#535353" d="M 1131.5,921.5 C 1133.98,922.687 1134.98,924.687 1134.5,927.5C 1133.51,925.544 1132.51,923.544 1131.5,921.5 Z"/></g>
<g><path style="opacity:1" fill="#747474" d="M 1124.5,925.5 C 1123.1,927.875 1121.76,930.209 1120.5,932.5C 1120.22,929.143 1121.55,926.809 1124.5,925.5 Z"/></g>
<g><path style="opacity:1" fill="#5c5c5c" d="M 1120.5,932.5 C 1118.02,934.545 1117.02,937.212 1117.5,940.5C 1115.68,940.831 1114.01,941.498 1112.5,942.5C 1114.18,940.467 1115.35,938.134 1116,935.5C 1117.13,933.859 1118.63,932.859 1120.5,932.5 Z"/></g>
<g><path style="opacity:1" fill="#515151" d="M 1143.5,940.5 C 1145.98,941.687 1146.98,943.687 1146.5,946.5C 1144.99,944.819 1143.99,942.819 1143.5,940.5 Z"/></g>
<g><path style="opacity:1" fill="#777777" d="M 1110.5,946.5 C 1109.1,948.875 1107.76,951.209 1106.5,953.5C 1106.22,950.143 1107.55,947.809 1110.5,946.5 Z"/></g>
<g><path style="opacity:1" fill="#7b7b7b" d="M 1146.5,946.5 C 1150.85,946.854 1152.51,949.187 1151.5,953.5C 1150.57,952.432 1150.23,951.099 1150.5,949.5C 1148.38,949.532 1147.05,948.532 1146.5,946.5 Z"/></g>
<g><path style="opacity:1" fill="#696969" d="M 1151.5,953.5 C 1152.83,956.2 1154.83,958.534 1157.5,960.5C 1158.32,962.139 1158.99,963.805 1159.5,965.5C 1155.71,962.355 1153.05,958.355 1151.5,953.5 Z"/></g>
<g><path style="opacity:1" fill="#464646" d="M 1106.5,953.5 C 1105.88,954.627 1105.04,955.627 1104,956.5C 1104.5,960.82 1102.67,963.154 1098.5,963.5C 1100.18,961.467 1101.35,959.134 1102,956.5C 1103.13,954.859 1104.63,953.859 1106.5,953.5 Z"/></g>
<g><path style="opacity:1" fill="#797979" d="M 1096.5,967.5 C 1095.1,969.875 1093.76,972.209 1092.5,974.5C 1092.22,971.143 1093.55,968.809 1096.5,967.5 Z"/></g>
<g><path style="opacity:1" fill="#b2b2b2" d="M 1160.5,969.5 C 1162.44,969.869 1164.27,970.536 1166,971.5C 1167.38,976.044 1169.22,980.377 1171.5,984.5C 1169.63,984.141 1168.13,983.141 1167,981.5C 1166.01,976.804 1163.84,972.804 1160.5,969.5 Z"/></g>
<g><path style="opacity:1" fill="#8d8d8d" d="M 1092.5,974.5 C 1090.38,976.6 1088.72,978.933 1087.5,981.5C 1087.24,977.763 1088.91,975.43 1092.5,974.5 Z"/></g>
<g><path style="opacity:1" fill="#707070" d="M 1171.5,984.5 C 1173.58,987.075 1174.91,990.075 1175.5,993.5C 1173.9,992.263 1172.74,990.596 1172,988.5C 1171.51,987.207 1171.34,985.873 1171.5,984.5 Z"/></g>
<g><path style="opacity:1" fill="#9f9f9f" d="M 1082.5,988.5 C 1080.26,993.725 1077.26,998.392 1073.5,1002.5C 1075.04,998.568 1076.71,994.568 1078.5,990.5C 1079.62,989.37 1080.96,988.703 1082.5,988.5 Z"/></g>
<g><path style="opacity:1" fill="#404040" d="M 1175.5,993.5 C 1178.74,995.633 1180.74,998.633 1181.5,1002.5C 1180.42,1002.46 1179.42,1002.13 1178.5,1001.5C 1177.75,998.675 1176.75,996.009 1175.5,993.5 Z"/></g>
<g><path style="opacity:1" fill="#9f9f9f" d="M 1073.5,1002.5 C 1071.7,1004.89 1070.03,1007.22 1068.5,1009.5C 1068.01,1005.54 1069.67,1003.21 1073.5,1002.5 Z"/></g>
<g><path style="opacity:1" fill="#979797" d="M 1068.5,1009.5 C 1066.44,1011.49 1065.1,1013.83 1064.5,1016.5C 1063.68,1012.78 1065.01,1010.44 1068.5,1009.5 Z"/></g>
<g><path style="opacity:1" fill="#3a3a3a" d="M 1184.5,1007.5 C 1188.11,1010.22 1190.11,1013.89 1190.5,1018.5C 1188.65,1014.85 1186.65,1011.19 1184.5,1007.5 Z"/></g>
<g><path style="opacity:1" fill="#979797" d="M 1064.5,1016.5 C 1062.08,1018.35 1060.42,1020.68 1059.5,1023.5C 1059.01,1019.54 1060.67,1017.21 1064.5,1016.5 Z"/></g>
<g><path style="opacity:1" fill="#838383" d="M 1059.5,1023.5 C 1057.08,1026.57 1054.75,1029.57 1052.5,1032.5C 1052.5,1030.83 1052.5,1029.17 1052.5,1027.5C 1054.82,1026.25 1057.16,1024.92 1059.5,1023.5 Z"/></g>
<g><path style="opacity:1" fill="#c9c9c9" d="M 1193.5,1019.5 C 1194.5,1019.41 1195.33,1019.75 1196,1020.5C 1196.33,1021.83 1196.67,1023.17 1197,1024.5C 1200.54,1025.96 1202.37,1028.63 1202.5,1032.5C 1205.56,1033.81 1206.89,1036.14 1206.5,1039.5C 1202.51,1035.66 1199.01,1031.33 1196,1026.5C 1195.85,1023.85 1195.01,1021.52 1193.5,1019.5 Z"/></g>
<g><path style="opacity:1" fill="#727272" d="M 1052.5,1032.5 C 1051.1,1034.88 1049.76,1037.21 1048.5,1039.5C 1048.22,1036.14 1049.55,1033.81 1052.5,1032.5 Z"/></g>
<g><path style="opacity:1" fill="#777777" d="M 1048.5,1039.5 C 1045.73,1042.26 1043.39,1045.26 1041.5,1048.5C 1041.93,1044.06 1044.27,1041.06 1048.5,1039.5 Z"/></g>
<g><path style="opacity:1" fill="#898989" d="M 1206.5,1040.5 C 1207.5,1040.41 1208.33,1040.75 1209,1041.5C 1209.49,1043.13 1209.66,1044.8 1209.5,1046.5C 1208.8,1044.41 1207.8,1042.41 1206.5,1040.5 Z"/></g>
<g><path style="opacity:1" fill="#848484" d="M 1209.5,1046.5 C 1211.37,1046.86 1212.87,1047.86 1214,1049.5C 1215.58,1052.92 1217.75,1055.92 1220.5,1058.5C 1217.92,1057.27 1215.59,1055.6 1213.5,1053.5C 1212.9,1050.7 1211.56,1048.37 1209.5,1046.5 Z"/></g>
<g><path style="opacity:1" fill="#3b3b3b" d="M 1041.5,1048.5 C 1040.88,1049.63 1040.04,1050.63 1039,1051.5C 1039.27,1055.71 1037.44,1058.38 1033.5,1059.5C 1033.83,1058.83 1034.17,1058.17 1034.5,1057.5C 1036.94,1055.93 1038.11,1053.59 1038,1050.5C 1038.82,1049.18 1039.98,1048.51 1041.5,1048.5 Z"/></g>
<g><path style="opacity:1" fill="#656565" d="M 1222.5,1063.5 C 1224.98,1064.69 1225.98,1066.69 1225.5,1069.5C 1224.51,1067.54 1223.51,1065.54 1222.5,1063.5 Z"/></g>
<g><path style="opacity:1" fill="#7f7f7f" d="M 1034.5,1057.5 C 1034.17,1058.17 1033.83,1058.83 1033.5,1059.5C 1030.89,1063.79 1028.23,1068.13 1025.5,1072.5C 1023.81,1073.86 1022.15,1075.19 1020.5,1076.5C 1023.32,1070.85 1026.66,1065.52 1030.5,1060.5C 1031.64,1059.17 1032.98,1058.17 1034.5,1057.5 Z"/></g>
<g><path style="opacity:1" fill="#b0b0b0" d="M 1225.5,1069.5 C 1227.44,1069.87 1229.27,1070.54 1231,1071.5C 1231.37,1074.57 1232.53,1077.23 1234.5,1079.5C 1232.63,1079.14 1231.13,1078.14 1230,1076.5C 1229.44,1073.5 1227.94,1071.16 1225.5,1069.5 Z"/></g>
<g><path style="opacity:1" fill="#5a5a5a" d="M 1236.5,1084.5 C 1238.98,1085.69 1239.98,1087.69 1239.5,1090.5C 1237.99,1088.82 1236.99,1086.82 1236.5,1084.5 Z"/></g>
<g><path style="opacity:1" fill="#7d7d7d" d="M 1013.5,1088.5 C 1010.43,1090.99 1008.1,1093.99 1006.5,1097.5C 1006.67,1092.82 1009.01,1089.82 1013.5,1088.5 Z"/></g>
<g><path style="opacity:1" fill="#787878" d="M 1239.5,1090.5 C 1243.73,1092.06 1246.07,1095.06 1246.5,1099.5C 1244.61,1096.26 1242.27,1093.26 1239.5,1090.5 Z"/></g>
<g><path style="opacity:1" fill="#8e8e8e" d="M 1246.5,1099.5 C 1249.17,1100.17 1250.83,1101.83 1251.5,1104.5C 1249.5,1103.17 1247.83,1101.5 1246.5,1099.5 Z"/></g>
<g><path style="opacity:1" fill="#6d6d6d" d="M 1251.5,1104.5 C 1252.99,1107.36 1254.99,1110.02 1257.5,1112.5C 1253.63,1111.29 1251.63,1108.62 1251.5,1104.5 Z"/></g>
<g><path style="opacity:1" fill="#8e8e8e" d="M 1006.5,1097.5 C 1004.2,1100.3 1001.7,1102.96 999,1105.5C 995.949,1109.71 993.116,1114.05 990.5,1118.5C 990.343,1117.13 990.51,1115.79 991,1114.5C 993.793,1111.55 995.96,1108.21 997.5,1104.5C 1000.25,1101.74 1003.25,1099.4 1006.5,1097.5 Z"/></g>
<g><path style="opacity:1" fill="#5f5f5f" d="M 1257.5,1112.5 C 1259.98,1113.69 1260.98,1115.69 1260.5,1118.5C 1258.99,1116.82 1257.99,1114.82 1257.5,1112.5 Z"/></g>
<g><path style="opacity:1" fill="#797979" d="M 1260.5,1118.5 C 1264.73,1120.06 1267.07,1123.06 1267.5,1127.5C 1265.61,1124.26 1263.27,1121.26 1260.5,1118.5 Z"/></g>
<g><path style="opacity:1" fill="#7d7d7d" d="M 990.5,1118.5 C 989.421,1120.54 987.754,1121.88 985.5,1122.5C 986.539,1120.47 988.205,1119.14 990.5,1118.5 Z"/></g>
<g><path style="opacity:1" fill="#909090" d="M 1267.5,1127.5 C 1270.17,1128.17 1271.83,1129.83 1272.5,1132.5C 1270.5,1131.17 1268.83,1129.5 1267.5,1127.5 Z"/></g>
<g><path style="opacity:1" fill="#8a8a8a" d="M 983.5,1127.5 C 981.5,1130.17 979.167,1132.5 976.5,1134.5C 977.833,1131.17 980.167,1128.83 983.5,1127.5 Z"/></g>
<g><path style="opacity:1" fill="#6a6a6a" d="M 1273.5,1132.5 C 1275.59,1137.12 1278.76,1141.12 1283,1144.5C 1283.49,1145.79 1283.66,1147.13 1283.5,1148.5C 1280.97,1144.46 1277.81,1140.79 1274,1137.5C 1273.51,1135.87 1273.34,1134.2 1273.5,1132.5 Z"/></g>
<g><path style="opacity:1" fill="#757575" d="M 1283.5,1148.5 C 1288.02,1150.35 1290.68,1153.68 1291.5,1158.5C 1289.33,1154.97 1286.66,1151.64 1283.5,1148.5 Z"/></g>
<g><path style="opacity:1" fill="#808080" d="M 966.5,1148.5 C 963.672,1153.87 960.005,1158.53 955.5,1162.5C 957.549,1159.62 959.383,1156.62 961,1153.5C 962.75,1151.58 964.583,1149.91 966.5,1148.5 Z"/></g>
<g><path style="opacity:1" fill="#b7b7b7" d="M 955.5,1162.5 C 952.913,1165.36 950.58,1168.36 948.5,1171.5C 949.219,1169.24 949.552,1166.9 949.5,1164.5C 951.685,1164.3 953.685,1163.63 955.5,1162.5 Z"/></g>
<g><path style="opacity:1" fill="#666666" d="M 1301.5,1170.5 C 1304.17,1172.5 1306.5,1174.83 1308.5,1177.5C 1305.17,1176.17 1302.83,1173.83 1301.5,1170.5 Z"/></g>
<g><path style="opacity:1" fill="#747474" d="M 1308.5,1177.5 C 1311.7,1182.21 1315.53,1186.54 1320,1190.5C 1320.24,1192.81 1321.07,1194.81 1322.5,1196.5C 1318.75,1191.22 1314.25,1186.22 1309,1181.5C 1308.51,1180.21 1308.34,1178.87 1308.5,1177.5 Z"/></g>
<g><path style="opacity:1" fill="#424242" d="M 943.5,1176.5 C 941.432,1179.12 940.099,1182.12 939.5,1185.5C 937.736,1187.28 935.736,1188.61 933.5,1189.5C 933.833,1188.83 934.167,1188.17 934.5,1187.5C 937.905,1184.03 940.905,1180.36 943.5,1176.5 Z"/></g>
<g><path style="opacity:1" fill="#8e8e8e" d="M 1322.5,1196.5 C 1326.17,1198.17 1328.83,1200.83 1330.5,1204.5C 1327.5,1202.17 1324.83,1199.5 1322.5,1196.5 Z"/></g>
<g><path style="opacity:1" fill="#868686" d="M 934.5,1187.5 C 934.167,1188.17 933.833,1188.83 933.5,1189.5C 932.206,1191.3 931.206,1193.3 930.5,1195.5C 924.022,1200.97 918.356,1206.97 913.5,1213.5C 915.549,1210.62 917.383,1207.62 919,1204.5C 924.88,1199.14 930.046,1193.47 934.5,1187.5 Z"/></g>
<g><path style="opacity:1" fill="#8e8e8e" d="M 911.5,1215.5 C 908.65,1218.56 906.317,1221.89 904.5,1225.5C 904.87,1220.75 907.203,1217.42 911.5,1215.5 Z"/></g>
<g><path style="opacity:1" fill="#7f7f7f" d="M 904.5,1225.5 C 903.421,1227.54 901.754,1228.88 899.5,1229.5C 900.539,1227.47 902.205,1226.14 904.5,1225.5 Z"/></g>
<g><path style="opacity:1" fill="#7e7e7e" d="M 1348.5,1227.5 C 1354.41,1231.9 1359.91,1236.9 1365,1242.5C 1367.99,1246.99 1371.16,1251.32 1374.5,1255.5C 1369.73,1251.9 1365.9,1247.57 1363,1242.5C 1357.96,1237.63 1353.13,1232.63 1348.5,1227.5 Z"/></g>
<g><path style="opacity:1" fill="#797979" d="M 899.5,1229.5 C 896.44,1233.55 893.44,1237.55 890.5,1241.5C 890.343,1240.13 890.51,1238.79 891,1237.5C 893.749,1234.58 896.583,1231.91 899.5,1229.5 Z"/></g>
<g><path style="opacity:1" fill="#898989" d="M 890.5,1241.5 C 888.5,1244.17 886.167,1246.5 883.5,1248.5C 884.833,1245.17 887.167,1242.83 890.5,1241.5 Z"/></g>
<g><path style="opacity:1" fill="#898989" d="M 883.5,1248.5 C 881.5,1251.17 879.167,1253.5 876.5,1255.5C 877.833,1252.17 880.167,1249.83 883.5,1248.5 Z"/></g>
<g><path style="opacity:1" fill="#8e8e8e" d="M 1374.5,1255.5 C 1377.83,1256.83 1380.17,1259.17 1381.5,1262.5C 1378.83,1260.5 1376.5,1258.17 1374.5,1255.5 Z"/></g>
<g><path style="opacity:1" fill="#8e8e8e" d="M 1381.5,1262.5 C 1384.83,1263.83 1387.17,1266.17 1388.5,1269.5C 1385.83,1267.5 1383.5,1265.17 1381.5,1262.5 Z"/></g>
<g><path style="opacity:1" fill="#9c9c9c" d="M 867.5,1266.5 C 866.167,1268.5 864.5,1270.17 862.5,1271.5C 863.167,1268.83 864.833,1267.17 867.5,1266.5 Z"/></g>
<g><path style="opacity:1" fill="#8e8e8e" d="M 860.5,1273.5 C 857.65,1276.56 855.317,1279.89 853.5,1283.5C 853.87,1278.75 856.203,1275.42 860.5,1273.5 Z"/></g>
<g><path style="opacity:1" fill="#767676" d="M 1388.5,1269.5 C 1392.35,1270.7 1394.35,1273.36 1394.5,1277.5C 1393.5,1277.59 1392.67,1277.25 1392,1276.5C 1391.87,1273.6 1390.7,1271.26 1388.5,1269.5 Z"/></g>
<g><path style="opacity:1" fill="#686868" d="M 1394.5,1277.5 C 1428.25,1311.25 1462.25,1344.58 1496.5,1377.5C 1493.98,1375.82 1491.31,1374.32 1488.5,1373C 1456.58,1341.58 1425.25,1309.75 1394.5,1277.5 Z"/></g>
<g><path style="opacity:1" fill="#7e7e7e" d="M 853.5,1283.5 C 852.421,1285.54 850.754,1286.88 848.5,1287.5C 849.539,1285.47 851.205,1284.14 853.5,1283.5 Z"/></g>
<g><path style="opacity:1" fill="#818181" d="M 848.5,1287.5 C 847.167,1290.83 844.833,1293.17 841.5,1294.5C 843.5,1291.83 845.833,1289.5 848.5,1287.5 Z"/></g>
<g><path style="opacity:1" fill="#7a7a7a" d="M 839.5,1296.5 C 834.509,1303.16 828.843,1309.16 822.5,1314.5C 827.463,1307.87 833.13,1301.87 839.5,1296.5 Z"/></g>
<g><path style="opacity:1" fill="#8d8d8d" d="M 816.5,1322.5 C 815.167,1324.5 813.5,1326.17 811.5,1327.5C 812.167,1324.83 813.833,1323.17 816.5,1322.5 Z"/></g>
<g><path style="opacity:1" fill="#8d8d8d" d="M 809.5,1329.5 C 808.167,1331.5 806.5,1333.17 804.5,1334.5C 805.167,1331.83 806.833,1330.17 809.5,1329.5 Z"/></g>
<g><path style="opacity:1" fill="#8d8d8d" d="M 802.5,1336.5 C 801.167,1338.5 799.5,1340.17 797.5,1341.5C 798.167,1338.83 799.833,1337.17 802.5,1336.5 Z"/></g>
<g><path style="opacity:1" fill="#8c8c8c" d="M 795.5,1343.5 C 793.5,1346.17 791.167,1348.5 788.5,1350.5C 789.833,1347.17 792.167,1344.83 795.5,1343.5 Z"/></g>
<g><path style="opacity:1" fill="#8c8c8c" d="M 788.5,1350.5 C 786.5,1353.17 784.167,1355.5 781.5,1357.5C 782.833,1354.17 785.167,1351.83 788.5,1350.5 Z"/></g>
<g><path style="opacity:1" fill="#8c8c8c" d="M 781.5,1357.5 C 779.5,1360.17 777.167,1362.5 774.5,1364.5C 775.833,1361.17 778.167,1358.83 781.5,1357.5 Z"/></g>
<g><path style="opacity:1" fill="#8c8c8c" d="M 774.5,1364.5 C 772.5,1367.17 770.167,1369.5 767.5,1371.5C 768.833,1368.17 771.167,1365.83 774.5,1364.5 Z"/></g>
<g><path style="opacity:1" fill="#8c8c8c" d="M 767.5,1371.5 C 765.5,1374.17 763.167,1376.5 760.5,1378.5C 761.833,1375.17 764.167,1372.83 767.5,1371.5 Z"/></g>
<g><path style="opacity:1" fill="#585858" d="M 1496.5,1377.5 C 1499.17,1379.5 1501.5,1381.83 1503.5,1384.5C 1500.17,1383.17 1497.83,1380.83 1496.5,1377.5 Z"/></g>
<g><path style="opacity:1" fill="#8d8d8d" d="M 758.5,1380.5 C 757.167,1382.5 755.5,1384.17 753.5,1385.5C 754.167,1382.83 755.833,1381.17 758.5,1380.5 Z"/></g>
<g><path style="opacity:1" fill="#8e8e8e" d="M 751.5,1387.5 C 750.167,1389.5 748.5,1391.17 746.5,1392.5C 747.167,1389.83 748.833,1388.17 751.5,1387.5 Z"/></g>
<g><path style="opacity:1" fill="#525252" d="M 746.5,1392.5 C 745.766,1393.71 745.433,1395.04 745.5,1396.5C 744.5,1396.5 743.5,1396.5 742.5,1396.5C 743.167,1394.5 744.5,1393.17 746.5,1392.5 Z"/></g>
<g><path style="opacity:1" fill="#575757" d="M 1510.5,1391.5 C 1512.37,1393.56 1514.7,1394.9 1517.5,1395.5C 1518.19,1396.52 1518.86,1397.52 1519.5,1398.5C 1518.86,1397.52 1518.19,1396.52 1517.5,1395.5C 1514.7,1394.9 1512.37,1393.56 1510.5,1391.5 Z"/></g>
<g><path style="opacity:1" fill="#727272" d="M 742.5,1396.5 C 741.232,1398.05 739.565,1399.05 737.5,1399.5C 738.048,1396.92 739.715,1395.92 742.5,1396.5 Z"/></g>
<g><path style="opacity:1" fill="#818181" d="M 737.5,1399.5 C 735.781,1402.22 733.447,1404.22 730.5,1405.5C 732.193,1402.81 734.527,1400.81 737.5,1399.5 Z"/></g>
<g><path style="opacity:1" fill="#818181" d="M 1524.5,1403.5 C 1532.74,1410.24 1540.58,1417.57 1548,1425.5C 1548.46,1426.09 1548.63,1426.76 1548.5,1427.5C 1540.17,1419.83 1532.17,1411.83 1524.5,1403.5 Z"/></g>
<g><path style="opacity:1" fill="#818181" d="M 730.5,1406.5 C 728.781,1409.22 726.447,1411.22 723.5,1412.5C 725.193,1409.81 727.527,1407.81 730.5,1406.5 Z"/></g>
<g><path style="opacity:1" fill="#818181" d="M 723.5,1413.5 C 721.781,1416.22 719.447,1418.22 716.5,1419.5C 718.193,1416.81 720.527,1414.81 723.5,1413.5 Z"/></g>
<g><path style="opacity:1" fill="#878787" d="M 1548.5,1427.5 C 1551.83,1428.83 1554.17,1431.17 1555.5,1434.5C 1552.83,1432.5 1550.5,1430.17 1548.5,1427.5 Z"/></g>
<g><path style="opacity:1" fill="#5c5c5c" d="M 716.5,1420.5 C 713.84,1423.82 711.84,1427.49 710.5,1431.5C 709.448,1431.35 708.448,1431.52 707.5,1432C 705.963,1433.71 704.296,1435.21 702.5,1436.5C 705.851,1432.31 709.017,1427.98 712,1423.5C 713.129,1421.86 714.629,1420.86 716.5,1420.5 Z"/></g>
<g><path style="opacity:1" fill="#848484" d="M 1555.5,1434.5 C 1560.02,1436.35 1562.68,1439.68 1563.5,1444.5C 1561.33,1440.97 1558.66,1437.64 1555.5,1434.5 Z"/></g>
<g><path style="opacity:1" fill="#949494" d="M 700.5,1438.5 C 699.167,1440.5 697.5,1442.17 695.5,1443.5C 696.167,1440.83 697.833,1439.17 700.5,1438.5 Z"/></g>
<g><path style="opacity:1" fill="#606060" d="M 1563.5,1444.5 C 1565.5,1445.83 1567.17,1447.5 1568.5,1449.5C 1565.83,1448.83 1564.17,1447.17 1563.5,1444.5 Z"/></g>
<g><path style="opacity:1" fill="#7e7e7e" d="M 695.5,1443.5 C 694.766,1444.71 694.433,1446.04 694.5,1447.5C 692.053,1447.62 690.053,1448.62 688.5,1450.5C 689.833,1447.17 692.167,1444.83 695.5,1443.5 Z"/></g>
<g><path style="opacity:1" fill="#606060" d="M 1568.5,1449.5 C 1571.17,1451.5 1573.5,1453.83 1575.5,1456.5C 1572.17,1455.17 1569.83,1452.83 1568.5,1449.5 Z"/></g>
<g><path style="opacity:1" fill="#7a7a7a" d="M 688.5,1450.5 C 687.766,1451.71 687.433,1453.04 687.5,1454.5C 686.448,1454.35 685.448,1454.52 684.5,1455C 683.468,1456.63 682.134,1457.79 680.5,1458.5C 682.188,1454.81 684.855,1452.14 688.5,1450.5 Z"/></g>
<g><path style="opacity:1" fill="#676767" d="M 1575.5,1456.5 C 1578.98,1458.64 1581.31,1461.64 1582.5,1465.5C 1581.5,1465.59 1580.67,1465.25 1580,1464.5C 1578.68,1461.69 1577.18,1459.02 1575.5,1456.5 Z"/></g>
<g><path style="opacity:1" fill="#909090" d="M 680.5,1458.5 C 680.658,1461.52 679.325,1463.52 676.5,1464.5C 677.808,1462.5 679.141,1460.5 680.5,1458.5 Z"/></g>
<g><path style="opacity:1" fill="#737373" d="M 1582.5,1465.5 C 1585.17,1467.5 1587.5,1469.83 1589.5,1472.5C 1586.17,1471.17 1583.83,1468.83 1582.5,1465.5 Z"/></g>
<g><path style="opacity:1" fill="#868686" d="M 1589.5,1472.5 C 1592.03,1476.54 1595.19,1480.21 1599,1483.5C 1599.49,1484.79 1599.66,1486.13 1599.5,1487.5C 1596.97,1483.46 1593.81,1479.79 1590,1476.5C 1589.51,1475.21 1589.34,1473.87 1589.5,1472.5 Z"/></g>
<g><path style="opacity:1" fill="#acacac" d="M 665.5,1478.5 C 663.041,1480.94 661.041,1483.61 659.5,1486.5C 658.5,1486.5 657.5,1486.5 656.5,1486.5C 656.975,1489.31 655.975,1491.31 653.5,1492.5C 654.219,1490.24 654.552,1487.9 654.5,1485.5C 655.833,1485.5 657.167,1485.5 658.5,1485.5C 659.789,1482.21 662.122,1479.88 665.5,1478.5 Z"/></g>
<g><path style="opacity:1" fill="#9a9a9a" d="M 1599.5,1487.5 C 1602.17,1488.17 1603.83,1489.83 1604.5,1492.5C 1602.5,1491.17 1600.83,1489.5 1599.5,1487.5 Z"/></g>
<g><path style="opacity:1" fill="#9a9a9a" d="M 651.5,1494.5 C 649.384,1496.6 647.717,1498.93 646.5,1501.5C 646.241,1497.76 647.907,1495.43 651.5,1494.5 Z"/></g>
<g><path style="opacity:1" fill="#8e8e8e" d="M 1610.5,1500.5 C 1611.5,1500.41 1612.33,1500.75 1613,1501.5C 1613.49,1503.13 1613.66,1504.8 1613.5,1506.5C 1612.8,1504.41 1611.8,1502.41 1610.5,1500.5 Z"/></g>
<g><path style="opacity:1" fill="#7c7c7c" d="M 644.5,1503.5 C 641.748,1506.58 639.414,1509.91 637.5,1513.5C 637.901,1508.77 640.234,1505.44 644.5,1503.5 Z"/></g>
<g><path style="opacity:1" fill="#808080" d="M 1613.5,1506.5 C 1618.02,1508.35 1620.68,1511.68 1621.5,1516.5C 1619.33,1512.97 1616.66,1509.64 1613.5,1506.5 Z"/></g>
<g><path style="opacity:1" fill="#636363" d="M 1621.5,1516.5 C 1624.33,1518 1625.99,1520.33 1626.5,1523.5C 1625.5,1523.59 1624.67,1523.25 1624,1522.5C 1623.34,1520.37 1622.51,1518.37 1621.5,1516.5 Z"/></g>
<g><path style="opacity:1" fill="#626262" d="M 637.5,1513.5 C 635.016,1515.55 634.016,1518.21 634.5,1521.5C 633.041,1521.43 631.708,1521.77 630.5,1522.5C 631.582,1520.66 632.415,1518.66 633,1516.5C 634.129,1514.86 635.629,1513.86 637.5,1513.5 Z"/></g>
<g><path style="opacity:1" fill="#6b6b6b" d="M 1626.5,1523.5 C 1628.98,1524.69 1629.98,1526.69 1629.5,1529.5C 1628.51,1527.54 1627.51,1525.54 1626.5,1523.5 Z"/></g>
<g><path style="opacity:1" fill="#6b6b6b" d="M 1629.5,1529.5 C 1633.62,1531.12 1636.12,1534.12 1637,1538.5C 1638.38,1539.71 1639.54,1541.04 1640.5,1542.5C 1637.03,1541.52 1635.2,1539.19 1635,1535.5C 1632.96,1533.63 1631.13,1531.63 1629.5,1529.5 Z"/></g>
<g><path style="opacity:1" fill="#858585" d="M 621.5,1533.5 C 619.636,1538.05 617.303,1542.38 614.5,1546.5C 611.902,1549.05 609.569,1551.71 607.5,1554.5C 608.582,1552.66 609.415,1550.66 610,1548.5C 613.148,1545.53 615.815,1542.2 618,1538.5C 618.333,1537.17 618.667,1535.83 619,1534.5C 619.671,1533.75 620.504,1533.41 621.5,1533.5 Z"/></g>
<g><path style="opacity:1" fill="#b7b7b7" d="M 1640.5,1542.5 C 1641.4,1543.21 1641.74,1544.21 1641.5,1545.5C 1642.82,1545.33 1643.99,1545.66 1645,1546.5C 1646.3,1550.22 1647.46,1553.88 1648.5,1557.5C 1647.66,1555.14 1646.16,1553.14 1644,1551.5C 1643.51,1549.87 1643.34,1548.2 1643.5,1546.5C 1642.5,1546.5 1641.5,1546.5 1640.5,1546.5C 1640.5,1545.17 1640.5,1543.83 1640.5,1542.5 Z"/></g>
<g><path style="opacity:1" fill="#727272" d="M 1648.5,1557.5 C 1649.99,1560.36 1651.99,1563.02 1654.5,1565.5C 1650.63,1564.29 1648.63,1561.62 1648.5,1557.5 Z"/></g>
<g><path style="opacity:1" fill="#818181" d="M 1654.5,1565.5 C 1656.38,1567.76 1657.38,1570.42 1657.5,1573.5C 1655.62,1571.24 1654.62,1568.58 1654.5,1565.5 Z"/></g>
<g><path style="opacity:1" fill="#a2a2a2" d="M 607.5,1554.5 C 606.069,1556.19 605.236,1558.19 605,1560.5C 603.846,1561.74 602.512,1562.74 601,1563.5C 600.422,1566.53 599.255,1569.2 597.5,1571.5C 597.908,1566.48 600.074,1562.48 604,1559.5C 604.333,1558.17 604.667,1556.83 605,1555.5C 605.671,1554.75 606.504,1554.41 607.5,1554.5 Z"/></g>
<g><path style="opacity:1" fill="#6f6f6f" d="M 597.5,1571.5 C 596.098,1573.88 594.765,1576.21 593.5,1578.5C 593.216,1575.14 594.549,1572.81 597.5,1571.5 Z"/></g>
<g><path style="opacity:1" fill="#a4a4a4" d="M 1657.5,1573.5 C 1661.09,1574.43 1662.76,1576.76 1662.5,1580.5C 1663.5,1580.5 1664.5,1580.5 1665.5,1580.5C 1665.37,1582.29 1665.7,1583.96 1666.5,1585.5C 1665.5,1585.5 1664.5,1585.5 1663.5,1585.5C 1662.68,1580.86 1660.68,1576.86 1657.5,1573.5 Z"/></g>
<g><path style="opacity:1" fill="#6b6b6b" d="M 593.5,1578.5 C 591.016,1580.55 590.016,1583.21 590.5,1586.5C 589.5,1586.5 588.5,1586.5 587.5,1586.5C 587.762,1587.98 587.429,1589.31 586.5,1590.5C 583.902,1593.05 581.569,1595.71 579.5,1598.5C 582.847,1592.97 586.014,1587.31 589,1581.5C 590.129,1579.86 591.629,1578.86 593.5,1578.5 Z"/></g>
<g><path style="opacity:1" fill="#b6b6b6" d="M 1667.5,1589.5 C 1668.5,1589.41 1669.33,1589.75 1670,1590.5C 1671.62,1593.32 1672.79,1596.32 1673.5,1599.5C 1672.83,1599.5 1672.17,1599.5 1671.5,1599.5C 1669.73,1596.41 1668.4,1593.08 1667.5,1589.5 Z"/></g>
<g><path style="opacity:1" fill="#5e5e5e" d="M 1671.5,1599.5 C 1672.17,1599.5 1672.83,1599.5 1673.5,1599.5C 1673.34,1600.87 1673.51,1602.21 1674,1603.5C 1675.82,1605.13 1676.99,1607.13 1677.5,1609.5C 1676.5,1609.59 1675.67,1609.25 1675,1608.5C 1673.38,1605.68 1672.21,1602.68 1671.5,1599.5 Z"/></g>
<g><path style="opacity:1" fill="#818181" d="M 576.5,1606.5 C 575.051,1611.71 572.717,1616.38 569.5,1620.5C 569.5,1618.83 569.5,1617.17 569.5,1615.5C 570.5,1615.5 571.5,1615.5 572.5,1615.5C 572.343,1614.13 572.51,1612.79 573,1611.5C 573.737,1609.4 574.903,1607.74 576.5,1606.5 Z"/></g>
<g><path style="opacity:1" fill="#646464" d="M 1677.5,1609.5 C 1679.33,1612.77 1681.17,1616.1 1683,1619.5C 1683.32,1621.59 1683.82,1623.59 1684.5,1625.5C 1683.5,1625.59 1682.67,1625.25 1682,1624.5C 1680.34,1619.53 1678.84,1614.53 1677.5,1609.5 Z"/></g>
<g><path style="opacity:1" fill="#989898" d="M 569.5,1620.5 C 569.145,1623.23 567.812,1625.23 565.5,1626.5C 566.364,1624.08 567.697,1622.08 569.5,1620.5 Z"/></g>
<g><path style="opacity:1" fill="#a1a1a1" d="M 565.5,1626.5 C 562.448,1632.11 560.448,1638.11 559.5,1644.5C 558.5,1644.5 557.5,1644.5 556.5,1644.5C 555.391,1648.18 554.391,1651.85 553.5,1655.5C 553.339,1651.28 554.006,1647.28 555.5,1643.5C 556.5,1643.5 557.5,1643.5 558.5,1643.5C 559.68,1638.1 561.18,1632.77 563,1627.5C 563.671,1626.75 564.504,1626.41 565.5,1626.5 Z"/></g>
<g><path style="opacity:1" fill="#868686" d="M 1689.5,1637.5 C 1691.42,1642.95 1693.76,1648.28 1696.5,1653.5C 1695.5,1653.59 1694.67,1653.25 1694,1652.5C 1692,1647.68 1690.5,1642.68 1689.5,1637.5 Z"/></g>
<g><path style="opacity:1" fill="#9a9a9a" d="M 553.5,1655.5 C 551.924,1658.65 550.924,1661.99 550.5,1665.5C 549.5,1665.5 548.5,1665.5 547.5,1665.5C 547.795,1667.74 547.461,1669.74 546.5,1671.5C 546.808,1667.43 547.475,1663.43 548.5,1659.5C 549.5,1659.5 550.5,1659.5 551.5,1659.5C 551.157,1657.52 551.824,1656.18 553.5,1655.5 Z"/></g>
<g><path style="opacity:1" fill="#9b9b9b" d="M 1698.5,1660.5 C 1699.46,1662.26 1699.79,1664.26 1699.5,1666.5C 1700.5,1666.5 1701.5,1666.5 1702.5,1666.5C 1702.28,1669.28 1702.61,1671.95 1703.5,1674.5C 1703.17,1674.5 1702.83,1674.5 1702.5,1674.5C 1701.88,1674.39 1701.38,1674.06 1701,1673.5C 1699.66,1669.25 1698.83,1664.91 1698.5,1660.5 Z"/></g>
<g><path style="opacity:1" fill="#8a8a8a" d="M 546.5,1671.5 C 545.935,1673.95 545.268,1676.29 544.5,1678.5C 543.99,1675.61 544.656,1673.28 546.5,1671.5 Z"/></g>
<g><path style="opacity:1" fill="#6a6a6a" d="M 544.5,1678.5 C 543.935,1680.95 543.268,1683.29 542.5,1685.5C 541.99,1682.61 542.656,1680.28 544.5,1678.5 Z"/></g>
<g><path style="opacity:1" fill="#606060" d="M 1702.5,1674.5 C 1702.83,1674.5 1703.17,1674.5 1703.5,1674.5C 1703.34,1677.19 1703.5,1679.85 1704,1682.5C 1707.71,1687.46 1709.21,1693.12 1708.5,1699.5C 1707.68,1697.03 1707.18,1694.36 1707,1691.5C 1703.29,1686.54 1701.79,1680.88 1702.5,1674.5 Z"/></g>
<g><path style="opacity:1" fill="#8b8b8b" d="M 539.5,1692.5 C 538.935,1694.95 538.268,1697.29 537.5,1699.5C 536.99,1696.61 537.656,1694.28 539.5,1692.5 Z"/></g>
<g><path style="opacity:1" fill="#888888" d="M 1708.5,1699.5 C 1709.5,1699.5 1710.5,1699.5 1711.5,1699.5C 1711.25,1702.94 1711.59,1706.27 1712.5,1709.5C 1711.5,1709.59 1710.67,1709.25 1710,1708.5C 1709.74,1705.41 1709.24,1702.41 1708.5,1699.5 Z"/></g>
<g><path style="opacity:1" fill="#a8a8a8" d="M 537.5,1699.5 C 535.948,1704.34 534.282,1709.01 532.5,1713.5C 532.689,1708.7 533.356,1704.03 534.5,1699.5C 535.5,1699.5 536.5,1699.5 537.5,1699.5 Z"/></g>
<g><path style="opacity:1" fill="#6b6b6b" d="M 1712.5,1709.5 C 1713.17,1712.83 1713.83,1716.17 1714.5,1719.5C 1715,1724.6 1715.84,1729.6 1717,1734.5C 1717.5,1740.49 1717.67,1746.49 1717.5,1752.5C 1715.48,1738.35 1713.82,1724.02 1712.5,1709.5 Z"/></g>
<g><path style="opacity:1" fill="#c2c2c2" d="M 1714.5,1719.5 C 1715.5,1719.41 1716.33,1719.75 1717,1720.5C 1718.78,1730.71 1719.78,1741.04 1720,1751.5C 1720.83,1777 1720.66,1802.34 1719.5,1827.5C 1719.83,1802.66 1719.5,1777.99 1718.5,1753.5C 1717.83,1753.5 1717.5,1753.17 1717.5,1752.5C 1717.67,1746.49 1717.5,1740.49 1717,1734.5C 1715.84,1729.6 1715,1724.6 1714.5,1719.5 Z"/></g>
<g><path style="opacity:1" fill="#818181" d="M 532.5,1713.5 C 530.514,1724 528.681,1734.67 527,1745.5C 526.333,1746.17 525.667,1746.83 525,1747.5C 523.385,1757.83 522.218,1768.17 521.5,1778.5C 521.5,1778.17 521.5,1777.83 521.5,1777.5C 521.334,1771.82 521.501,1766.16 522,1760.5C 523.232,1751.82 524.565,1743.15 526,1734.5C 526.414,1734.04 526.914,1733.71 527.5,1733.5C 529.274,1726.66 530.941,1720 532.5,1713.5 Z"/></g>
<g><path style="opacity:1" fill="#353535" d="M 1718.5,1753.5 C 1719.5,1777.99 1719.83,1802.66 1719.5,1827.5C 1718.88,1827.61 1718.38,1827.94 1718,1828.5C 1717.83,1833.68 1717.33,1838.68 1716.5,1843.5C 1716.05,1837.65 1716.55,1831.98 1718,1826.5C 1718.5,1802.17 1718.67,1777.84 1718.5,1753.5 Z"/></g>
<g><path style="opacity:1" fill="#bababa" d="M 521.5,1777.5 C 521.5,1777.83 521.5,1778.17 521.5,1778.5C 520.883,1778.61 520.383,1778.94 520,1779.5C 519.171,1797.67 519.338,1815.67 520.5,1833.5C 520.833,1834.17 521.167,1834.83 521.5,1835.5C 520.504,1835.59 519.671,1835.25 519,1834.5C 518.333,1815.83 518.333,1797.17 519,1778.5C 519.671,1777.75 520.504,1777.41 521.5,1777.5 Z"/></g>
<g><path style="opacity:1" fill="#6e6e6e" d="M 520.5,1833.5 C 522.467,1841.1 523.134,1849.1 522.5,1857.5C 521.508,1850.35 521.175,1843.02 521.5,1835.5C 521.167,1834.83 520.833,1834.17 520.5,1833.5 Z"/></g>
<g><path style="opacity:1" fill="#828282" d="M 1716.5,1843.5 C 1715.42,1851.54 1714.42,1859.54 1713.5,1867.5C 1712.5,1867.5 1711.5,1867.5 1710.5,1867.5C 1710.45,1871.19 1710.12,1874.85 1709.5,1878.5C 1709.41,1880.33 1708.75,1881.67 1707.5,1882.5C 1707.69,1877.04 1708.36,1871.7 1709.5,1866.5C 1710.5,1866.5 1711.5,1866.5 1712.5,1866.5C 1712.33,1862.82 1712.5,1859.15 1713,1855.5C 1713.77,1851.22 1714.93,1847.22 1716.5,1843.5 Z"/></g>
<g><path style="opacity:1" fill="#666666" d="M 523.5,1857.5 C 524.482,1860.96 524.815,1864.63 524.5,1868.5C 525.5,1868.5 526.5,1868.5 527.5,1868.5C 528.167,1874.83 528.833,1881.17 529.5,1887.5C 528.683,1885.03 528.183,1882.36 528,1879.5C 527.617,1878.94 527.117,1878.61 526.5,1878.5C 526.5,1875.5 526.5,1872.5 526.5,1869.5C 525.5,1869.5 524.5,1869.5 523.5,1869.5C 523.5,1865.5 523.5,1861.5 523.5,1857.5 Z"/></g>
<g><path style="opacity:1" fill="#c9c9c9" d="M 526.5,1878.5 C 527.117,1878.61 527.617,1878.94 528,1879.5C 528.183,1882.36 528.683,1885.03 529.5,1887.5C 530.167,1887.5 530.833,1887.5 531.5,1887.5C 531.848,1892.22 532.515,1896.89 533.5,1901.5C 532.942,1899.21 531.776,1897.21 530,1895.5C 528.267,1890.01 527.101,1884.34 526.5,1878.5 Z"/></g>
<g><path style="opacity:1" fill="#505050" d="M 1707.5,1882.5 C 1705.06,1888.82 1702.73,1895.16 1700.5,1901.5C 1701.89,1895.49 1703.39,1889.49 1705,1883.5C 1705.67,1882.75 1706.5,1882.41 1707.5,1882.5 Z"/></g>
<g><path style="opacity:1" fill="#373737" d="M 531.5,1887.5 C 533.431,1894.63 535.764,1901.63 538.5,1908.5C 537.833,1908.5 537.167,1908.5 536.5,1908.5C 535.895,1906.03 534.895,1903.69 533.5,1901.5C 532.515,1896.89 531.848,1892.22 531.5,1887.5 Z"/></g>
<g><path style="opacity:1" fill="#595959" d="M 1700.5,1901.5 C 1697.75,1906.67 1695.42,1912 1693.5,1917.5C 1694.75,1914.02 1695.59,1910.35 1696,1906.5C 1697.52,1904.73 1699.02,1903.06 1700.5,1901.5 Z"/></g>
<g><path style="opacity:1" fill="#bbbbbb" d="M 536.5,1908.5 C 537.167,1908.5 537.833,1908.5 538.5,1908.5C 538.808,1912.57 539.475,1916.57 540.5,1920.5C 541.5,1920.5 542.5,1920.5 543.5,1920.5C 544.25,1924.9 545.584,1928.9 547.5,1932.5C 547.5,1933.83 547.5,1935.17 547.5,1936.5C 546.717,1934.92 545.55,1933.59 544,1932.5C 543.952,1927.75 542.286,1923.75 539,1920.5C 538.003,1916.5 537.169,1912.5 536.5,1908.5 Z"/></g>
<g><path style="opacity:1" fill="#565656" d="M 1690.5,1922.5 C 1689.83,1924.5 1689.17,1926.5 1688.5,1928.5C 1687.83,1929.5 1687.17,1930.5 1686.5,1931.5C 1686.34,1930.13 1686.51,1928.79 1687,1927.5C 1687.74,1925.4 1688.9,1923.74 1690.5,1922.5 Z"/></g>
<g><path style="opacity:1" fill="#b0b0b0" d="M 1688.5,1928.5 C 1687.83,1931.5 1687.17,1934.5 1686.5,1937.5C 1685.5,1937.5 1684.5,1937.5 1683.5,1937.5C 1683.77,1939.1 1683.43,1940.43 1682.5,1941.5C 1682.5,1939.83 1682.5,1938.17 1682.5,1936.5C 1683.83,1934.83 1685.17,1933.17 1686.5,1931.5C 1687.17,1930.5 1687.83,1929.5 1688.5,1928.5 Z"/></g>
<g><path style="opacity:1" fill="#5f5f5f" d="M 547.5,1932.5 C 549.575,1935.07 550.909,1938.07 551.5,1941.5C 550.025,1939.99 548.691,1938.33 547.5,1936.5C 547.5,1935.17 547.5,1933.83 547.5,1932.5 Z"/></g>
<g><path style="opacity:1" fill="#484848" d="M 1682.5,1936.5 C 1682.5,1938.17 1682.5,1939.83 1682.5,1941.5C 1681.18,1943.75 1679.52,1945.75 1677.5,1947.5C 1678.45,1943.31 1680.11,1939.65 1682.5,1936.5 Z"/></g>
<g><path style="opacity:1" fill="#9f9f9f" d="M 553.5,1946.5 C 556.325,1947.48 557.658,1949.48 557.5,1952.5C 555.631,1950.97 554.298,1948.97 553.5,1946.5 Z"/></g>
<g><path style="opacity:1" fill="#7b7b7b" d="M 557.5,1952.5 C 558.994,1955.36 560.994,1958.02 563.5,1960.5C 559.631,1959.29 557.631,1956.62 557.5,1952.5 Z"/></g>
<g><path style="opacity:1" fill="#909090" d="M 1677.5,1947.5 C 1675.9,1952.06 1673.57,1956.06 1670.5,1959.5C 1670.34,1958.13 1670.51,1956.79 1671,1955.5C 1673.61,1953.89 1674.94,1951.56 1675,1948.5C 1675.67,1947.75 1676.5,1947.41 1677.5,1947.5 Z"/></g>
<g><path style="opacity:1" fill="#717171" d="M 563.5,1960.5 C 566.639,1963.99 568.972,1967.99 570.5,1972.5C 569.504,1972.59 568.671,1972.25 568,1971.5C 567.942,1968.44 566.609,1966.11 564,1964.5C 563.51,1963.21 563.343,1961.87 563.5,1960.5 Z"/></g>
<g><path style="opacity:1" fill="#6c6c6c" d="M 1670.5,1959.5 C 1667.03,1962.95 1664.03,1966.62 1661.5,1970.5C 1662.67,1965.33 1665.67,1961.67 1670.5,1959.5 Z"/></g>
<g><path style="opacity:1" fill="#636363" d="M 586.5,1992.5 C 589.213,1994.21 591.213,1996.55 592.5,1999.5C 589.757,1997.76 587.757,1995.43 586.5,1992.5 Z"/></g>
<g><path style="opacity:1" fill="#7e7e7e" d="M 1661.5,1970.5 C 1657.39,1978.29 1651.72,1984.96 1644.5,1990.5C 1643.55,1992.05 1643.21,1993.71 1643.5,1995.5C 1642.13,1995.34 1640.79,1995.51 1639.5,1996C 1632.3,2003.37 1624.96,2010.54 1617.5,2017.5C 1623.91,2009.59 1630.91,2002.09 1638.5,1995C 1639.79,1994.51 1641.13,1994.34 1642.5,1994.5C 1642.21,1992.71 1642.55,1991.05 1643.5,1989.5C 1647.82,1985.68 1651.99,1981.68 1656,1977.5C 1656.2,1973.81 1658.03,1971.48 1661.5,1970.5 Z"/></g>
<g><path style="opacity:1" fill="#727272" d="M 1617.5,2017.5 C 1616.43,2018.43 1615.1,2018.77 1613.5,2018.5C 1613.72,2019.68 1613.39,2020.68 1612.5,2021.5C 1610.01,2022.99 1607.67,2024.66 1605.5,2026.5C 1607.07,2023.26 1609.4,2020.59 1612.5,2018.5C 1614.05,2017.55 1615.71,2017.21 1617.5,2017.5 Z"/></g>
<g><path style="opacity:1" fill="#676767" d="M 1605.5,2026.5 C 1602.93,2027.72 1600.6,2029.38 1598.5,2031.5C 1599.43,2027.91 1601.76,2026.24 1605.5,2026.5 Z"/></g>
<g><path style="opacity:1" fill="#808080" d="M 1071.5,2064.5 C 1071.34,2061.48 1071.5,2058.48 1072,2055.5C 1073.33,2050.83 1074.67,2046.17 1076,2041.5C 1078.21,2039 1079.05,2036 1078.5,2032.5C 1075.59,2033.65 1072.59,2034.65 1069.5,2035.5C 1072.6,2032.79 1076.27,2030.79 1080.5,2029.5C 1080.83,2030 1081.17,2030.5 1081.5,2031C 1078.34,2042.57 1075.01,2053.74 1071.5,2064.5 Z"/></g>
<g><path style="opacity:1" fill="#868686" d="M 1187.5,2032.5 C 1186.5,2032.5 1185.5,2032.5 1184.5,2032.5C 1184.24,2036.27 1184.58,2039.94 1185.5,2043.5C 1184.5,2043.5 1183.5,2043.5 1182.5,2043.5C 1182.77,2039.43 1182.43,2035.43 1181.5,2031.5C 1181.83,2031.17 1182.17,2030.83 1182.5,2030.5C 1184.34,2031.03 1186,2031.69 1187.5,2032.5 Z"/></g>
<g><path style="opacity:1" fill="#575757" d="M 1192.5,2034.5 C 1194.89,2036.3 1197.22,2037.97 1199.5,2039.5C 1195.76,2039.76 1193.43,2038.09 1192.5,2034.5 Z"/></g>
<g><path style="opacity:1" fill="#616161" d="M 1598.5,2031.5 C 1594.06,2034.79 1589.39,2037.79 1584.5,2040.5C 1585.48,2037.03 1587.81,2035.2 1591.5,2035C 1593.07,2032.26 1595.4,2031.09 1598.5,2031.5 Z"/></g>
<g><path style="opacity:1" fill="#b2b2b2" d="M 636.5,2036.5 C 639.135,2037.83 641.802,2039.17 644.5,2040.5C 645.362,2041.77 646.029,2043.1 646.5,2044.5C 643.534,2042.89 640.534,2041.22 637.5,2039.5C 636.873,2038.58 636.539,2037.58 636.5,2036.5 Z"/></g>
<g><path style="opacity:1" fill="#686868" d="M 1199.5,2039.5 C 1202.68,2040.21 1205.68,2041.38 1208.5,2043C 1209.25,2043.67 1209.59,2044.5 1209.5,2045.5C 1205.84,2043.8 1202.51,2041.8 1199.5,2039.5 Z"/></g>
<g><path style="opacity:1" fill="#4b4b4b" d="M 1062.5,2040.5 C 1058.03,2042.79 1053.36,2044.79 1048.5,2046.5C 1052.5,2043.31 1057.16,2041.31 1062.5,2040.5 Z"/></g>
<g><path style="opacity:1" fill="#636363" d="M 1584.5,2040.5 C 1581.93,2041.72 1579.6,2043.38 1577.5,2045.5C 1578.43,2041.91 1580.76,2040.24 1584.5,2040.5 Z"/></g>
<g><path style="opacity:1" fill="#bebebe" d="M 1185.5,2043.5 C 1186.12,2043.61 1186.62,2043.94 1187,2044.5C 1187.12,2047.37 1187.78,2050.04 1189,2052.5C 1189.5,2055.48 1189.66,2058.48 1189.5,2061.5C 1188.83,2058.83 1188.17,2056.17 1187.5,2053.5C 1185.6,2050.66 1184.93,2047.33 1185.5,2043.5 Z"/></g>
<g><path style="opacity:1" fill="#838383" d="M 1577.5,2045.5 C 1575.24,2047.38 1572.58,2048.38 1569.5,2048.5C 1569.5,2049.5 1569.5,2050.5 1569.5,2051.5C 1568.17,2051.5 1566.83,2051.5 1565.5,2051.5C 1566.21,2050.6 1567.21,2050.26 1568.5,2050.5C 1568.5,2049.5 1568.5,2048.5 1568.5,2047.5C 1571.5,2046.83 1574.5,2046.17 1577.5,2045.5 Z"/></g>
<g><path style="opacity:1" fill="#9d9d9d" d="M 651.5,2046.5 C 653.042,2047.3 654.708,2047.63 656.5,2047.5C 656.5,2048.5 656.5,2049.5 656.5,2050.5C 653.873,2050.21 652.206,2048.88 651.5,2046.5 Z"/></g>
<g><path style="opacity:1" fill="#a1a1a1" d="M 1213.5,2046.5 C 1215.72,2047.37 1218.05,2047.7 1220.5,2047.5C 1220.5,2048.5 1220.5,2049.5 1220.5,2050.5C 1218.28,2049.63 1215.95,2049.3 1213.5,2049.5C 1213.5,2048.5 1213.5,2047.5 1213.5,2046.5 Z"/></g>
<g><path style="opacity:1" fill="#808080" d="M 657.5,2050.5 C 661.706,2051.77 665.373,2053.77 668.5,2056.5C 665.076,2055.57 661.742,2054.4 658.5,2053C 657.748,2052.33 657.414,2051.5 657.5,2050.5 Z"/></g>
<g><path style="opacity:1" fill="#a7a7a7" d="M 1220.5,2050.5 C 1225.86,2052 1231.19,2053.5 1236.5,2055C 1237.25,2055.67 1237.59,2056.5 1237.5,2057.5C 1233.09,2056.6 1228.76,2055.6 1224.5,2054.5C 1224.5,2053.5 1224.5,2052.5 1224.5,2051.5C 1222.9,2051.77 1221.57,2051.43 1220.5,2050.5 Z"/></g>
<g><path style="opacity:1" fill="#595959" d="M 1034.5,2054.5 C 1029.05,2056.42 1023.72,2058.76 1018.5,2061.5C 1018.5,2060.5 1018.5,2059.5 1018.5,2058.5C 1023.83,2057.17 1029.17,2055.83 1034.5,2054.5 Z"/></g>
<g><path style="opacity:1" fill="#545454" d="M 1559.5,2054.5 C 1555.03,2056.79 1550.36,2058.79 1545.5,2060.5C 1549.5,2057.31 1554.16,2055.31 1559.5,2054.5 Z"/></g>
<g><path style="opacity:1" fill="#6d6d6d" d="M 668.5,2056.5 C 671.285,2055.92 672.952,2056.92 673.5,2059.5C 671.435,2059.05 669.768,2058.05 668.5,2056.5 Z"/></g>
<g><path style="opacity:1" fill="#a7a7a7" d="M 673.5,2059.5 C 676.407,2059.58 679.073,2060.41 681.5,2062C 682.252,2062.67 682.586,2063.5 682.5,2064.5C 680.621,2063.66 678.621,2063.33 676.5,2063.5C 676.5,2062.5 676.5,2061.5 676.5,2060.5C 675.209,2060.74 674.209,2060.4 673.5,2059.5 Z"/></g>
<g><path style="opacity:1" fill="#bbbbbb" d="M 1237.5,2057.5 C 1249.02,2062.3 1261.02,2066.13 1273.5,2069C 1274.25,2069.67 1274.59,2070.5 1274.5,2071.5C 1267.26,2069.44 1259.93,2067.6 1252.5,2066C 1246.9,2064.19 1241.9,2061.36 1237.5,2057.5 Z"/></g>
<g><path style="opacity:1" fill="#959595" d="M 1018.5,2061.5 C 1017.43,2062.43 1016.1,2062.77 1014.5,2062.5C 1014.5,2063.5 1014.5,2064.5 1014.5,2065.5C 1009.57,2066.59 1004.57,2067.59 999.5,2068.5C 1001.83,2066.92 1004.5,2065.75 1007.5,2065C 1009.47,2064.5 1011.47,2064.34 1013.5,2064.5C 1013.5,2063.5 1013.5,2062.5 1013.5,2061.5C 1015.17,2061.5 1016.83,2061.5 1018.5,2061.5 Z"/></g>
<g><path style="opacity:1" fill="#999999" d="M 1545.5,2061.5 C 1544.66,2062.94 1543.33,2063.94 1541.5,2064.5C 1536.71,2066.57 1531.71,2067.9 1526.5,2068.5C 1528.83,2066.92 1531.5,2065.75 1534.5,2065C 1536.47,2064.5 1538.47,2064.34 1540.5,2064.5C 1540.5,2063.5 1540.5,2062.5 1540.5,2061.5C 1542.17,2061.5 1543.83,2061.5 1545.5,2061.5 Z"/></g>
<g><path style="opacity:1" fill="#676767" d="M 1071.5,2064.5 C 1070.93,2066.95 1070.27,2069.29 1069.5,2071.5C 1068.99,2068.61 1069.66,2066.28 1071.5,2064.5 Z"/></g>
<g><path style="opacity:1" fill="#5a5a5a" d="M 999.5,2068.5 C 993.461,2070.63 987.461,2072.96 981.5,2075.5C 981.5,2074.5 981.5,2073.5 981.5,2072.5C 987.539,2071.38 993.539,2070.05 999.5,2068.5 Z"/></g>
<g><path style="opacity:1" fill="#595959" d="M 1526.5,2068.5 C 1520.46,2070.63 1514.46,2072.96 1508.5,2075.5C 1508.5,2074.5 1508.5,2073.5 1508.5,2072.5C 1514.54,2071.38 1520.54,2070.05 1526.5,2068.5 Z"/></g>
<g><path style="opacity:1" fill="#7c7c7c" d="M 693.5,2067.5 C 697.303,2068.32 700.636,2069.99 703.5,2072.5C 708.01,2073.69 712.343,2075.02 716.5,2076.5C 707.566,2076.11 699.899,2073.11 693.5,2067.5 Z"/></g>
<g><path style="opacity:1" fill="#727272" d="M 981.5,2075.5 C 979.285,2076.27 976.952,2076.93 974.5,2077.5C 976.279,2075.66 978.612,2074.99 981.5,2075.5 Z"/></g>
<g><path style="opacity:1" fill="#c2c2c2" d="M 1274.5,2071.5 C 1280.29,2071.89 1285.63,2073.23 1290.5,2075.5C 1293.17,2076.17 1295.83,2076.83 1298.5,2077.5C 1292.47,2076.99 1286.47,2076.16 1280.5,2075C 1278.11,2074.26 1276.11,2073.09 1274.5,2071.5 Z"/></g>
<g><path style="opacity:1" fill="#585858" d="M 1290.5,2075.5 C 1296.8,2075.59 1302.8,2076.59 1308.5,2078.5C 1305.06,2078.75 1301.73,2078.41 1298.5,2077.5C 1295.83,2076.83 1293.17,2076.17 1290.5,2075.5 Z"/></g>
<g><path style="opacity:1" fill="#585858" d="M 1508.5,2075.5 C 1505.06,2076.02 1501.73,2077.02 1498.5,2078.5C 1495.39,2078.26 1492.39,2078.6 1489.5,2079.5C 1492.53,2077.93 1495.86,2076.76 1499.5,2076C 1502.48,2075.5 1505.48,2075.34 1508.5,2075.5 Z"/></g>
<g><path style="opacity:1" fill="#878787" d="M 716.5,2076.5 C 718.746,2077.21 721.08,2077.71 723.5,2078C 724.252,2078.67 724.586,2079.5 724.5,2080.5C 722.254,2079.79 719.92,2079.29 717.5,2079C 716.748,2078.33 716.414,2077.5 716.5,2076.5 Z"/></g>
<g><path style="opacity:1" fill="#b9b9b9" d="M 1298.5,2077.5 C 1301.73,2078.41 1305.06,2078.75 1308.5,2078.5C 1315.6,2081.8 1323.27,2083.3 1331.5,2083C 1332.06,2083.38 1332.39,2083.88 1332.5,2084.5C 1332.5,2084.83 1332.5,2085.17 1332.5,2085.5C 1321.54,2083.78 1310.54,2081.95 1299.5,2080C 1298.75,2079.33 1298.41,2078.5 1298.5,2077.5 Z"/></g>
<g><path style="opacity:1" fill="#676767" d="M 974.5,2077.5 C 966.448,2080.36 958.115,2082.69 949.5,2084.5C 949.167,2084.5 948.833,2084.5 948.5,2084.5C 954.29,2082.78 959.957,2080.61 965.5,2078C 968.482,2077.5 971.482,2077.34 974.5,2077.5 Z"/></g>
<g><path style="opacity:1" fill="#a6a6a6" d="M 1187.5,2053.5 C 1188.17,2056.17 1188.83,2058.83 1189.5,2061.5C 1191.39,2063.99 1192.05,2066.99 1191.5,2070.5C 1192.5,2070.5 1193.5,2070.5 1194.5,2070.5C 1195.42,2077.13 1196.42,2083.8 1197.5,2090.5C 1197.17,2090.5 1196.83,2090.5 1196.5,2090.5C 1195.88,2090.39 1195.38,2090.06 1195,2089.5C 1194.9,2086.3 1194.23,2083.3 1193,2080.5C 1192.5,2077.52 1192.34,2074.52 1192.5,2071.5C 1191.5,2071.5 1190.5,2071.5 1189.5,2071.5C 1188.83,2065.5 1188.17,2059.5 1187.5,2053.5 Z"/></g>
<g><path style="opacity:1" fill="#b5b5b5" d="M 1498.5,2078.5 C 1492.82,2080.93 1486.82,2082.77 1480.5,2084C 1473.19,2085.16 1465.86,2086 1458.5,2086.5C 1461.83,2085.83 1465.17,2085.17 1468.5,2084.5C 1475.48,2082.99 1482.48,2081.33 1489.5,2079.5C 1492.39,2078.6 1495.39,2078.26 1498.5,2078.5 Z"/></g>
<g><path style="opacity:1" fill="#9c9c9c" d="M 724.5,2080.5 C 731.906,2081.9 739.24,2083.4 746.5,2085C 747.252,2085.67 747.586,2086.5 747.5,2087.5C 741.717,2086.74 736.05,2085.57 730.5,2084C 728.242,2083.12 726.242,2081.96 724.5,2080.5 Z"/></g>
<g><path style="opacity:1" fill="#252525" d="M 1332.5,2085.5 C 1332.5,2085.17 1332.5,2084.83 1332.5,2084.5C 1341.01,2084.63 1349.51,2084.97 1358,2085.5C 1361.9,2085.51 1365.4,2086.18 1368.5,2087.5C 1361.17,2087.5 1353.83,2087.5 1346.5,2087.5C 1342.29,2085.56 1337.62,2084.9 1332.5,2085.5 Z"/></g>
<g><path style="opacity:1" fill="#c8c8c8" d="M 948.5,2084.5 C 948.833,2084.5 949.167,2084.5 949.5,2084.5C 949.586,2085.5 949.252,2086.33 948.5,2087C 941.595,2088.69 934.595,2089.86 927.5,2090.5C 927.5,2090.17 927.5,2089.83 927.5,2089.5C 934.479,2087.99 941.479,2086.33 948.5,2084.5 Z"/></g>
<g><path style="opacity:1" fill="#404040" d="M 1468.5,2084.5 C 1465.17,2085.17 1461.83,2085.83 1458.5,2086.5C 1450.91,2087.3 1443.25,2087.8 1435.5,2088C 1434.62,2088.71 1433.95,2089.54 1433.5,2090.5C 1412.16,2090.83 1390.82,2090.5 1369.5,2089.5C 1369.14,2088.82 1368.8,2088.15 1368.5,2087.5C 1390.12,2088.64 1411.79,2088.81 1433.5,2088C 1445.17,2086.83 1456.84,2085.67 1468.5,2084.5 Z"/></g>
<g><path style="opacity:1" fill="#2a2a2a" d="M 767.5,2089.5 C 773.118,2090.24 778.785,2090.74 784.5,2091C 784.957,2091.41 785.291,2091.91 785.5,2092.5C 790.651,2093.17 795.651,2093.83 800.5,2094.5C 795.167,2094.5 789.833,2094.5 784.5,2094.5C 779.563,2092.87 774.229,2091.87 768.5,2091.5C 768.137,2090.82 767.804,2090.15 767.5,2089.5 Z"/></g>
<g><path style="opacity:1" fill="#cacaca" d="M 1346.5,2087.5 C 1353.83,2087.5 1361.17,2087.5 1368.5,2087.5C 1368.8,2088.15 1369.14,2088.82 1369.5,2089.5C 1390.82,2090.5 1412.16,2090.83 1433.5,2090.5C 1412,2091.83 1390.33,2091.83 1368.5,2090.5C 1360.79,2090.15 1353.45,2089.15 1346.5,2087.5 Z"/></g>
<g><path style="opacity:1" fill="#5d5d5d" d="M 927.5,2089.5 C 927.5,2089.83 927.5,2090.17 927.5,2090.5C 923.958,2090.19 920.625,2090.52 917.5,2091.5C 912.5,2092.17 907.5,2092.83 902.5,2093.5C 906.898,2091.94 911.564,2090.77 916.5,2090C 920.152,2089.5 923.818,2089.33 927.5,2089.5 Z"/></g>
<g><path style="opacity:1" fill="#5b5b5b" d="M 1196.5,2090.5 C 1196.83,2090.5 1197.17,2090.5 1197.5,2090.5C 1197.34,2093.19 1197.5,2095.85 1198,2098.5C 1200.03,2100.74 1201.2,2103.41 1201.5,2106.5C 1200.5,2106.5 1199.5,2106.5 1198.5,2106.5C 1197.04,2101.36 1196.37,2096.03 1196.5,2090.5 Z"/></g>
<g><path style="opacity:1" fill="#a6a6a6" d="M 747.5,2087.5 C 754.349,2087.39 761.016,2088.06 767.5,2089.5C 767.804,2090.15 768.137,2090.82 768.5,2091.5C 774.229,2091.87 779.563,2092.87 784.5,2094.5C 776.158,2093.75 767.825,2092.58 759.5,2091C 758.833,2090.33 758.167,2089.67 757.5,2089C 753.975,2088.82 750.641,2088.32 747.5,2087.5 Z"/></g>
<g><path style="opacity:1" fill="#262626" d="M 800.5,2094.5 C 827.456,2095.48 854.456,2095.82 881.5,2095.5C 881.5,2095.83 881.5,2096.17 881.5,2096.5C 854.831,2096.67 828.165,2096.5 801.5,2096C 800.944,2095.62 800.611,2095.12 800.5,2094.5 Z"/></g>
<g><path style="opacity:1" fill="#7b7b7b" d="M 784.5,2094.5 C 789.833,2094.5 795.167,2094.5 800.5,2094.5C 800.611,2095.12 800.944,2095.62 801.5,2096C 828.165,2096.5 854.831,2096.67 881.5,2096.5C 854.264,2097.83 826.931,2097.83 799.5,2096.5C 794.5,2095.83 789.5,2095.17 784.5,2094.5 Z"/></g>
<g><path style="opacity:1" fill="#cfcfcf" d="M 917.5,2091.5 C 917.586,2092.5 917.252,2093.33 916.5,2094C 891.555,2097.29 866.389,2098.79 841,2098.5C 826.817,2098.5 812.983,2097.83 799.5,2096.5C 826.931,2097.83 854.264,2097.83 881.5,2096.5C 881.5,2096.17 881.5,2095.83 881.5,2095.5C 888.5,2094.83 895.5,2094.17 902.5,2093.5C 907.5,2092.83 912.5,2092.17 917.5,2091.5 Z"/></g>
<g><path style="opacity:1" fill="#8d8d8d" d="M 1059.5,2101.5 C 1058.93,2103.95 1058.27,2106.29 1057.5,2108.5C 1056.99,2105.61 1057.66,2103.28 1059.5,2101.5 Z"/></g>
<g><path style="opacity:1" fill="#343434" d="M 1065.5,2087.5 C 1063.63,2094.86 1061.63,2102.19 1059.5,2109.5C 1058.5,2109.5 1057.5,2109.5 1056.5,2109.5C 1056.79,2111.74 1056.46,2113.74 1055.5,2115.5C 1054.99,2112.61 1055.66,2110.28 1057.5,2108.5C 1058.27,2106.29 1058.93,2103.95 1059.5,2101.5C 1060.79,2097.3 1061.96,2092.97 1063,2088.5C 1063.67,2087.75 1064.5,2087.41 1065.5,2087.5 Z"/></g>
<g><path style="opacity:1" fill="#949494" d="M 1202.5,2115.5 C 1203.5,2115.5 1204.5,2115.5 1205.5,2115.5C 1205.3,2117.95 1205.63,2120.28 1206.5,2122.5C 1205.5,2122.5 1204.5,2122.5 1203.5,2122.5C 1203.7,2120.05 1203.37,2117.72 1202.5,2115.5 Z"/></g>
<g><path style="opacity:1" fill="#8f8f8f" d="M 1052.5,2122.5 C 1051.93,2124.95 1051.27,2127.29 1050.5,2129.5C 1049.99,2126.61 1050.66,2124.28 1052.5,2122.5 Z"/></g>
<g><path style="opacity:1" fill="#727272" d="M 1050.5,2129.5 C 1049.93,2131.95 1049.27,2134.29 1048.5,2136.5C 1047.99,2133.61 1048.66,2131.28 1050.5,2129.5 Z"/></g>
<g><path style="opacity:1" fill="#a1a1a1" d="M 1206.5,2122.5 C 1207.31,2124.29 1207.81,2126.29 1208,2128.5C 1208.67,2129.17 1209.33,2129.83 1210,2130.5C 1211.62,2138.26 1213.46,2145.92 1215.5,2153.5C 1213.48,2148.55 1211.31,2143.55 1209,2138.5C 1208.33,2133.06 1207.5,2127.73 1206.5,2122.5 Z"/></g>
<g><path style="opacity:1" fill="#909090" d="M 1045.5,2143.5 C 1044.93,2145.95 1044.27,2148.29 1043.5,2150.5C 1042.99,2147.61 1043.66,2145.28 1045.5,2143.5 Z"/></g>
<g><path style="opacity:1" fill="#919191" d="M 1043.5,2150.5 C 1040.71,2157.42 1038.38,2164.42 1036.5,2171.5C 1037.84,2164.43 1039.17,2157.43 1040.5,2150.5C 1041.5,2150.5 1042.5,2150.5 1043.5,2150.5 Z"/></g>
<g><path style="opacity:1" fill="#828282" d="M 1215.5,2153.5 C 1216.96,2155.24 1218.12,2157.24 1219,2159.5C 1220.58,2164.38 1221.75,2169.38 1222.5,2174.5C 1222.17,2174.5 1221.83,2174.5 1221.5,2174.5C 1220.88,2174.39 1220.38,2174.06 1220,2173.5C 1218.18,2166.88 1216.68,2160.22 1215.5,2153.5 Z"/></g>
<g><path style="opacity:1" fill="#8f8f8f" d="M 1036.5,2171.5 C 1034.8,2177.27 1032.46,2182.6 1029.5,2187.5C 1030.99,2183.72 1031.66,2179.72 1031.5,2175.5C 1032.5,2175.5 1033.5,2175.5 1034.5,2175.5C 1034.16,2173.52 1034.82,2172.18 1036.5,2171.5 Z"/></g>
<g><path style="opacity:1" fill="#4a4a4a" d="M 1221.5,2174.5 C 1221.83,2174.5 1222.17,2174.5 1222.5,2174.5C 1223.23,2175.81 1224.07,2177.14 1225,2178.5C 1226,2182.83 1227,2187.17 1228,2191.5C 1228.67,2192.25 1229.5,2192.59 1230.5,2192.5C 1230.5,2193.83 1230.5,2195.17 1230.5,2196.5C 1228.91,2195.65 1227.74,2194.32 1227,2192.5C 1225.6,2186.25 1223.76,2180.25 1221.5,2174.5 Z"/></g>
<g><path style="opacity:1" fill="#8c8c8c" d="M 1230.5,2192.5 C 1234.11,2199.04 1236.78,2206.04 1238.5,2213.5C 1237.02,2212.03 1235.69,2210.36 1234.5,2208.5C 1233.6,2204.3 1232.26,2200.3 1230.5,2196.5C 1230.5,2195.17 1230.5,2193.83 1230.5,2192.5 Z"/></g>
<g><path style="opacity:1" fill="#6a6a6a" d="M 1029.5,2187.5 C 1029.5,2190.17 1029.5,2192.83 1029.5,2195.5C 1028.5,2195.5 1027.5,2195.5 1026.5,2195.5C 1024.46,2201.07 1022.13,2206.4 1019.5,2211.5C 1021.32,2205.9 1022.98,2200.23 1024.5,2194.5C 1025.5,2194.5 1026.5,2194.5 1027.5,2194.5C 1026.99,2191.61 1027.66,2189.28 1029.5,2187.5 Z"/></g>
<g><path style="opacity:1" fill="#6f6f6f" d="M 1015.5,2222.5 C 1014.44,2225.86 1013.44,2229.19 1012.5,2232.5C 1011.5,2232.5 1010.5,2232.5 1009.5,2232.5C 1009.77,2234.1 1009.43,2235.43 1008.5,2236.5C 1008.5,2234.83 1008.5,2233.17 1008.5,2231.5C 1009.5,2231.5 1010.5,2231.5 1011.5,2231.5C 1011.34,2230.13 1011.51,2228.79 1012,2227.5C 1012.74,2225.4 1013.9,2223.74 1015.5,2222.5 Z"/></g>
<g><path style="opacity:1" fill="#a8a8a8" d="M 1243.5,2222.5 C 1244.71,2223.23 1245.71,2224.23 1246.5,2225.5C 1247.87,2229.18 1249.2,2232.85 1250.5,2236.5C 1246.4,2232.93 1244.07,2228.26 1243.5,2222.5 Z"/></g>
<g><path style="opacity:1" fill="#707070" d="M 1008.5,2236.5 C 1007.44,2239.86 1006.44,2243.19 1005.5,2246.5C 1004.5,2246.5 1003.5,2246.5 1002.5,2246.5C 1002.77,2248.1 1002.43,2249.43 1001.5,2250.5C 1001.5,2248.83 1001.5,2247.17 1001.5,2245.5C 1002.5,2245.5 1003.5,2245.5 1004.5,2245.5C 1004.34,2244.13 1004.51,2242.79 1005,2241.5C 1005.74,2239.4 1006.9,2237.74 1008.5,2236.5 Z"/></g>
<g><path style="opacity:1" fill="#9e9e9e" d="M 1250.5,2236.5 C 1251.71,2237.23 1252.71,2238.23 1253.5,2239.5C 1254.87,2243.18 1256.2,2246.85 1257.5,2250.5C 1256.5,2250.5 1255.5,2250.5 1254.5,2250.5C 1253.17,2245.87 1251.84,2241.2 1250.5,2236.5 Z"/></g>
<g><path style="opacity:1" fill="#a6a6a6" d="M 1257.5,2250.5 C 1260.95,2253.83 1263.28,2257.83 1264.5,2262.5C 1263.5,2262.59 1262.67,2262.25 1262,2261.5C 1259.76,2258.11 1258.26,2254.44 1257.5,2250.5 Z"/></g>
<g><path style="opacity:1" fill="#8d8d8d" d="M 1001.5,2250.5 C 1000.44,2253.86 999.444,2257.19 998.5,2260.5C 997.5,2260.5 996.5,2260.5 995.5,2260.5C 995.425,2263.41 994.591,2266.07 993,2268.5C 992.292,2269.38 991.458,2270.05 990.5,2270.5C 991.628,2266.61 992.962,2262.95 994.5,2259.5C 995.5,2259.5 996.5,2259.5 997.5,2259.5C 997.343,2258.13 997.51,2256.79 998,2255.5C 998.737,2253.4 999.903,2251.74 1001.5,2250.5 Z"/></g>
<g><path style="opacity:1" fill="#888888" d="M 1264.5,2262.5 C 1266.91,2263.68 1267.91,2265.68 1267.5,2268.5C 1266.52,2266.54 1265.52,2264.54 1264.5,2262.5 Z"/></g>
<g><path style="opacity:1" fill="#909090" d="M 1267.5,2268.5 C 1271.37,2269.71 1273.37,2272.38 1273.5,2276.5C 1272.01,2273.64 1270.01,2270.98 1267.5,2268.5 Z"/></g>
<g><path style="opacity:1" fill="#8b8b8b" d="M 990.5,2270.5 C 989.127,2274.04 987.46,2277.37 985.5,2280.5C 986.036,2277.45 986.869,2274.45 988,2271.5C 988.671,2270.75 989.504,2270.41 990.5,2270.5 Z"/></g>
<g><path style="opacity:1" fill="#626262" d="M 1273.5,2276.5 C 1275.98,2277.69 1276.98,2279.69 1276.5,2282.5C 1275.51,2280.54 1274.51,2278.54 1273.5,2276.5 Z"/></g>
<g><path style="opacity:1" fill="#787878" d="M 1276.5,2282.5 C 1279.17,2283.17 1280.83,2284.83 1281.5,2287.5C 1279.5,2286.17 1277.83,2284.5 1276.5,2282.5 Z"/></g>
<g><path style="opacity:1" fill="#5a5a5a" d="M 1282.5,2287.5 C 1283.2,2289.59 1284.2,2291.59 1285.5,2293.5C 1284.5,2293.59 1283.67,2293.25 1283,2292.5C 1282.51,2290.87 1282.34,2289.2 1282.5,2287.5 Z"/></g>
<g><path style="opacity:1" fill="#868686" d="M 1285.5,2293.5 C 1290.34,2295.67 1293.34,2299.34 1294.5,2304.5C 1293.5,2304.59 1292.67,2304.25 1292,2303.5C 1291.67,2302.17 1291.33,2300.83 1291,2299.5C 1288.96,2297.63 1287.13,2295.63 1285.5,2293.5 Z"/></g>
<g><path style="opacity:1" fill="#7c7c7c" d="M 980.5,2287.5 C 978.06,2294.31 974.06,2299.97 968.5,2304.5C 971.787,2298.23 975.787,2292.57 980.5,2287.5 Z"/></g>
<g><path style="opacity:1" fill="#676767" d="M 1294.5,2304.5 C 1300.28,2308.94 1304.95,2314.28 1308.5,2320.5C 1306.22,2320.24 1305.06,2318.91 1305,2316.5C 1300.9,2312.9 1297.4,2308.9 1294.5,2304.5 Z"/></g>
<g><path style="opacity:1" fill="#878787" d="M 964.5,2310.5 C 962.641,2314.9 960.308,2318.9 957.5,2322.5C 957.215,2320.71 957.548,2319.05 958.5,2317.5C 960.763,2315.25 962.763,2312.92 964.5,2310.5 Z"/></g>
<g><path style="opacity:1" fill="#828282" d="M 957.5,2322.5 C 956.089,2324.91 954.089,2326.58 951.5,2327.5C 952.911,2325.09 954.911,2323.42 957.5,2322.5 Z"/></g>
<g><path style="opacity:1" fill="#646464" d="M 950.5,2331.5 C 949.098,2333.88 947.765,2336.21 946.5,2338.5C 946.216,2335.14 947.549,2332.81 950.5,2331.5 Z"/></g>
<g><path style="opacity:1" fill="#b6b6b6" d="M 1319.5,2331.5 C 1323.56,2331.98 1325.56,2334.32 1325.5,2338.5C 1327.6,2340.59 1329.27,2342.92 1330.5,2345.5C 1325.27,2341.95 1321.61,2337.29 1319.5,2331.5 Z"/></g>
<g><path style="opacity:1" fill="#808080" d="M 945.5,2338.5 C 944.098,2340.88 942.765,2343.21 941.5,2345.5C 941.216,2342.14 942.549,2339.81 945.5,2338.5 Z"/></g>
<g><path style="opacity:1" fill="#959595" d="M 941.5,2345.5 C 938.064,2348.92 935.064,2352.59 932.5,2356.5C 933.636,2351.36 936.636,2347.69 941.5,2345.5 Z"/></g>
<g><path style="opacity:1" fill="#2a2a2a" d="M 931.5,2358.5 C 999.33,2359.83 1067.5,2360.5 1136,2360.5C 1204.5,2360.5 1272.67,2359.83 1340.5,2358.5C 1341.48,2358.81 1342.14,2359.48 1342.5,2360.5C 1205.17,2361.5 1067.83,2361.83 930.5,2361.5C 930.263,2360.21 930.596,2359.21 931.5,2358.5 Z"/></g>
<g><path style="opacity:1" fill="#838383" d="M 1336.5,2353.5 C 1339.08,2354.73 1341.41,2356.4 1343.5,2358.5C 1344.78,2359.96 1344.78,2361.29 1343.5,2362.5C 1205.67,2362.83 1068,2362.5 930.5,2361.5C 1067.83,2361.83 1205.17,2361.5 1342.5,2360.5C 1342.14,2359.48 1341.48,2358.81 1340.5,2358.5C 1339.17,2356.83 1337.83,2355.17 1336.5,2353.5 Z"/></g>
<g><path style="opacity:1" fill="#d8d8d8" d="M 932.5,2356.5 C 932.167,2357.17 931.833,2357.83 931.5,2358.5C 930.596,2359.21 930.263,2360.21 930.5,2361.5C 1068,2362.5 1205.67,2362.83 1343.5,2362.5C 1205.67,2363.67 1067.67,2363.83 929.5,2363C 927.816,2359.54 928.816,2357.37 932.5,2356.5 Z"/></g>
<g><path style="opacity:1" fill="#8c8c8c" d="M 1839.5,2760.5 C 1829.15,2760.4 1818.81,2760.73 1808.5,2761.5C 1814.25,2759.96 1820.25,2759.29 1826.5,2759.5C 1831.01,2759.5 1835.35,2759.83 1839.5,2760.5 Z"/></g>
<g><path style="opacity:1" fill="#8e8e8e" d="M 2056.5,2760.5 C 2045.15,2760.37 2033.81,2760.71 2022.5,2761.5C 2023.61,2760.71 2024.94,2760.21 2026.5,2760C 2036.68,2759.18 2046.68,2759.34 2056.5,2760.5 Z"/></g>
<g><path style="opacity:1" fill="#000000" d="M 1839.5,2760.5 C 1843.04,2760.19 1846.38,2760.52 1849.5,2761.5C 1852.27,2762.66 1855.27,2763.32 1858.5,2763.5C 1862.4,2764.49 1866.4,2765.49 1870.5,2766.5C 1871.51,2767.67 1872.85,2768.34 1874.5,2768.5C 1876.51,2770.07 1878.84,2771.07 1881.5,2771.5C 1889.33,2775.91 1896.99,2780.58 1904.5,2785.5C 1906.9,2788.9 1909.9,2791.57 1913.5,2793.5C 1917.79,2798.96 1922.29,2804.29 1927,2809.5C 1930.5,2815.17 1934,2820.83 1937.5,2826.5C 1950.75,2801.75 1969.75,2782.91 1994.5,2770C 2001.22,2767.07 2008.22,2764.9 2015.5,2763.5C 2018.15,2763.59 2020.49,2762.92 2022.5,2761.5C 2033.81,2760.71 2045.15,2760.37 2056.5,2760.5C 2056.83,2760.5 2057.17,2760.5 2057.5,2760.5C 2060.91,2761.9 2064.58,2762.57 2068.5,2762.5C 2072.3,2763.87 2076.3,2764.87 2080.5,2765.5C 2082.51,2767.07 2084.84,2768.07 2087.5,2768.5C 2087.83,2768.5 2088.17,2768.5 2088.5,2768.5C 2090.51,2770.07 2092.84,2771.07 2095.5,2771.5C 2142.6,2797.01 2164.76,2836.68 2162,2890.5C 2159.05,2922.37 2148.05,2951.04 2129,2976.5C 2115.64,2993.87 2100.81,3010.03 2084.5,3025C 2048.43,3055.99 2013.6,3088.49 1980,3122.5C 1964.5,3139.49 1950.33,3157.49 1937.5,3176.5C 1916.23,3147.06 1892.23,3119.89 1865.5,3095C 1847.31,3078.97 1829.31,3062.8 1811.5,3046.5C 1810.42,3044.41 1808.75,3043.08 1806.5,3042.5C 1779.28,3019.79 1755.78,2993.79 1736,2964.5C 1727.98,2949.7 1721.48,2934.37 1716.5,2918.5C 1716.74,2912.82 1715.74,2907.48 1713.5,2902.5C 1712.54,2888.51 1712.38,2874.51 1713,2860.5C 1715.74,2846.95 1720.07,2833.95 1726,2821.5C 1729.12,2815.57 1732.95,2810.24 1737.5,2805.5C 1739.59,2804.42 1740.92,2802.75 1741.5,2800.5C 1747.24,2793.42 1753.91,2787.42 1761.5,2782.5C 1764.17,2781.15 1766.5,2779.48 1768.5,2777.5C 1770.85,2777.41 1772.51,2776.41 1773.5,2774.5C 1775.94,2772.87 1778.61,2771.54 1781.5,2770.5C 1784.4,2769.87 1787.06,2768.87 1789.5,2767.5C 1791.68,2765.42 1794.35,2764.42 1797.5,2764.5C 1801.48,2764.26 1805.15,2763.26 1808.5,2761.5C 1818.81,2760.73 1829.15,2760.4 1839.5,2760.5 Z"/></g>
<g><path style="opacity:1" fill="#888888" d="M 2057.5,2760.5 C 2061.49,2760.12 2065.16,2760.78 2068.5,2762.5C 2064.58,2762.57 2060.91,2761.9 2057.5,2760.5 Z"/></g>
<g><path style="opacity:1" fill="#929292" d="M 1849.5,2761.5 C 1852.19,2761.34 1854.85,2761.5 1857.5,2762C 1858.06,2762.38 1858.39,2762.88 1858.5,2763.5C 1855.27,2763.32 1852.27,2762.66 1849.5,2761.5 Z"/></g>
<g><path style="opacity:1" fill="#8e8e8e" d="M 1808.5,2761.5 C 1805.15,2763.26 1801.48,2764.26 1797.5,2764.5C 1800.81,2762.63 1804.48,2761.63 1808.5,2761.5 Z"/></g>
<g><path style="opacity:1" fill="#6f6f6f" d="M 2022.5,2761.5 C 2020.49,2762.92 2018.15,2763.59 2015.5,2763.5C 2017.51,2762.08 2019.85,2761.41 2022.5,2761.5 Z"/></g>
<g><path style="opacity:1" fill="#adadad" d="M 1858.5,2763.5 C 1863.03,2762.89 1867.03,2763.89 1870.5,2766.5C 1866.4,2765.49 1862.4,2764.49 1858.5,2763.5 Z"/></g>
<g><path style="opacity:1" fill="#909090" d="M 2068.5,2762.5 C 2073.07,2761.89 2077.07,2762.89 2080.5,2765.5C 2076.3,2764.87 2072.3,2763.87 2068.5,2762.5 Z"/></g>
<g><path style="opacity:1" fill="#858585" d="M 2080.5,2765.5 C 2083.49,2765.17 2085.82,2766.17 2087.5,2768.5C 2084.84,2768.07 2082.51,2767.07 2080.5,2765.5 Z"/></g>
<g><path style="opacity:1" fill="#959595" d="M 1874.5,2768.5 C 1877.49,2768.17 1879.82,2769.17 1881.5,2771.5C 1878.84,2771.07 1876.51,2770.07 1874.5,2768.5 Z"/></g>
<g><path style="opacity:1" fill="#9a9a9a" d="M 2088.5,2768.5 C 2091.49,2768.17 2093.82,2769.17 2095.5,2771.5C 2092.84,2771.07 2090.51,2770.07 2088.5,2768.5 Z"/></g>
<g><path style="opacity:1" fill="#767676" d="M 1789.5,2767.5 C 1787.06,2768.87 1784.4,2769.87 1781.5,2770.5C 1783.62,2768.35 1786.28,2767.35 1789.5,2767.5 Z"/></g>
<g><path style="opacity:1" fill="#595959" d="M 1773.5,2774.5 C 1772.51,2776.41 1770.85,2777.41 1768.5,2777.5C 1769.66,2775.75 1771.33,2774.75 1773.5,2774.5 Z"/></g>
<g><path style="opacity:1" fill="#555555" d="M 1768.5,2777.5 C 1766.5,2779.48 1764.17,2781.15 1761.5,2782.5C 1762.99,2779.68 1765.33,2778.01 1768.5,2777.5 Z"/></g>
<g><path style="opacity:1" fill="#a7a7a7" d="M 1904.5,2785.5 C 1908.1,2787.43 1911.1,2790.1 1913.5,2793.5C 1909.9,2791.57 1906.9,2788.9 1904.5,2785.5 Z"/></g>
<g><path style="opacity:1" fill="#555555" d="M 1741.5,2800.5 C 1740.92,2802.75 1739.59,2804.42 1737.5,2805.5C 1738.08,2803.25 1739.41,2801.58 1741.5,2800.5 Z"/></g>
<g><path style="opacity:1" fill="#aaaaaa" d="M 1713.5,2902.5 C 1715.74,2907.48 1716.74,2912.82 1716.5,2918.5C 1714.26,2913.52 1713.26,2908.18 1713.5,2902.5 Z"/></g>
<g><path style="opacity:1" fill="#555555" d="M 1806.5,3042.5 C 1808.75,3043.08 1810.42,3044.41 1811.5,3046.5C 1809.25,3045.92 1807.58,3044.59 1806.5,3042.5 Z"/></g>
</svg>
